<svg xmlns="http://www.w3.org/2000/svg" viewBox="0 0 66 66"><path d="M10.076 42.736c9.731-2.732 18.792-3.776 27.679-3.186-1.476 8.455-2.872 16.707-4.305 24.9a.5.5 0 0 0 .553.582c5.59-.68 10.639-1.21 15.827-.81a.493.493 0 0 0 .535-.439 4814.94 4814.94 0 0 0 3.094-26.713c.47-4.127.948-8.321 1.432-12.523l.043-.042a.249.249 0 0 0 .002-.348c.713-6.183 1.497-12.8 1.617-13.8.032-.266-.117-.509-.504-.56-4.887.076-9.864.294-14.69.368a.5.5 0 0 0-.482.4c-.962 4.698-1.792 9.211-2.748 13.907-3.26-.194-6.597-.287-9.846-.475A133.427 133.427 0 0 0 34.04 1.658a.5.5 0 0 0-.48-.583c-2.202-.057-4.378-.042-6.501-.022-.004-.005-.002-.012-.007-.016-.094-.094-.244-.109-.372.019-2.48.024-4.929.05-7.404-.015a.5.5 0 0 0-.507.425 283.43 283.43 0 0 1-9.306 40.641.501.501 0 0 0 .613.629zm2.667-8.333.207-.207.659.659-.659.659-.402-.402.195-.709zm-.348 1.263.201.201-.354.354c.052-.184.101-.37.153-.555zm-.554 1.947.964.964-1.77 1.77c.272-.909.542-1.82.806-2.734zm-1.102 3.737 1.198-1.198.843.842c-.696.173-1.391.345-2.094.536l.053-.18zm4.996-1.443-.525-.525 1.186-1.186a.25.25 0 0 0 .071.171l.687.687-1.205 1.205a99.44 99.44 0 0 0-2.083.467l.991-.991.525.525a.249.249 0 0 0 .353 0 .25.25 0 0 0 0-.353zm3.231-1.959.957.957-.714.714c-.325.057-.654.127-.98.188.006-.005.016-.003.022-.009a.25.25 0 0 0 0-.354l-.39-.39 1.105-1.106zm3.306-.685.868.868-1.031 1.031c-.388.054-.779.122-1.168.182a.24.24 0 0 0-.066-.194l-.245-.245 1.642-1.642zm1.386 1.386a.25.25 0 1 0 .354-.354l-.165-.165 1.106-1.106 1.076 1.076-.679.679c-.808.08-1.62.176-2.434.282l.578-.578.164.166zm4.094-1.565.808.808-.674.674c-.585.039-1.173.092-1.76.144l.324-.325a.241.241 0 0 0 .153-.064.247.247 0 0 0 .064-.153l1.085-1.084zm2.694-.37c.009.014.006.032.018.045l.657.657-1.015 1.015c-.005.005-.003.012-.007.017-.194.007-.389.023-.583.031a.248.248 0 0 0-.005-.342l-.245-.245 1.18-1.178zm-1.288 1.777c.004.004.011.003.016.007l-.541.029.28-.28.245.244zm-8.717.932c-.13.021-.26.04-.391.062l.226-.226.165.164zm-2.544.375c.033.033.078.039.12.05-.391.074-.782.145-1.175.225l.665-.665.39.39zm15.568-1.397.661-.661.57.57-.112.112c-.373-.009-.746-.019-1.119-.021zm2.477-.631.599.599-.114.114c-.383-.018-.766-.037-1.15-.049l.665-.664zm-.94 23.584 1.041 1.041-1.223 1.223c-.086.086-.083.214-.018.311l-.25.029c.152-.87.299-1.735.45-2.604zm6.815 1.885 1.32-1.32 1.07 1.07a.25.25 0 1 0 .354-.354l-1.07-1.07L45.056 60l1.461 1.461-1.643 1.643a70.122 70.122 0 0 0-3.057.135zm1.321-2.027-1.202-1.202 1.565-1.565 1.202 1.202-1.565 1.565zm-.354.354-1.542 1.542c-.012-.034-.014-.072-.041-.099l-1.132-1.132 1.513-1.513 1.202 1.202zM40.8 63.315c-.788.062-1.579.13-2.38.211l1.295-1.295 1.085 1.084zm-3.078.201c.01-.075-.002-.151-.06-.208l-.912-.912 1.565-1.565 1.047 1.047-1.64 1.638zm-.429.13c-.668.072-1.342.148-2.023.229l1.126-1.126.897.897zm8.304-.557 1.274-1.274 1.318 1.318a52.153 52.153 0 0 0-2.592-.044zm2.968.062a.25.25 0 0 0-.001-.35l-1.339-1.339 1.772-1.772.707.707c.015.015.037.012.054.022l-.327 2.773c-.29-.02-.578-.028-.866-.041zm2.217-11.614-1.068-1.068 1.339-1.339c.02-.02.019-.049.03-.073l-.29 2.507c-.006-.008-.004-.019-.011-.027zm.873-7.47-.336 2.925-1.295-1.295 1.631-1.63zm2.833-24.708-.47-.47.593-.593-.123 1.063zm-.27 2.323-.149-.149.188-.188-.039.337zm-.739 6.417-.084-.084.105-.105-.021.189zm-.073.635-.205 1.785-1.124-1.124c-.012-.012-.03-.009-.043-.018l1.007-1.007.365.364zm-.566 4.95-.879-.879c.041-.011.084-.016.117-.048l.98-.98-.218 1.907zm-.371 3.257-.94-.94 1.182-1.182-.242 2.122zm-.308 2.7-.58-.58.73-.73-.15 1.31zM27.12 24.288a.5.5 0 0 0 .439.668c3.663.228 7.356.317 10.943.542a.505.505 0 0 0 .521-.398c.957-4.67 1.785-9.175 2.755-13.939 4.551-.078 9.172-.272 13.716-.352l-.068.574-.154.154-.186-.186a.25.25 0 1 0-.354.354l.186.186-.601.601a.25.25 0 1 0 .354.354l.605-.606c.014.012.031.011.047.019l-.192 1.626-.46-.46a.25.25 0 1 0-.354.353l.497.497-1.119 1.119a.25.25 0 1 0 .353.354l.977-.977-.202 1.711-.464-.464a.25.25 0 1 0-.354.354l.743.743-.045.383-1.04 1.04-.134-.135a.25.25 0 1 0-.354.354l.135.135-.446.446a.25.25 0 1 0 .354.354l.445-.446.75.75-.094.807c-.09-.035-.19-.034-.262.038l-.343.342-.601-.601a.25.25 0 1 0-.354.354l.601.601-1.12 1.119a.25.25 0 1 0 .354.354l1.12-1.119.357.357c.021.021.051.019.076.031l-.275 2.381-.863-.862a.25.25 0 1 0-.354.353l.964.964-1.171 1.171a.25.25 0 1 0 .354.354l.952-.952-.174 1.52a.246.246 0 0 0-.141.058l-.399.399-.238-.238a.25.25 0 1 0-.354.354l.238.238-1.586 1.586a.25.25 0 1 0 .354.353l.251-.251c.009.014.006.031.018.043l1.327 1.327-1.327 1.327c-.032.032-.037.076-.048.117l-.117-.117a.25.25 0 1 0-.354.354l1.443 1.443c-.013.009-.03.006-.042.017l-1.431 1.432-.134-.134a.25.25 0 1 0-.354.354l.134.135-.549.549a.25.25 0 1 0 .354.354l.549-.549 1.127 1.127c.028.028.065.029.1.041l-.031.275c-.091-.039-.195-.04-.27.035l-.874.874-.29-.29a.25.25 0 1 0-.354.354l.29.29-1.223 1.223a.25.25 0 1 0 .354.354l1.223-1.223.861.861-.342 2.996-1.151-1.151 1.09-1.09a.25.25 0 1 0-.354-.354l-1.09 1.09-.238-.238a.25.25 0 1 0-.354.354l.238.238-.757.757a.25.25 0 1 0 .353.354l.757-.757 1.15 1.15-1.721 1.721-.601-.601a.25.25 0 1 0-.353.354l.601.601-.601.601a.25.25 0 1 0 .353.354l.601-.601 1.575 1.575-.146 1.268c-.011-.042-.016-.086-.049-.118a.25.25 0 0 0-.354 0l-1.339 1.339-.736-.736 1.95-1.95a.25.25 0 1 0-.354-.354l-1.95 1.95-.549-.549a.25.25 0 1 0-.354.354l.549.549-1.171 1.171a.25.25 0 1 0 .354.354l1.171-1.171.736.736-.186.186a.25.25 0 1 0 .354.354l.186-.186 1.068 1.068c.084.084.204.106.326.012-.306 2.645-.615 5.282-.925 7.912l-2.863-2.863 1.876-1.876.549.549a.25.25 0 1 0 .354-.354l-.549-.549.394-.394a.249.249 0 0 0 0-.353.249.249 0 0 0-.353 0l-.394.394-.528-.528 1.69-1.69a.25.25 0 1 0-.354-.354l-1.69 1.69-.58-.58.214-.214a.25.25 0 1 0-.354-.354l-.214.214-1.172-1.172a.25.25 0 1 0-.354.353l1.172 1.172-1.876 1.877-1.016-1.016a.25.25 0 1 0-.354.354l1.016 1.016-1.119 1.119a.25.25 0 1 0 .354.354l1.119-1.119 1.461 1.462-.238.238a.25.25 0 1 0 .354.354l.238-.238 2.032 2.032-1.772 1.772-1.461-1.461 1.022-1.022a.25.25 0 1 0-.354-.354l-1.022 1.022-1.202-1.202.039-.039a.25.25 0 1 0-.354-.354l-.039.039L42.25 56.5l.536-.536a.25.25 0 1 0-.354-.354l-.536.536-.609-.609a.25.25 0 1 0-.354.354l.609.609-.974.974a.25.25 0 1 0 .353.354l.974-.974 1.247 1.247-1.565 1.565-2.364-2.364a.25.25 0 1 0-.354.354l2.364 2.364-1.513 1.513-1.047-1.047.969-.969a.25.25 0 1 0-.354-.354l-.969.969-1.068-1.068a.25.25 0 1 0-.354.354l1.068 1.068-1.565 1.565-1.119-1.119a.241.241 0 0 0-.189-.068C36.965 50 37.617 46.125 38.83 39.186a.5.5 0 0 0-.456-.584c-.329-.024-.66-.035-.99-.055-.009-.014-.006-.032-.019-.045l-.123-.123.432-.432a.25.25 0 1 0-.354-.354l-.432.432-.6-.599.362-.362a.25.25 0 1 0-.354-.354l-.538.539-.716.717-.57-.57.326-.326a.25.25 0 1 0-.354-.354l-.326.326-.508-.508a.25.25 0 1 0-.354.354l.508.508-1.008 1.008c-.648.001-1.298.017-1.949.035l.66-.66.496.496a.25.25 0 1 0 .354-.354l-.496-.496 1.103-1.103a.25.25 0 1 0-.354-.354l-1.103 1.103-.657-.657c-.018-.018-.044-.016-.066-.027.059-.096.062-.218-.021-.302a.25.25 0 0 0-.354 0l-1.463 1.463-.808-.808.432-.432a.25.25 0 1 0-.354-.354l-1.802 1.802-1.076-1.076.618-.618a.25.25 0 1 0-.354-.354l-.618.618-.211-.211a.25.25 0 1 0-.353.354l.211.211-1.106 1.106-.868-.868.344-.344a.25.25 0 1 0-.354-.354l-2.339 2.339-.957-.957.276-.276a.25.25 0 1 0-.354-.354l-1.735 1.735-.687-.687a.25.25 0 0 0-.171-.071l.408-.408a.25.25 0 1 0-.354-.354l-1.847 1.847-.419-.419a.25.25 0 1 0-.354.354l.419.419-1.314 1.314-.898-.897 2.158-2.158a.25.25 0 1 0-.354-.353l-.937.936-1.106-1.106.897-.897.628.628a.25.25 0 1 0 .354-.354l-.628-.628.659-.659.332.332a.25.25 0 1 0 .354-.354l-.466-.466c-.011-.02-.008-.044-.025-.061s-.041-.014-.061-.025l-.793-.793 1.164-1.164a.25.25 0 1 0-.354-.354l-1.102 1.102a283.85 283.85 0 0 0 3.184-12.868l.46-.46.039.039a.25.25 0 1 0 .354-.354l-.039-.039 1.965-1.965a.25.25 0 1 0-.353-.354l-1.965 1.965-.168-.168c.088-.401.178-.802.264-1.204l.359.359a.25.25 0 1 0 .353-.354l-.585-.585c.036-.173.076-.345.112-.519l.321-.321c.124.08.224.063.307-.02.085-.085.082-.21.019-.307l1.496-1.496a.25.25 0 1 0-.354-.353l-1.482 1.482-.087-.087c.118-.578.232-1.156.347-1.735l.516.516a.25.25 0 1 0 .354-.354l-.721-.72.747-.747c.124.082.227.065.31-.018.085-.086.083-.213.018-.31l.694-.694a.25.25 0 1 0-.354-.353l-.681.681-.407-.407c.111-.588.213-1.176.321-1.764.106.1.256.089.347-.003l.186-.186.71.711a.25.25 0 1 0 .354-.353l-.71-.711 1.496-1.496a.25.25 0 1 0-.354-.353l-.241.241-1.004-1.017 1.403-1.403.568.568a.25.25 0 1 0 .354-.354l-.568-.568.431-.431a.25.25 0 1 0-.354-.353l-.43.431-.594-.595.734-.734.883.883a.25.25 0 1 0 .354-.354l-.883-.883.452-.452a.25.25 0 1 0-.354-.354l-.452.452-.549-.549c.628.011 1.251.014 1.874.016l.998.998-.688.688a.25.25 0 1 0 .354.354l1.869-1.869a.248.248 0 0 0 .071-.172l.183-.001.442.442-.353.353a.25.25 0 1 0 .354.354l.353-.353.469.469a.25.25 0 1 0 .354-.354l-.469-.469.453-.453h.024l.756-.005.529.529c-.059.096-.061.218.022.301.101.102.199.084.301.022l.145.145a.25.25 0 1 0 .354-.353l-.13-.13.526-.526c.157-.001.311-.003.469-.003l.816.819a.25.25 0 0 0 .354 0c.017-.017.014-.041.025-.06.019-.011.042-.008.058-.024l.52-.52.148.148-.018.019a.25.25 0 1 0 .354.353l.059-.059c.014.002.025.016.039.016a.249.249 0 0 0 .177-.073c.059-.059.07-.138.057-.216l.383-.382c.202.003.402.001.605.005a132.686 132.686 0 0 1-5.841 22.225zM46.85 54.95a.25.25 0 0 0 .354 0l.757-.757.528.528-1.876 1.876-1.461-1.461 1.876-1.876.58.58-.757.757a.248.248 0 0 0-.001.353zM17.921 12.272l.167.167-.25.25c.027-.139.057-.278.083-.417zm1.731-9.981.667.667-.738.738a.243.243 0 0 0-.148-.061c.071-.449.15-.896.219-1.344zm-.371 2.273c.009.001.016.01.025.01a.249.249 0 0 0 .177-.073l.102-.102.595.595-1.157 1.157c.088-.529.171-1.058.258-1.587zm-.816 4.739.069.069-.099.098.03-.167zm.181-.527c-.022-.022-.052-.021-.079-.033.093-.522.194-1.042.284-1.564l.937.937-.901.901-.241-.241zm9.223-6.727.333-.002-.168.168-.165-.166zm2.507.276-.285-.285c.188 0 .378.004.566.004l-.281.281zm-4.796-.167-.094-.094.189-.001-.095.095zm-1.589-.083-.641.641-.639-.638 1.28-.003z"/><path d="m40.585 24.677.664.199-.292 1.363a.25.25 0 0 0 .489.105l.284-1.323.306.092a.25.25 0 1 0 .144-.478l-.345-.103.416-1.94.499.264a.25.25 0 1 0 .234-.442l-.624-.33.585-2.727c.32.177.608.413.803.72a.25.25 0 1 0 .422-.268 2.7 2.7 0 0 0-1.112-.978l.566-2.639.855.502a.25.25 0 1 0 .253-.431l-.998-.585.426-1.986a.25.25 0 0 0-.192-.297.254.254 0 0 0-.297.192l-.391 1.824-.846-.496a.25.25 0 1 0-.253.431l.988.579-.585 2.729a2.68 2.68 0 0 0-1.085-.078.25.25 0 1 0 .071.495c.302-.042.609.006.905.094L41.9 21.84l-.668-.353a.251.251 0 0 0-.338.104.25.25 0 0 0 .104.338l.792.419-.437 2.038-.625-.188a.248.248 0 0 0-.311.167.25.25 0 0 0 .168.312z"/></svg>