<svg xmlns="http://www.w3.org/2000/svg" viewBox="0 0 66 66"><path d="M14.581 32.491c3.766 2.239 6.556 3.561 10.503 4.135a.495.495 0 0 0 .477-.201c2.801-3.863 6.027-7.848 8.914-11.733-.858 13.223-1.441 26.586-2.324 39.771a.503.503 0 0 0 .496.534c4.965.036 10.394-.161 15.428-.126a.594.594 0 0 0 .366-.155.5.5 0 0 0 .137-.373c-1.203-21.282-.166-42.399 3.081-62.763a.5.5 0 0 0-.526-.578c-5.187.336-10.014.38-15.197.717a.5.5 0 0 0-.345.171 185.624 185.624 0 0 0-21.188 29.926.497.497 0 0 0 .178.675zm2.934.48a.25.25 0 1 0 .354-.354l-.299-.299.39-.39c-.04.091-.041.196.034.271l.548.548-.521.521a41.6 41.6 0 0 1-.914-.487l.109-.109.299.299zm3.772 1.533a.249.249 0 0 0 .353 0l.383-.383.538.538c.1.1.201.085.304.021-.118.118-.293.259-.318.398-.76-.21-1.492-.46-2.218-.751.218-.073.218-.282.103-.396l-.097-.097.7-.7.634.634-.383.383a.251.251 0 0 0 .001.353zm1.824-1.469.701.7-.874.874c.06-.097.063-.22-.021-.304l-.538-.538.732-.732zm.353-.354.997-.997.7.7-.997.997-.7-.7zm-3.93 1.306a26.709 26.709 0 0 1-1.039-.486l.401-.401.733.733c-.096.097-.062.059-.095.154zm13.95-10.469.352.352c-.272.367-.546.734-.823 1.103l-.492-.492.963-.963zm-.198 40.48 1.378-1.378.763.763-.609.609c-.511.002-1.027.008-1.532.006zm4.513-4.833.923.923-1.277 1.277-.763-.763 1.107-1.107a.245.245 0 0 0 .01-.33zm5.385-.769L41.99 59.59l-1.032-1.032 1.194-1.194 1.032 1.032zm.359 5.492-.652.009a.248.248 0 0 0-.002-.349l-.497-.497 1.175-1.175.994.993-1.018 1.019zm1.372-.666.653.653c-.438.002-.871.001-1.311.005l.658-.658zm-2.378.68-1.01.014.512-.512.497.497.001.001zm-.498-1.205-1.224-1.224 1.175-1.175 1.224 1.224-1.175 1.175zm1.882-1.175 1.194-1.194.994.993-1.194 1.194-.994-.993zm-.353-.354-1.225-1.224 1.194-1.194 1.224 1.224-1.193 1.194zm-1.932-1.224-1.175 1.175-1.032-1.032 1.175-1.175 1.032 1.032zm-1.529 1.529L38.83 62.75l-1.032-1.032 1.277-1.277 1.032 1.032zm-3.527 2.511c.012-.076.001-.154-.058-.213l-.388-.388 1.311-1.311 1.032 1.032-.868.868-1.029.012zm-.55.002c-.168.002-.334.001-.502.002l.252-.252.25.25zm1.061-2.268-1.311 1.311-.763-.763 1.311-1.311.763.763zm1.235 2.243.504-.504.064.064a.25.25 0 1 0 .354-.354l-.064-.064 1.277-1.277 1.224 1.224-.875.875c-.808.014-1.872.027-2.484.036zm7.711-.088c.039-.091.04-.195-.035-.27l-.734-.734 1.194-1.194 1.038 1.038c.02.385.027.769.048 1.154-.497-.002-1.007.004-1.511.006zM44.855 54l-1.044-1.045c.093.008.143-.01.198-.064l.994-.994.994.994-1.132 1.132c-.006-.008-.004-.017-.01-.023zm1.495-.757.18.18a.25.25 0 1 0 .354-.354l-1.527-1.527 1.379-1.379.396.396c.01.935.026 1.87.045 2.805a.246.246 0 0 0-.185.07l-1.412 1.412a.25.25 0 1 0 .354.354l1.253-1.253c.014.652.013 1.301.031 1.953-.045.01-.092.018-.128.053l-1.01 1.009-1.725-1.725 1.995-1.994zm.192-8.011a.25.25 0 1 0 .354-.353l-.286-.286.523-.523c-.01.981-.028 1.961-.029 2.943-.007.001-.012.006-.019.008l-1.452-1.452.623-.623.286.286zm.869-15.264a.25.25 0 0 0-.354 0l-.086.086-.936-.937c-.057-.057-.133-.07-.208-.06l1.453-1.453.451.451c-.056.865-.113 1.73-.161 2.597l-.245-.245.086-.087a.25.25 0 0 0 0-.352zm1.4-15.872a.25.25 0 0 0-.354 0l-.74.74-.317-.319 1.107-1.107.485.485c-.075.662-.159 1.322-.23 1.985l-.691-.691.74-.74a.249.249 0 0 0 0-.353zm1.231-8.352-.57-.57.76-.76c-.065.443-.127.887-.19 1.33zm-.376 2.627c-.011.008-.025.005-.035.014l-.036.036-.734-.734 1.054-1.053c-.082.58-.172 1.157-.249 1.737zm-.115.802c-.093.713-.172 1.43-.26 2.144-.01-.044-.017-.09-.052-.125l-.854-.854 1.166-1.165zm-.485 4.088-.205-.205.259-.259-.054.464zm-.461 3.168.085.085c-.081.775-.151 1.552-.226 2.329l-1.099-1.099 1.187-1.187c.035-.036.043-.083.053-.128zm-.833 10.962-.139-.139.158-.158-.019.297zm-.397 7.241c-.027.646-.047 1.294-.069 1.941l-1.187-1.187 1.005-1.005.251.251zm-.098 2.751c-.024.736-.06 1.47-.079 2.207l-1.064-1.064 1.143-1.143zm-.109 3.111c-.018.79-.012 1.583-.023 2.374l-1.175-1.175 1.198-1.199zm-.073 7.154.003.001c.001.729.015 1.46.021 2.191l-1.108-1.108 1.084-1.084zm.145 8.862c.017.56.05 1.122.07 1.683l-.877-.877.807-.806zm.229 5.465-.653-.653.601-.601c.018.418.032.835.052 1.254zM36.208 2.702c4.885-.31 9.469-.366 14.365-.664-.076.48-.134.966-.207 1.447l-.798-.798a.25.25 0 1 0-.353.354l.842.842-.938.938-.367-.367a.25.25 0 1 0-.354.354l.367.367-.435.434a.25.25 0 1 0 .354.354l.435-.435.648.648a.247.247 0 0 0-.173.072l-1.087 1.087-.367-.367a.25.25 0 1 0-.353.354l.367.367-.707.707a.25.25 0 1 0 .354.354l.707-.707.734.734-1.209 1.21-.639-.639a.25.25 0 1 0-.354.354l.639.639-.367.367a.25.25 0 1 0 .354.354l.367-.367.854.854a.25.25 0 0 0 .354 0c.023-.024.023-.056.035-.085-.029.237-.054.476-.083.714-.077-.012-.155-.001-.214.058l-.471.471-1.114-1.114a.25.25 0 1 0-.354.354l1.114 1.114-1.107 1.107-.333-.333a.25.25 0 1 0-.354.353l.333.333-.401.401a.25.25 0 1 0 .354.354l.401-.401.318.318-.477.477a.25.25 0 1 0 .353.354l.477-.477.608.608c-.046.01-.093.018-.128.053l-1.187 1.187-.638-.638a.25.25 0 1 0-.354.354l.638.638-.617.617a.25.25 0 1 0 .354.354l.617-.617 1.177 1.177c-.035.012-.074.014-.102.042l-1.273 1.273-.576-.576a.25.25 0 1 0-.354.354l.576.576-.419.419a.25.25 0 1 0 .354.354l.419-.419.71.711a.25.25 0 1 0 .354-.354l-.71-.711 1.218-1.218c-.145 1.556-.294 3.11-.414 4.672l-.743-.743.643-.643a.25.25 0 1 0-.354-.353l-.642.636-.636-.636a.25.25 0 1 0-.354.353l.636.636-.941.941a.25.25 0 1 0 .354.353l.941-.941 1.043 1.043c-.034.447-.052.898-.084 1.345-.03.012-.063.012-.088.036l-.467.467-1.449-1.449a.25.25 0 1 0-.354.354l1.449 1.449-1.577 1.577a.249.249 0 0 0 0 .353c.103.103.196.081.296.024-.037.09-.037.192.036.266l.937.937-1.345 1.345a.25.25 0 1 0 .354.353l1.345-1.345.316.316c.103.103.165.072.254.041-.041.753-.085 1.504-.12 2.258l-.296.296-1.157-1.157a.25.25 0 1 0-.354.354l1.158 1.157-1.005 1.005-.002-.002a.25.25 0 1 0-.353.354l.002.002-.525.525a.25.25 0 1 0 .354.353l.525-.525 1.225 1.225-1.209 1.209-.086-.086a.25.25 0 1 0-.354.354l.086.086-.694.694a.25.25 0 1 0 .354.354l.694-.694 1.18 1.179c-.039.012-.08.015-.11.046l-1.266 1.266c-.085-.025-.176-.022-.243.046-.067.067-.071.158-.046.243l-.793.793a.25.25 0 1 0 .354.354l.761-.761 1.389 1.389c.011.011.027.008.039.016l-.788.788-.786-.786a.25.25 0 1 0-.354.354l.786.786-.623.623-.333-.333a.25.25 0 1 0-.354.354l.333.333-.348.348a.25.25 0 1 0 .354.354l.348-.348 1.417 1.417-1.039 1.039-.711-.711a.25.25 0 1 0-.354.354l.711.711-1.034 1.034a.25.25 0 1 0 .354.354l1.034-1.034.724.724-1.379 1.379-.532-.532a.25.25 0 1 0-.353.354l.531.532-.994.994a.24.24 0 0 0-.065.198l-.12-.121a.25.25 0 1 0-.354.354l1.385 1.386c.006.006.016.004.022.009l-.522.522-.444-.444a.25.25 0 1 0-.354.354l.444.444-.609.609a.25.25 0 1 0 .354.354l.609-.609 1.725 1.725-.61.61a.25.25 0 1 0 .354.354l.61-.61 1.261 1.261c.015.398.033.796.05 1.195a.245.245 0 0 0-.148.062l-.781.781-.993-.993.772-.772a.25.25 0 1 0-.353-.354l-.773.772-1.224-1.224.898-.898a.25.25 0 1 0-.354-.354l-.898.898-1.047-1.047c.06-.097.063-.22-.021-.304-.084-.084-.207-.081-.304-.021l-.3-.3a.25.25 0 1 0-.354.354l.285.285-1.194 1.194-.481-.481a.25.25 0 1 0-.354.354l.481.481-1.175 1.175-.991-.991a.25.25 0 1 0-.354.354l.034.035a.244.244 0 0 0-.329.01l-1.107 1.107-.42-.423a.25.25 0 1 0-.354.354l.419.418-1.311 1.311-.452-.452a.25.25 0 1 0-.354.354l.452.452-1.086 1.086c.887-13.525 1.466-26.939 2.36-40.305a.498.498 0 0 0-.904-.326c-.178.245-.364.494-.546.741l-.298-.298.164-.163a.25.25 0 1 0-.354-.354l-.168.168a.247.247 0 0 0-.337.007.247.247 0 0 0-.007.337l-2.1 2.1a.25.25 0 1 0 .354.354l.779-.778.541.541c-.342.453-.686.904-1.032 1.357l-1.144-1.144a.25.25 0 1 0-.354.354l1.191 1.191c-.375.488-.748.974-1.122 1.458-.012-.036-.014-.074-.042-.103l-.22-.22.912-.912a.25.25 0 1 0-.353-.354l-.912.912-.437-.437.075-.075a.25.25 0 1 0-.354-.354l-.075.075-.087-.087a.25.25 0 1 0-.354.354l.087.087-1.688 1.688-.219-.219a.25.25 0 1 0-.354.354l.219.219-.68.68a.25.25 0 1 0 .354.354l.68-.68.976.976a.25.25 0 1 0 .354-.354l-.976-.976 1.688-1.688.437.437-.878.876a.25.25 0 1 0 .354.354l.877-.877.22.22a.247.247 0 0 0 .153.064c-1.705 2.208-3.464 4.475-5.074 6.685a21.726 21.726 0 0 1-1.88-.389l1.114-1.114.785.784a.25.25 0 1 0 .353-.354l-.784-.784.997-.996.45.45a.25.25 0 1 0 .354-.354l-.45-.45.617-.618a.249.249 0 0 0 0-.353.249.249 0 0 0-.353 0l-.618.618-.7-.7.097-.097a.25.25 0 1 0-.354-.354l-.097.097-.186-.186a.25.25 0 1 0-.354.354l.186.185-1.015 1.015c-.095-.051-.21-.054-.29.026-.08.08-.078.195-.027.29l-.752.751-.633-.633 1.129-1.128a.25.25 0 1 0-.354-.353l-1.128 1.128-.317-.317a.25.25 0 1 0-.354.354l.317.317-.7.7-.733-.733 1.027-1.027a.25.25 0 1 0-.354-.354l-1.027 1.027-.548-.547c-.075-.075-.18-.074-.271-.034l.408-.408a.25.25 0 1 0-.354-.354l-.915.915-.515-.515a.25.25 0 1 0-.353.354l.515.515-.213.213a64.177 64.177 0 0 1-1.135-.651 184.52 184.52 0 0 1 20.693-29.18z"/><path d="m25.969 21.404 1.89-2.64c.432.204.887.358 1.364.43a.249.249 0 0 0 .284-.21.25.25 0 0 0-.21-.284 4.372 4.372 0 0 1-1.141-.35l1.763-2.462.585.367a.249.249 0 0 0 .344-.079.249.249 0 0 0-.079-.344l-.559-.352 1.619-2.262.377.396a.25.25 0 0 0 .363-.345l-.443-.465 1.632-2.279.381.395a.25.25 0 0 0 .36-.348l-.445-.461 1.123-1.568.443.443a.25.25 0 1 0 .353-.354l-.501-.502 1.175-1.641a.25.25 0 0 0-.058-.349.248.248 0 0 0-.349.058l-1.127 1.573-.516-.516a.249.249 0 0 0-.353 0 .249.249 0 0 0 0 .353l.574.575L33.7 9.744l-.382-.394a.25.25 0 0 0-.382.32c.069.095.13.208.23.243l.239.248-1.63 2.276-.511-.537a.25.25 0 1 0-.362.345l.578.606-1.693 2.364-.993-.624a.253.253 0 0 0-.345.079.25.25 0 0 0 .079.345l.967.607-1.789 2.499a4.375 4.375 0 0 1-1.008-.801.25.25 0 1 0-.368.338c.317.345.689.628 1.086.868l-1.853 2.588a.25.25 0 1 0 .406.29zM36.597 30.359a.25.25 0 0 0 0 .5l.727.001-.073 2.308-.598.026a.25.25 0 0 0 .011.5h.011l.561-.024-.08 2.526-.532-.058a.25.25 0 0 0-.055.497l.571.063-.084 2.675-.375-.037c-.131-.005-.26.087-.273.225a.25.25 0 0 0 .225.273l.408.04-.071 2.246-.538-.07a.25.25 0 0 0-.064.496l.587.077-.081 2.575-.452-.037a.25.25 0 0 0-.041.499l.477.039-.088 2.794-.448.023a.25.25 0 0 0 .013.499h.013l.407-.021-.042 1.316-.854.043a.25.25 0 0 0 .013.499h.013l.813-.041-.033 1.032a.25.25 0 0 0 .242.258h.008a.25.25 0 0 0 .25-.242l.034-1.072.813-.041a.25.25 0 0 0 .237-.262c-.006-.137-.105-.258-.262-.237l-.772.039.042-1.316.356-.018a.25.25 0 0 0 .237-.262c-.007-.138-.115-.251-.262-.237l-.315.016.086-2.727.622.051.021.001a.25.25 0 0 0 .248-.229.25.25 0 0 0-.228-.27l-.647-.053.081-2.551.445.058a.25.25 0 0 0 .281-.215.25.25 0 0 0-.215-.281l-.494-.064.071-2.262.694.068.025.001a.25.25 0 0 0 .024-.499l-.727-.071.084-2.669.866.095.028.001a.25.25 0 0 0 .027-.499l-.905-.099.082-2.602.469-.02a.25.25 0 0 0 .239-.261c-.006-.138-.141-.256-.261-.239l-.431.019.072-2.286h.636a.25.25 0 0 0 0-.5h-.62l.052-1.635a.25.25 0 0 0-.5-.016l-.052 1.65-.749-.006zM38.856 19.403l-.714.714a.25.25 0 1 0 .354.354l.714-.714.714.714a.249.249 0 0 0 .354 0 .25.25 0 0 0 0-.354l-.714-.714 1.009-1.009.541.541a.249.249 0 0 0 .354 0 .25.25 0 0 0 0-.354l-.541-.541.938-.938a.25.25 0 1 0-.354-.354l-.938.938-1.552-1.552a.25.25 0 1 0-.354.354l1.552 1.552-1.009 1.009-1.343-1.343a.25.25 0 1 0-.354.354l1.343 1.343z"/></svg>