<svg xmlns="http://www.w3.org/2000/svg" viewBox="0 0 66 66"><path d="M18.446 19.9a.503.503 0 0 0 .725-.121c1.442-2.202 3.291-4.625 6.068-5.905 2.715-1.25 5.33-1.258 7-.025 2.821 2.085 2.97 7.817-3.161 10.896-2.133 1.072-4.532 1.584-6.852 2.08a.5.5 0 0 0-.396.495c.018 1.478.059 2.952.1 4.427.041 1.469.082 2.938.1 4.411a.502.502 0 0 0 .594.485c3.358-.637 9.89-1.927 13.685 2.085 1.684 1.78 2.225 4.392 1.315 6.351-2.123 4.572-12.639 6.604-20.538 5.352a.5.5 0 0 0-.578.49c-.032 4.617-.52 8.636-1.454 11.946a.5.5 0 0 0 .405.63c5.656.885 11.509 1.8 17.362 1.422 4.614-.297 11.181-1.592 16.261-6.071 2.208-1.946 3.928-4.341 4.975-6.925 3.705-9.145-.999-20.219-11.778-22.885 2.557-1.86 5.565-4.771 7.113-8.874 2.508-6.654.461-14.171-8.543-17.583C29.578-1.691 16.715 2.91 10.758 13.5a.501.501 0 0 0 .129.641c2.497 1.933 5.024 3.796 7.559 5.759zm-.883-1.934-1.053-.801.823-.823.902.902-.635.636c-.025.023-.025.057-.037.086zm1.07.814c-.235-.181-.47-.357-.706-.537.008-.006.019-.003.026-.011l.635-.636.511.512c-.159.225-.316.449-.466.672zm.765-1.08-.456-.456 1.493-1.493.307.306a20.38 20.38 0 0 0-1.344 1.643zm10.684-6.059a.247.247 0 0 0 .069.168l.235.235a7.274 7.274 0 0 0-.636-.071l.332-.332zM23.02 35.395c-.012-.698-.032-1.395-.05-2.092l1.071 1.071-1.021 1.021zm-.088-3.677c-.014-.486-.022-.972-.035-1.458.02-.011.044-.008.06-.025l.216-.215 1.086 1.085-1.31 1.31c-.007-.233-.011-.465-.017-.697zm3.605 3.308.385-.385.341.341c-.241.016-.484.021-.726.044zm3.03-.065.19-.19.201.201c-.13-.01-.26-.004-.391-.011zm2.664.389.186-.186.337.337a12.609 12.609 0 0 0-.523-.151zm3.013 1.26.4-.4.78.78-.261.261a9.166 9.166 0 0 0-.919-.641zM21.798 59.941l-1.323-1.323.824-.824 1.521 1.521-1.434 1.434-.259-.259a.25.25 0 1 0-.354.354l.259.259-.955.955-1.521-1.521 1.565-1.565 1.323 1.323a.25.25 0 1 0 .354-.354zm1.856 3.681a.249.249 0 0 0 .177-.073c.08-.08.078-.196.026-.291l.799-.798 1.384 1.384a74.285 74.285 0 0 1-2.534-.234l.034-.034c.037.019.073.046.114.046zm3.485-1.47a.25.25 0 0 0 .354 0l.957-.957 1.085 1.085-1.667 1.668c-.392-.017-.783-.032-1.175-.057a.25.25 0 0 0-.072-.174l-1.611-1.611 2.176-2.175.911.911-.957.957a.248.248 0 0 0-.001.353zm-4.186 1.303c-.025.025-.025.059-.037.089a120.611 120.611 0 0 1-3.201-.416l.363-.363.131.131a.25.25 0 1 0 .354-.354l-.131-.131.955-.955 1.783 1.783-.217.216zm-6.145-3.96 1.041 1.041-1.578 1.578c.205-.833.383-1.708.537-2.619zm1.394 1.395 1.521 1.521-.521.521c-.031.032-.036.074-.047.114-.904-.133-1.805-.269-2.701-.409l1.748-1.747zm0-.707-1.129-1.129 1.565-1.565 1.129 1.129-1.565 1.565zm-1.236-1.729c.11-.763.201-1.551.277-2.362l1.043 1.043-1.32 1.319zm.336-3.009.011-.118 1.239-1.239 1.39 1.39-1.303 1.303-1.337-1.336zm.08-.895c.032-.507.041-1.046.061-1.569l.754.754-.815.815zm11.159 9.43 1.507-1.507c.007-.006.017-.003.023-.01.007-.006.004-.016.01-.023l1.202-1.202.693.693-1 1a.25.25 0 1 0 .354.354l1-1 .606.606-1.062 1.062a45.735 45.735 0 0 1-3.333.027zm4.215-.061-.147.006.685-.685a.239.239 0 0 0 .338-.006.246.246 0 0 0 .006-.338l1.483-1.483.562.562-.608.608a.25.25 0 1 0 .354.354l.608-.608.609.609a.249.249 0 0 0 .177.073c.002 0 .004-.003.007-.003l-.493.493a34.558 34.558 0 0 1-3.581.418zm4.448-4.591c.011.042.017.087.05.12l1.567 1.567-1.752 1.752a.25.25 0 0 0-.07-.184l-.609-.609 1.039-1.04a.25.25 0 1 0-.353-.354l-1.04 1.04-.562-.562 1.73-1.73zm2.89 2.252-.565-.565 1.26-1.26 1.434 1.434-1.073 1.073a28.767 28.767 0 0 1-3.945 1.076l1.97-1.97.565.565a.25.25 0 1 0 .354-.353zm7.666-3.573-1.914 1.914-.824-.824 1.914-1.914.824.824zm-2.292 2.242a22.96 22.96 0 0 1-3.18 1.583l2.382-2.381.798.798zm3.022-2.219-.023-.023 1.337-1.337c.013.012.031.01.045.019-.426.467-.88.915-1.359 1.341zm4.096-6.229-1.969 1.968-.549-.549 1.969-1.968.549.549zm-1.114 2.824-.502-.502 1.827-1.827c-.373.802-.819 1.58-1.325 2.329zm-1.209-.502-.124.124a.25.25 0 1 0 .354.354l.124-.124.57.57c-.319.443-.666.871-1.028 1.288-.005-.006-.003-.015-.009-.021l-1.604-1.604c.017-.01.039-.007.054-.022l1.113-1.114.55.549zm3.684-5.378c-.01-.045-.017-.091-.052-.126l-.731-.731 1.057-1.057a16.065 16.065 0 0 1-.274 1.914zM40.495 3.516c8.349 3.162 10.318 10.043 7.96 16.292-1.652 4.379-5.093 7.343-7.688 9.058a.502.502 0 0 0 .188.909c7.542 1.346 13.386 7.529 13.316 15.866l-.855-.855a.25.25 0 1 0-.354.354l1.16 1.16c-.081-.019-.166-.012-.229.051l-1.183 1.183-.597-.597a.25.25 0 1 0-.354.354l.597.597-.167.167a.25.25 0 1 0 .354.354l.167-.167.731.731a.25.25 0 0 0 .354 0c.004-.004.002-.009.006-.013-.191.878-.431 1.747-.771 2.586l-.009.02a.242.242 0 0 0-.109-.045l-.633-.633c.068-.097.07-.227-.016-.314-.087-.087-.217-.084-.314-.016l-1.125-1.125a.25.25 0 1 0-.354.354l1.113 1.113-1.969 1.968-.511-.511a.25.25 0 1 0-.354.354l.511.511-1.113 1.114c-.015.015-.012.036-.022.054l-.398-.398a.25.25 0 1 0-.354.353l1.976 1.976-1.335 1.335-1.349-1.349a.25.25 0 1 0-.354.354l.172.172-1.914 1.914-1.132-1.132a.25.25 0 1 0-.354.354l1.132 1.132-1.74 1.739-1.434-1.434 1.31-1.31a.25.25 0 1 0-.354-.354l-1.31 1.31-.913-.913a.25.25 0 1 0-.354.353l.913.913-1.26 1.26-1.567-1.567c-.033-.033-.078-.039-.12-.05l.264-.264a.25.25 0 1 0-.354-.354l-2.278 2.278-1-1a.25.25 0 1 0-.354.354l1 1-1.478 1.478-.606-.606 1.015-1.015a.25.25 0 1 0-.354-.354l-1.015 1.015-.693-.693 1.67-1.67a.25.25 0 1 0-.354-.354l-1.67 1.67-.39-.39a.25.25 0 1 0-.354.354l.39.39-1.042 1.041-1.085-1.085 2.453-2.453a.25.25 0 1 0-.354-.354l-2.453 2.453-.911-.911 1.491-1.491a.25.25 0 1 0-.353-.354l-1.491 1.491-.564-.564a.25.25 0 1 0-.354.354l.564.564-2.176 2.175-.477-.477a.25.25 0 1 0-.354.354l.477.477-.78.78-1.783-1.783 1.434-1.434 1.502 1.502a.25.25 0 1 0 .353-.354l-1.502-1.502 1.038-1.038a.25.25 0 1 0-.353-.354l-1.038 1.038-1.521-1.521 1.707-1.707a.25.25 0 1 0-.354-.354l-1.707 1.707-.172-.172a.25.25 0 1 0-.354.354l.172.172-.823.824-1.129-1.129 1.303-1.304.329.329a.25.25 0 1 0 .354-.354l-.329-.329.713-.713a.25.25 0 1 0-.353-.354l-.713.713-1.39-1.39.699-.699a.25.25 0 1 0-.354-.354l-.699.699-1.001-1c-.023-.023-.055-.022-.082-.034.008-.285.029-.554.033-.844 7.55 1.066 18.603-.776 21.03-6.004.967-2.082.562-4.759-.944-6.785l.111-.111c.118.098.247.077.333-.008a.245.245 0 0 0 .008-.333l.009-.009a.25.25 0 1 0-.353-.354l-.003.003-.433-.434a.25.25 0 1 0-.354.354l.434.434-.069.069c-.08-.094-.148-.196-.234-.286-.153-.162-.322-.313-.49-.464l.3-.3a.243.243 0 0 0 .152-.063.243.243 0 0 0 .063-.152l.066-.066a.25.25 0 0 0-.349-.356l-.781-.782.296-.296a.25.25 0 1 0-.353-.354l-.296.296-.39-.39a.25.25 0 1 0-.354.353l.39.39-.488.488a10.64 10.64 0 0 0-.95-.452l-1.077-1.08.762-.762a.25.25 0 1 0-.354-.354l-.761.762-.477-.477a.25.25 0 1 0-.354.354l.477.477-.39.39c-.006.006-.004.016-.01.023-.313-.065-.631-.12-.956-.164-.012-.026-.011-.056-.032-.077l-.565-.565.993-.993a.25.25 0 1 0-.354-.353l-.993.993-.87-.87a.25.25 0 1 0-.354.354l.87.87-.347.347a.247.247 0 0 0-.072.18c-.352-.007-.704-.015-1.054-.002l-.655-.655 1.042-1.042a.25.25 0 1 0-.354-.354l-1.042 1.042-.652-.652a.25.25 0 1 0-.354.354l.652.652-.84.84c-.68.086-1.361.188-2.043.308l.708-.708.356.356a.249.249 0 0 0 .354 0 .25.25 0 0 0 0-.354l-.356-.356 1.457-1.456a.25.25 0 1 0-.354-.354l-1.456 1.456-1.173-1.173 1.39-1.39.415.415a.25.25 0 1 0 .354-.354l-.415-.415.013-.013a.25.25 0 1 0-.354-.354l-.013.013-1.085-1.085.615-.615a.25.25 0 1 0-.354-.354l-.615.615-.303-.303-.003-.001c-.01-.431-.024-.861-.031-1.292 2.256-.484 4.569-1.012 6.691-2.078 6.842-3.436 6.688-10.092 3.306-12.594-.128-.095-.273-.167-.41-.25v-.762l.118-.118a.25.25 0 1 0-.354-.354l-.066.066a.232.232 0 0 0-.177.177l-.517.517c-.033-.012-.064-.028-.098-.039l-.826-.825a.251.251 0 0 0-.168-.07l.064-.064a.25.25 0 1 0-.354-.354l-.93.93c-.012.012-.009.029-.017.042-.078.001-.159.01-.238.013l-.72-.72a.25.25 0 1 0-.354.354l.402.402c-.616.07-1.254.219-1.9.421l-.04-.04 1.286-1.286a.25.25 0 1 0-.354-.354l-1.286 1.286-.414-.414a.25.25 0 1 0-.354.353l.59.59.039.039c-.312.114-.625.234-.94.379-.446.206-.862.445-1.264.698l-.591-.591 1.377-1.377a.249.249 0 0 0 0-.353.249.249 0 0 0-.353 0l-1.377 1.377-.008-.008a.25.25 0 1 0-.354.354l.008.008-.303.303a.25.25 0 1 0 .354.353l.303-.303.518.518a13.54 13.54 0 0 0-2.049 1.748l-.294-.294.192-.192a.25.25 0 1 0-.354-.354l-.192.193-.562-.562a.249.249 0 0 0-.353 0 .249.249 0 0 0 0 .353l.562.562-1.492 1.493-.902-.902 1.539-1.54a.25.25 0 1 0-.354-.354l-1.539 1.54-.119-.119a.25.25 0 1 0-.354.353l.119.119-.871.872a684.358 684.358 0 0 1-4.264-3.243C17.689 3.682 29.849-.518 40.495 3.516z"/><path d="M29.384 5.436c.496-.234 1.01-.427 1.536-.582l.508 1.283a.25.25 0 1 0 .465-.185l-.484-1.224a11.813 11.813 0 0 1 3.462-.321l.026 1.166a.25.25 0 0 0 .25.244h.006a.25.25 0 0 0 .244-.256l-.025-1.116c1.422.135 2.819.518 4.101 1.136l-.524.986a.25.25 0 0 0 .442.235l.53-.998a10.388 10.388 0 0 1 2.827 2.188l-.995 1.121a.25.25 0 1 0 .374.332l.96-1.081a11.74 11.74 0 0 1 1.942 3.308l-.987.891a.249.249 0 0 0-.018.353.25.25 0 0 0 .353.018l.838-.756c.363 1.069.578 2.187.633 3.312l-2.065 1.352a.25.25 0 1 0 .274.418l1.811-1.186c0 1.11-.158 2.217-.487 3.276a.25.25 0 1 0 .478.148 11.62 11.62 0 0 0 .497-3.744l.365-.24a.25.25 0 0 0 .072-.346.248.248 0 0 0-.346-.072l-.115.075a12.774 12.774 0 0 0-.713-3.36l.592-.534a.25.25 0 0 0-.335-.371l-.454.41a12.22 12.22 0 0 0-2.003-3.328l.049-.055a.25.25 0 1 0-.374-.332l-.014.015a10.866 10.866 0 0 0-2.926-2.253l.065-.122a.25.25 0 1 0-.442-.234l-.071.134a12.617 12.617 0 0 0-4.346-1.196l-.013-.589a.255.255 0 0 0-.255-.245.25.25 0 0 0-.245.255l.013.544a12.32 12.32 0 0 0-3.637.352l-.391-.989a.25.25 0 0 0-.324-.141.251.251 0 0 0-.141.324l.369.933a11.24 11.24 0 0 0-1.565.594.25.25 0 0 0 .213.453zM37.469 23.057l-.99.99-.65-.65a.25.25 0 1 0-.354.354l.65.65-.703.703-.696-.696a.25.25 0 1 0-.354.353l.696.696-.841.841-.604-.604a.25.25 0 1 0-.354.354l.604.604-1.063 1.063a.25.25 0 1 0 .354.354l1.063-1.063.538.538a.25.25 0 1 0 .354-.354l-.538-.538.841-.841.432.432a.25.25 0 1 0 .354-.354l-.432-.432.703-.703.421.421a.25.25 0 1 0 .354-.354l-.422-.421.99-.99a.25.25 0 1 0-.353-.353zM40.001 43.567a.25.25 0 0 0 .036.352l.786.642a11.561 11.561 0 0 1-.649 1.605 3.43 3.43 0 0 0-.604-.489.25.25 0 0 0-.263.425c.234.145.436.332.62.535a11.986 11.986 0 0 1-1.305 1.908l-.326-.496a.249.249 0 0 0-.346-.072.251.251 0 0 0-.072.346l.404.616a11.887 11.887 0 0 1-1.973 1.734 2.928 2.928 0 0 1-.469-.663.25.25 0 1 0-.448.22c.13.264.305.5.498.721-.742.473-1.537.865-2.376 1.153a.25.25 0 1 0 .162.472 11.684 11.684 0 0 0 2.572-1.264c.295.252.627.461.99.6a.248.248 0 0 0 .322-.145.249.249 0 0 0-.145-.322 2.894 2.894 0 0 1-.729-.424 12.45 12.45 0 0 0 1.878-1.652l.23.35a.25.25 0 1 0 .418-.274l-.306-.466a12.57 12.57 0 0 0 1.348-1.906c.163.264.297.547.37.85a.25.25 0 0 0 .486-.118 3.455 3.455 0 0 0-.578-1.231c.278-.538.513-1.097.707-1.671l.929.759a.25.25 0 0 0 .316-.388l-1.084-.888c.176-.61.309-1.234.383-1.869a.25.25 0 0 0-.497-.057 10.87 10.87 0 0 1-.305 1.585l-.628-.513a.25.25 0 0 0-.352.035z"/></svg>