<svg xmlns="http://www.w3.org/2000/svg" viewBox="0 0 66 66"><path d="M11.325 64.451a.501.501 0 0 0 .615.539 100.38 100.38 0 0 1 18.522-2.682c.007.052.02.105.06.146a.249.249 0 0 0 .353 0l.172-.172c7.263-.325 14.501.14 21.487 1.419a.495.495 0 0 0 .574-.366c1.197-4.599 1.688-8.473 1.547-12.191a.5.5 0 0 0-.396-.47c-3.895-.826-7.862-1.302-12.482-1.497-3.834-.16-6.515.206-9.414 1.374 2.326-2.959 5.03-5.662 7.658-8.289 4.663-4.658 10.17-10.114 12.805-17.028 2.336-6.129 1.876-12.498-1.23-17.038-5.176-7.57-16.62-9.524-24.615-4.167-5.674 3.801-8.866 10.902-7.943 17.669.035.253.227.415.511.433 3.931-.123 7.701.025 11.639-.098a.497.497 0 0 0 .446-.309c3.731-9.027 11.87-1.476 5.296 4.809-2.854 2.728-22.901 12.402-25.605 37.918zm13.154-3.392-.688-.687 1.294-1.294 1.809 1.809-.73.729c-1.36.126-2.719.276-4.076.458l1.349-1.349.688.688a.25.25 0 1 0 .354-.354zm6.875.208a98.513 98.513 0 0 0-3.296.189.248.248 0 0 0-.07-.184l-.386-.386 1.758-1.758 1.959 1.959a.243.243 0 0 0 .152.063l-.117.117zm-3.852.227c-.186.015-.371.034-.557.049l.303-.303.254.254zm-9.635 1.197 1.76-1.76 1.309 1.309c-1.019.149-2.037.31-3.053.49-.008-.013-.006-.028-.016-.039zm-.564.138c-.522.096-1.042.201-1.562.305l-.755-.755.934-.934 1.383 1.384zm-2.154.421c-.44.091-.879.189-1.318.285l.802-.802.516.517zm19.476-3.065-.741-.741 1.655-1.655 1.449 1.449-1.938 1.938c-.984.004-1.97.025-2.956.059l1.437-1.437.741.741a.25.25 0 1 0 .353-.354zm4.238.106a.25.25 0 0 0 .354 0l1.214-1.214 1.088 1.088-.801.802a.25.25 0 0 0 0 .354c-.331-.018-.662-.038-.993-.052l-2.03-2.03 1.449-1.449.934.934-1.214 1.214a.25.25 0 0 0-.001.353zm7.129-3.892 1.809 1.809-1.552 1.552-1.809-1.809 1.552-1.552zm-.096 3.715-1.474 1.474a83.862 83.862 0 0 0-1.328-.111c.18-.099.166-.276.063-.38l-.931-.931 1.861-1.861 1.809 1.809zm-3.088 1.338a95.493 95.493 0 0 0-1.78-.113c.014-.009.032-.006.043-.018l.802-.802.931.931.004.002zm-.936-1.64-1.088-1.088 1.861-1.861 1.088 1.088-1.861 1.861zm-2.879 1.432a99.942 99.942 0 0 0-3.242-.063l1.59-1.59 1.652 1.653zm13.262 1.39a93.85 93.85 0 0 0-7.184-.988l1.179-1.179.746.746a.25.25 0 1 0 .354-.354l-.746-.746 1.552-1.552 1.552 1.552-1.368 1.368a.25.25 0 1 0 .354.354l1.368-1.368.248.248a.25.25 0 1 0 .354-.354l-.248-.248 1.915-1.915a.247.247 0 0 0 .245-.245l.758-.758a50.512 50.512 0 0 1-1.079 5.439zm-.334-4.734-1.861 1.86-1.552-1.552 1.861-1.861 1.552 1.553zm1.613-2.699-.339-.339.414-.414c-.016.263-.035.528-.058.795-.009-.014-.006-.031-.017-.042zm-.693-.693-.677-.677.779-.779.689.689c-.013.009-.03.006-.041.017l-.75.75zm-21.55-4.204-.75-.75 2.088-2.088.245.245a.25.25 0 1 0 .354-.354l-.245-.245.026-.026a.25.25 0 1 0-.354-.353l-.026.026-.635-.635 1.739-1.74 1.423 1.423c-1.35 1.442-2.659 2.93-3.865 4.497zm4.592-6.561a.25.25 0 0 0 .354 0l.114-.114.445.445c.004.004.01.002.014.006-.44.45-.876.905-1.311 1.363l-1.411-1.411L35.42 42.7l.577.577-.114.114a.247.247 0 0 0 0 .352zm1.266-.023-.445-.445 1.565-1.565.417.417c.011.011.028.008.041.017-.524.525-1.049 1.052-1.574 1.586-.003-.003-.002-.007-.004-.01zm15.338-26c-.064-.064-.149-.07-.23-.051l-.845-.845 1.701-1.702a18.56 18.56 0 0 1 .123 3.525l-.697-.697c.019-.081.012-.166-.052-.23zm.278-4.427-.015-.015.01-.01a.221.221 0 0 0 .005.025zm-29.943 5.648a.242.242 0 0 0 .07.168l.964.965-.542.542a.25.25 0 1 0 .354.354l.542-.542.654.654c-.578-.001-1.159-.002-1.744-.001l-1.22-1.219.922-.921zm-.406 2.143c-.586.003-1.174.013-1.762.024l.893-.893.869.869zm12.773-4.451a.243.243 0 0 0 .144-.059l1.006-1.006.623.623a.25.25 0 1 0 .354-.354l-.624-.623.003-.003a.25.25 0 1 0-.354-.353l-.003.003-.5-.5a.25.25 0 1 0-.354.354l.5.499-.788.787-.703-.703.317-.317a.25.25 0 1 0-.354-.354l-.317.317-.415-.415a.25.25 0 1 0-.354.354l.415.415-.838.837a.25.25 0 1 0 .354.354l.838-.837.778.778c.007.052.02.104.06.144a.246.246 0 0 0 .169.07c-.623.15-1.197.466-1.725.879l-2.147-2.147a.25.25 0 1 0-.354.353l2.114 2.114c-.918.845-1.666 2.003-2.198 3.2-1.782.05-3.587.046-5.338.039-.01-.043-.017-.088-.05-.122l-.886-.887 1.379-1.379 1.253 1.253-.5.5a.25.25 0 1 0 .354.354l.5-.5.054.054a.25.25 0 1 0 .354-.354l-.054-.054.957-.957.787.788-.837.837a.25.25 0 1 0 .354.354l.841-.841a.243.243 0 0 0 .343-.004.248.248 0 0 0 .004-.343l.791-.791.113.113a.25.25 0 1 0 .354-.354l-.113-.113.965-.966a.25.25 0 1 0-.354-.354l-.965.966-.787-.787.963-.963a.25.25 0 1 0-.354-.354l-.964.964-.415-.415a.25.25 0 1 0-.354.354l.415.415-.787.787-1.133-1.134a.246.246 0 0 0-.168-.07l.677-.677a.25.25 0 1 0-.353-.354l-1.938 1.938-.246-.246a.25.25 0 1 0-.354.354l.246.246-1.379 1.379-.964-.965a.253.253 0 0 0-.168-.07l.83-.83a.25.25 0 1 0-.354-.353l-2.007 2.007-.077-.077a.25.25 0 1 0-.354.354l.077.077-.922.922a.245.245 0 0 0-.01.33c-.096.002-.192.001-.287.004-.678-6.262 2.322-12.748 7.562-16.258C35.142-.236 45.94 1.702 50.77 8.761c.807 1.18 1.415 2.519 1.833 3.956l-.207.207-1.16-1.16a.25.25 0 1 0-.354.353l1.16 1.161-.928.928a.25.25 0 1 0 .354.354l.928-.928.571.571c.019.102.032.207.049.31l-1.958 1.958-.405-.404a.25.25 0 1 0-.354.354l.405.404-.637.637a.25.25 0 1 0 .354.354l.637-.637.809.809-1.881 1.881c-.091-.038-.194-.039-.268.036-.074.074-.074.177-.035.268l-.197.197a.25.25 0 1 0 .354.354l.172-.172 1.158 1.158-1.391 1.39-.753-.753a.25.25 0 1 0-.354.354l.753.753-1.102 1.102a.25.25 0 1 0 .354.353l1.102-1.102 1.475 1.475a.25.25 0 1 0 .354-.354l-1.475-1.475 1.39-1.391.547.547a.25.25 0 1 0 .353-.354l-.547-.547.699-.699a.25.25 0 1 0-.354-.354l-.699.699-1.158-1.158 1.856-1.856.696.696c.108.108.195.077.289.027a21.015 21.015 0 0 1-1.315 5.815c-.824 2.162-1.952 4.179-3.234 6.066.045-.093.046-.202-.031-.279l-1.516-1.516 2.379-2.379.344.344-1.742 1.742a.25.25 0 1 0 .354.354l1.758-1.758c.1.059.194.079.297-.023.082-.082.079-.201.023-.297l.363-.363a.25.25 0 1 0-.354-.353l-.346.346-.344-.344.289-.289a.25.25 0 1 0-.354-.354l-.289.289-1.044-1.044a.25.25 0 1 0-.354.354l1.044 1.044-2.379 2.379-.288-.288a.25.25 0 1 0-.354.353l.288.288-.869.869a.25.25 0 1 0 .354.353l.869-.869 1.516 1.516c.083.083.199.105.323.013-2.73 3.994-6.095 7.338-9.281 10.524l-.259.259c-.009-.013-.006-.029-.017-.041l-.417-.417 1.797-1.797.127.127a.25.25 0 1 0 .354-.354l-.127-.127.059-.059a.25.25 0 1 0-.354-.354l-.059.059-1.509-1.509a.25.25 0 1 0-.354.354l1.509 1.509-1.797 1.797-1.218-1.218a.25.25 0 1 0-.354.354l1.218 1.218-1.565 1.565-.577-.577 1.298-1.298a.25.25 0 1 0-.354-.354l-1.298 1.298-.347-.346a.25.25 0 1 0-.354.354l.347.346-1.358 1.357c-.091-.038-.194-.039-.268.035-.074.074-.074.177-.035.268l-1.764 1.764-.288-.288a.249.249 0 0 0-.353 0 .249.249 0 0 0 0 .353l.288.288-.986.986a.25.25 0 1 0 .353.354l.986-.986.635.635-2.089 2.089a.249.249 0 0 0-.351.351l-.231.231a.25.25 0 1 0 .354.354l.23-.23.801.801c-.201.267-.404.531-.599.803a.499.499 0 1 0 .627.74c3.488-1.72 6.289-2.262 10.716-2.076 4.412.187 8.216.631 11.933 1.396.013.494.01.994 0 1.497l-.37-.37.033-.033a.25.25 0 1 0-.353-.354l-.034.033-.132-.132a.25.25 0 1 0-.354.354l.132.132-.779.779-.338-.338a.249.249 0 0 0-.353 0 .249.249 0 0 0 0 .353l1.368 1.368-1.059 1.059a.25.25 0 1 0 .354.353l1.059-1.059.339.339a.243.243 0 0 0 .344.004c-.042.448-.093.903-.153 1.362-.012-.028-.012-.061-.035-.083a.25.25 0 0 0-.354 0l-.709.709-1.571-1.571c.049-.094.051-.207-.028-.286-.079-.079-.192-.077-.286-.028l-1.079-1.079a.25.25 0 1 0-.353.354l1.059 1.059-1.861 1.861-1.809-1.809.059-.059a.25.25 0 1 0-.354-.354l-.069.069c-.098-.073-.233-.076-.322.013s-.086.224-.013.322l-1.561 1.561-1.088-1.088 1.201-1.201a.25.25 0 1 0-.354-.354l-1.201 1.201-.029-.029a.25.25 0 1 0-.354.354l.029.029-1.861 1.861-.934-.934 1.368-1.368a.25.25 0 1 0-.354-.354l-1.368 1.368-1.059-1.059a.25.25 0 1 0-.354.354l1.059 1.059-1.449 1.449-1.449-1.449.562-.562a.25.25 0 1 0-.354-.354l-.562.562-.956-.956a.25.25 0 1 0-.354.354l.956.956-1.655 1.655-2.141-2.14a.25.25 0 1 0-.353.354l2.14 2.141-1.442 1.442a.243.243 0 0 0-.063-.152l-1.959-1.959.933-.933a.25.25 0 1 0-.353-.354l-.933.933-.75-.75a.25.25 0 1 0-.353.354l.75.75-1.758 1.757-1.809-1.809.614-.613a.25.25 0 1 0-.354-.354l-2.261 2.261-1.111-1.111a.25.25 0 1 0-.353.354l1.111 1.111-1.655 1.655-1.449-1.449 1.31-1.31a.25.25 0 1 0-.354-.354l-1.31 1.31-.389-.389a.25.25 0 1 0-.354.354l.39.389-1.758 1.758-1.243-1.243.772-.772a.25.25 0 1 0-.354-.354l-.772.772-.081-.081a.25.25 0 1 0-.354.354l.081.081-.934.934-.544-.544a.25.25 0 1 0-.353.354l.544.544-1.162 1.162a.248.248 0 0 0-.069.167c-.216.049-.432.093-.648.144 2.999-24.568 22.221-33.729 25.222-36.596 5.651-5.394 1.677-11.565-2.422-10.625zm-7.887.702a.246.246 0 0 0 .07.169l1.133 1.134-.957.957-1.253-1.253 1.007-1.007zM30 19.424l-.787-.788.787-.787.787.787-.787.788z"/><path d="m39.84 37.697 2.207-2.207 1.393 1.393a.25.25 0 1 0 .354-.354l-1.393-1.393 1.972-1.972.461.46-1.393 1.393a.25.25 0 1 0 .354.354l1.393-1.393.359.359a.249.249 0 0 0 .354 0 .25.25 0 0 0 0-.354l-.359-.358 1.16-1.16a.25.25 0 1 0-.353-.354l-1.16 1.16-.46-.461.816-.816a.25.25 0 1 0-.354-.353l-.816.816-.695-.695a.25.25 0 1 0-.354.353l.695.695-1.972 1.972-.114-.114a.25.25 0 1 0-.354.354l.114.114-2.207 2.207a.25.25 0 0 0 .352.354zM42.36 7.228a.25.25 0 1 0 .442.234l.448-.843c.552.317 1.088.66 1.584 1.056a.25.25 0 1 0 .311-.391 13.017 13.017 0 0 0-1.661-1.105l.19-.357a.25.25 0 0 0-.441-.235l-.184.346a13.713 13.713 0 0 0-2.952-1.139l.061-.283a.25.25 0 0 0-.191-.297.254.254 0 0 0-.297.191l-.062.285a13.666 13.666 0 0 0-2.968-.319l.015-.591a.25.25 0 0 0-.244-.256.249.249 0 0 0-.256.244l-.015.6c-.487.02-.973.063-1.454.138-.661.103-1.308.275-1.946.479a3.26 3.26 0 0 1-.041-.566.25.25 0 0 0-.243-.257c-.166.014-.253.105-.257.243-.006.246.021.492.063.735a13.808 13.808 0 0 0-2.919 1.466l-.351-.484a.25.25 0 0 0-.404.294l.348.48c-.741.53-1.427 1.13-2.047 1.795l-.848-.651a.251.251 0 0 0-.351.046.251.251 0 0 0 .046.351l.811.623a12.99 12.99 0 0 0-.982 1.273.25.25 0 1 0 .416.278c.291-.437.619-.848.963-1.245l.447.344a.25.25 0 1 0 .305-.397l-.41-.315c.59-.628 1.24-1.195 1.942-1.696l.375.517a.25.25 0 1 0 .405-.293l-.373-.514a13.217 13.217 0 0 1 2.743-1.383c.093.3.216.59.379.855a.25.25 0 0 0 .426-.262 3.245 3.245 0 0 1-.331-.747 12.481 12.481 0 0 1 1.91-.473c.452-.07.907-.113 1.364-.134l-.021.809a.25.25 0 0 0 .244.256h.006a.25.25 0 0 0 .25-.244l.021-.819c.965-.004 1.929.1 2.875.307l-.2.918a.25.25 0 1 0 .488.106l.2-.921c.981.254 1.928.625 2.823 1.093l-.452.855zM32.628 33.176c-.614.42-1.211.862-1.798 1.317l-.505-.652a.25.25 0 0 0-.395.307l.508.655a38.035 38.035 0 0 0-1.98 1.691l-.582-.6a.25.25 0 0 0-.36.348l.579.597a38.515 38.515 0 0 0-2.661 2.731c-.226-.221-.441-.453-.672-.667a.251.251 0 0 0-.34.368c.236.219.457.456.688.683a38.19 38.19 0 0 0-1.494 1.864 5.672 5.672 0 0 0-.715-.554.252.252 0 0 0-.344.081.249.249 0 0 0 .081.344c.247.153.471.341.689.534a38.282 38.282 0 0 0-1.927 2.901 2.59 2.59 0 0 0-.865-.377.25.25 0 0 0-.105.489c.255.054.492.167.708.309a37.666 37.666 0 0 0-1.223 2.265.25.25 0 0 0 .448.222 37.74 37.74 0 0 1 1.162-2.164c.122.131.233.273.318.431a.25.25 0 1 0 .44-.236c-.126-.236-.3-.44-.492-.625a37.645 37.645 0 0 1 1.895-2.86c.178.19.359.379.505.592a.25.25 0 0 0 .412-.284 5.765 5.765 0 0 0-.619-.726c.475-.634.969-1.252 1.482-1.854.198.2.406.389.597.593a.251.251 0 0 0 .353.011.25.25 0 0 0 .011-.354c-.204-.217-.427-.421-.639-.634a37.896 37.896 0 0 1 2.654-2.724l.522.539a.25.25 0 1 0 .36-.348l-.519-.536a38.273 38.273 0 0 1 1.939-1.655l.429.554a.252.252 0 0 0 .351.045.25.25 0 0 0 .044-.351l-.432-.557a37.153 37.153 0 0 1 1.774-1.299.25.25 0 0 0-.282-.414z"/></svg>