<svg xmlns="http://www.w3.org/2000/svg" enable-background="new 0 0 2500 2500" viewBox="0 0 2500 2500"><path fill="#fee4e8" d="M2032.25,753.07c-103.44-54.96-226-30.22-334.3,53.12c-68.04,52.36-151.92,70.59-232.17,50.94
							c-1.1-0.27-2.2-0.54-3.3-0.81c-100.57-24.66-181.28-107.17-219.03-216.28c-37.2-107.51-100.38-192.36-186.97-238.36
							c-230.55-122.49-539.44,76.69-689.91,444.88c-150.48,368.19-85.56,765.96,144.99,888.45
							c117.23,62.28,254.72,41.39,381.33-42.61c119.85-79.51,260.15-108.44,395.42-73.69c14.54,3.74,29.08,7.5,43.62,11.31
							c82.45,21.57,157.38,67.83,224.17,127.03c15.72,13.93,32.8,25.93,51.24,35.73c183.71,97.6,427.76-56.02,545.1-343.13
							C2269.77,1162.54,2215.96,850.67,2032.25,753.07z"/><path fill="#070706" d="M625.12,1229.36c-10.3-6.3-22.08-9.69-33.55-7.78l-80.12,30.49c-13.26,69.57-9.04,142.6-2.48,209.11
						c6.56,66.5,22.97,133.19,56.14,190.99c8.58,14.96,19.24,30.1,34.78,36.18c8.2,3.21,16.79,3.51,25.23,1.89V1229.36z"/><path fill="#789afe" d="M418.03,2250h421.83l31.84-652.17c0-36.82-58.53-64.11-95.13-70.36c-53.21-9.07-124.15-22.69-201.39-15.23
						c-1.43,0.14-2.9,0.29-4.41,0.47c-100.72,11.55-174.49,100.54-168.99,201.78l12.59,231.61"/><path fill="#fc9fad" d="M815.78,571.56c6.69,36.28,26.91,75.05,42.51,72.18c15.6-2.88,20.66-46.31,13.97-82.59
						c-6.69-36.28-22.6-51.67-38.19-48.79C818.47,515.22,809.09,535.27,815.78,571.56z"/><path fill="#fc9fad" d="M878.84,618.51c0,0-153-159.29-174-141.04c-21,18.25,38.72,81.37,38.72,81.37s-24.96,4.94-20.22,24.07
						c0,0-23.55,3.43-18.55,21.67c0,0-25.77,7.53-5.05,41.01s92.24,82.25,92.24,82.25L878.84,618.51z"/><path fill="#ff571c" d="M1277.19,580.5c0,0-70.05,21.77-132.06,58.53c-44.04,26.11-97.68,110.3-97.68,110.3l-163.7-144.86
						c-27.82-29.13-135.54,94.24-107.72,123.37c0,0,161.12,182.27,273.62,179.53c112.49-2.74,234.31-213.46,234.31-213.46
						L1277.19,580.5z"/><path fill="#ff571c" d="M1699.92,838.77c-10.11-91.43-30.56-285.97-310.38-272.22c-65.32,3.21-115.65,8.7-159.89,32.45
						c-111.4,59.79-144.87,187.23-152.54,233.77L1699.92,838.77z"/><polygon fill="#fff" points="2037.15 1050.02 2037.15 2245.76 835.58 2245.76 835.58 826.22 1813.39 826.22"/><path fill="#070706" d="M2037.15,2248.58H835.58c-1.56,0-2.83-1.26-2.83-2.83V826.22c0-1.56,1.27-2.83,2.83-2.83h977.81
							c0.75,0,1.47,0.3,2,0.83l223.76,223.8c0.53,0.53,0.83,1.25,0.83,2v1195.73C2039.98,2247.32,2038.71,2248.58,2037.15,2248.58z
							 M838.41,2242.93h1195.92V1051.19l-222.11-222.15H838.41V2242.93z"/><polygon fill="#e3e3e3" points="2037.15 1050.02 1813.39 1050.02 1813.39 826.22"/><path fill="#070706" d="M2037.15,1052.85h-223.76c-1.56,0-2.83-1.26-2.83-2.83v-223.8c0-1.14,0.69-2.17,1.74-2.61
							c1.06-0.44,2.27-0.2,3.08,0.61l223.76,223.8c0.81,0.81,1.05,2.02,0.61,3.08C2039.33,1052.16,2038.3,1052.85,2037.15,1052.85z
							 M1816.21,1047.2h214.12l-214.12-214.15V1047.2z"/><path fill="#fff" d="M1937.21,1578.78v102.56c0,37.86-30.71,68.58-68.61,68.58h-864.47c-37.9,0-68.61-30.71-68.61-68.58
							v-102.56c0-37.9,30.71-68.61,68.61-68.61h864.47C1906.5,1510.17,1937.21,1540.88,1937.21,1578.78z"/><path fill="#070706" d="M1868.6,1752.74h-864.47c-39.39,0-71.44-32.03-71.44-71.4v-102.56c0-39.39,32.05-71.44,71.44-71.44
							h864.47c39.39,0,71.44,32.05,71.44,71.44v102.56C1940.04,1720.71,1907.99,1752.74,1868.6,1752.74z M1004.13,1512.99
							c-36.28,0-65.79,29.51-65.79,65.79v102.56c0,36.26,29.51,65.75,65.79,65.75h864.47c36.28,0,65.79-29.5,65.79-65.75v-102.56
							c0-36.27-29.51-65.79-65.79-65.79H1004.13z"/><circle cx="1079.55" cy="1632.35" r="82.52" fill="#fff"/><path fill="#070706" d="M1079.55,1717.69c-47.06,0-85.34-38.28-85.34-85.34c0-47.06,38.29-85.34,85.34-85.34
								c47.06,0,85.34,38.28,85.34,85.34C1164.89,1679.41,1126.61,1717.69,1079.55,1717.69z M1079.55,1552.66
								c-43.94,0-79.69,35.75-79.69,79.69c0,43.94,35.75,79.69,79.69,79.69c43.94,0,79.69-35.75,79.69-79.69
								C1159.24,1588.41,1123.49,1552.66,1079.55,1552.66z"/><path fill="#070706" d="M1067.41,1659.59c-2.03,0-4.05-0.77-5.6-2.32l-14.36-14.36c-3.09-3.09-3.09-8.11,0-11.2
									c3.09-3.09,8.11-3.09,11.2,0l8.76,8.76l33.03-33.03c3.09-3.09,8.11-3.09,11.2,0c3.09,3.09,3.09,8.11,0,11.2l-38.63,38.63
									C1071.47,1658.81,1069.44,1659.59,1067.41,1659.59z"/><rect width="632.34" height="15.3" x="1212.51" y="1577.65" fill="#e3e3e3"/><rect width="632.34" height="15.3" x="1212.51" y="1618.14" fill="#e3e3e3"/><rect width="333.02" height="15.3" x="1403.06" y="1658.64" fill="#e3e3e3"/><rect width="120.73" height="15.3" x="1212.51" y="1658.64" fill="#e3e3e3"/><path fill="#fff" d="M1653.98,1883.31v102.56c0,37.86-30.71,68.58-68.61,68.58h-581.23c-37.9,0-68.61-30.71-68.61-68.58
							v-102.56c0-37.9,30.71-68.61,68.61-68.61h581.23C1623.26,1814.7,1653.98,1845.42,1653.98,1883.31z"/><path fill="#070706" d="M1585.36,2057.27h-581.23c-39.39,0-71.44-32.03-71.44-71.4v-102.55c0-39.39,32.05-71.44,71.44-71.44
							h581.23c39.39,0,71.44,32.05,71.44,71.44v102.55C1656.8,2025.24,1624.76,2057.27,1585.36,2057.27z M1004.13,1817.53
							c-36.28,0-65.79,29.51-65.79,65.79v102.55c0,36.26,29.51,65.75,65.79,65.75h581.23c36.28,0,65.79-29.5,65.79-65.75v-102.55
							c0-36.27-29.51-65.79-65.79-65.79H1004.13z"/><circle cx="1079.55" cy="1936.89" r="82.52" fill="#fff"/><path fill="#070706" d="M1079.55,2022.23c-47.06,0-85.34-38.28-85.34-85.34s38.29-85.34,85.34-85.34
								c47.06,0,85.34,38.28,85.34,85.34S1126.61,2022.23,1079.55,2022.23z M1079.55,1857.19c-43.94,0-79.69,35.75-79.69,79.69
								c0,43.94,35.75,79.69,79.69,79.69c43.94,0,79.69-35.75,79.69-79.69C1159.24,1892.94,1123.49,1857.19,1079.55,1857.19z"/><path fill="#070706" d="M1067.41,1964.12c-2.03,0-4.05-0.77-5.6-2.32l-14.36-14.36c-3.09-3.09-3.09-8.11,0-11.2
									c3.09-3.09,8.11-3.09,11.2,0l8.76,8.76l33.03-33.03c3.09-3.09,8.11-3.09,11.2,0c3.09,3.09,3.09,8.11,0,11.2l-38.63,38.63
									C1071.47,1963.35,1069.44,1964.12,1067.41,1964.12z"/><rect width="349.1" height="15.3" x="1212.51" y="1882.18" fill="#e3e3e3"/><rect width="349.1" height="15.3" x="1212.51" y="1922.67" fill="#e3e3e3"/><rect width="65.78" height="15.3" x="1387.06" y="1963.17" fill="#e3e3e3"/><rect width="120.73" height="15.3" x="1212.51" y="1963.17" fill="#e3e3e3"/><path fill="#fc9fad" d="M700.85,1376.27l9.56,135.21c73.83,97.52-146.61,112.42-135.22-2.05c5.22-30.58,7.79-80.44,9.97-133.16
						L700.85,1376.27z"/><path fill="#070706" d="M709.54,1492.06c0,0-37.45-20.39-54.38-44.91s54.38-20.83,54.38-20.83V1492.06z"/><path fill="#fc9fad" d="M747.71,1255.47c58.17,59.13,55.38,133.17,17.55,167.29c-42.98,38.77-108.81,38.85-166.98-20.27
						c-58.17-59.13-84.94-153.25-43.68-193.85C595.86,1168.04,689.53,1196.34,747.71,1255.47z"/><path fill="#070706" d="M579.98,1318.68c0,0,165.7-85.04,124.63-140.26c-93.85-126.18-275.04,73.31-166.7,197.64L579.98,1318.68z"/><circle cx="567.98" cy="1359.09" r="41.85" fill="#fc9fad"/><path fill="#070706" d="M568.67,1382.47c-6.24,0-12.55-3.62-16.17-9.43c-3.33-5.36-4.48-12.34-3.23-19.66
						c0.83-4.89,2.59-8.75,5.23-11.48c4.46-4.6,11.74-6.16,18.57-3.98c5.35,1.71,10.35,5.61,14.47,11.28
						c0.92,1.26,0.64,3.03-0.62,3.95c-1.28,0.92-3.03,0.63-3.95-0.62c-2.38-3.27-6.32-7.53-11.62-9.22
						c-4.72-1.51-9.86-0.49-12.79,2.53c-1.83,1.89-3.08,4.74-3.72,8.49c-1.02,5.96-0.14,11.55,2.46,15.73
						c2.81,4.52,8.01,7.28,12.64,6.69c3.32-0.42,6.97-2.99,7.33-6.58c0.24-2.37-1.13-4.88-3.24-5.96c-2.12-1.09-4.95-0.73-6.73,0.84
						c-1.17,1.03-2.96,0.92-3.99-0.25c-1.03-1.17-0.92-2.95,0.25-3.99c3.51-3.1,8.88-3.78,13.05-1.64
						c4.17,2.14,6.76,6.89,6.29,11.55c-0.58,5.82-5.85,10.81-12.24,11.62C569.99,1382.43,569.33,1382.47,568.67,1382.47z"/><path fill="#070706" d="M716.09,1383.7c-5.47,0-10.9-1.52-15.9-4.61c-1.33-0.82-1.74-2.56-0.92-3.89
							c0.82-1.33,2.56-1.74,3.89-0.92c10.14,6.27,22.57,4.53,32.44-4.55c1.15-1.05,2.94-0.98,3.99,0.17
							c1.06,1.15,0.98,2.94-0.17,3.99C732.37,1380.38,724.18,1383.7,716.09,1383.7z"/><path fill="#070706" d="M716.73,1351.53c-0.77,0-1.53-0.31-2.08-0.92c-1.06-1.15-0.98-2.94,0.17-3.99
							c2.45-2.24,4.98-4.57,6.72-7.39c1.78-2.9,2.49-6.14,1.94-8.89c-0.67-3.36-3.1-6.19-5.97-9.28l-28.28-30.47
							c-1.06-1.14-0.99-2.93,0.15-3.99c1.14-1.06,2.93-1,3.99,0.15l28.28,30.48c2.67,2.88,6.33,6.83,7.36,12.02
							c0.84,4.19-0.11,8.79-2.67,12.95c-2.15,3.5-5.1,6.2-7.71,8.6C718.1,1351.29,717.41,1351.53,716.73,1351.53z"/><path fill="#070706" d="M739.22,1290.44c-2.05,4.86-8.3,5.72-13.96,1.93c-5.67-3.81-8.57-10.82-6.52-15.68
							c2.05-4.86,8.3-5.72,13.96-1.93C738.33,1278.55,741.27,1285.58,739.22,1290.44z"/><path fill="#070706" d="M729.52,1254.99c4.39,4.34-5.27,4.56-11.67,10.42c-6.63,6.03-5.84,12.27-9.02,12.38
							c-2.85,0.67-7.62-6.21-2.86-16.57C710.7,1250.56,725.34,1250.24,729.52,1254.99z"/><path fill="#070706" d="M689.18,1329.03c-2.05,4.86-8.3,5.72-13.96,1.93c-5.67-3.81-8.57-10.82-6.52-15.68
							c2.05-4.86,8.3-5.72,13.96-1.93C688.29,1317.14,691.23,1324.16,689.18,1329.03z"/><path fill="#070706" d="M679.48,1293.58c4.39,4.34-5.27,4.56-11.67,10.42c-6.63,6.03-5.84,12.27-9.02,12.38
							c-2.85,0.67-7.62-6.21-2.86-16.57C660.66,1289.15,675.3,1288.83,679.48,1293.58z"/><path fill="#e3e3e3" d="M1969.3,1208.35v180.01c0,41.74-33.86,75.61-75.65,75.61H968.19c-41.78,0-75.65-33.86-75.65-75.61v-180.01
						c0-41.78,33.86-75.65,75.65-75.65h925.46C1935.43,1132.71,1969.3,1166.57,1969.3,1208.35z"/><path fill="#34cec3" d="M1991.31,1184.83v180.01c0,41.74-33.86,75.61-75.65,75.61H990.2c-41.78,0-75.65-33.86-75.65-75.61
							v-180.01c0-41.78,33.86-75.65,75.65-75.65h925.46C1957.45,1109.19,1991.31,1143.05,1991.31,1184.83z"/><path fill="#070706" d="M1915.66,1443.28H990.2c-43.27,0-78.47-35.18-78.47-78.43v-180.01c0-43.27,35.2-78.47,78.47-78.47h925.46
							c43.27,0,78.47,35.2,78.47,78.47v180.01C1994.13,1408.09,1958.93,1443.28,1915.66,1443.28z M990.2,1112.01
							c-40.15,0-72.82,32.67-72.82,72.82v180.01c0,40.13,32.67,72.78,72.82,72.78h925.46c40.15,0,72.82-32.65,72.82-72.78v-180.01
							c0-40.15-32.67-72.82-72.82-72.82H990.2z"/><circle cx="1079.72" cy="1274.82" r="103.14" fill="#fff"/><path fill="#070706" d="M1079.72,1380.79c-58.43,0-105.97-47.54-105.97-105.97c0-58.43,47.54-105.97,105.97-105.97
						c58.43,0,105.97,47.54,105.97,105.97C1185.69,1333.25,1138.16,1380.79,1079.72,1380.79z M1079.72,1174.5
						c-55.31,0-100.32,45-100.32,100.32c0,55.32,45,100.32,100.32,100.32c55.32,0,100.32-45,100.32-100.32
						C1180.04,1219.5,1135.04,1174.5,1079.72,1174.5z"/><path fill="#070706" d="M1064.56,1308.86c-2.53,0-5.07-0.97-7-2.9l-17.95-17.95c-3.87-3.87-3.87-10.14,0-14
							c3.87-3.87,10.13-3.87,14,0l10.95,10.95l41.28-41.29c3.87-3.87,10.13-3.87,14,0c3.87,3.87,3.87,10.14,0,14l-48.29,48.29
							C1069.62,1307.9,1067.09,1308.86,1064.56,1308.86z"/><rect width="640.89" height="22.4" x="1255.35" y="1194.72" fill="#fff"/><rect width="640.89" height="22.4" x="1255.35" y="1254.01" fill="#fff"/><rect width="183.58" height="22.4" x="1553.41" y="1313.3" fill="#fff"/><rect width="195.83" height="22.4" x="1255.35" y="1313.3" fill="#fff"/><path fill="#fff" d="M1301.9,1599.68c-63.01,92.57-181.68,124.58-280.79,81.77c-1.41-0.63-2.79-1.23-4.2-1.86
						c-11.72-5.39-23.15-11.75-34.14-19.24c-11-7.49-21.11-15.79-30.39-24.69c-1.1-1.08-2.2-2.16-3.27-3.23
						c-76.23-76.48-89.94-198.63-26.94-291.21c71.35-104.83,214.18-132.02,319.06-60.64
						C1346.12,1351.98,1373.25,1494.85,1301.9,1599.68z" opacity=".2"/><path fill="#070706" d="M1111.7,1703.02c-30.83,0-62-6.15-91.71-18.98l-4.22-1.87c-12.22-5.62-23.84-12.17-34.59-19.48
						c-10.76-7.33-21.11-15.73-30.76-24.98l-3.3-3.26c-78.49-78.75-89.96-202.72-27.28-294.81c34.93-51.33,87.77-85.98,148.76-97.58
						c61.01-11.6,122.88,1.26,174.22,36.2c105.99,72.14,133.54,217.04,61.41,323.01v0
						C1259.83,1666.52,1186.8,1703.02,1111.7,1703.02z M1112.5,1243.55c-14.23,0-28.55,1.34-42.84,4.06
						c-59.51,11.32-111.06,45.13-145.15,95.21c-61.15,89.84-49.97,210.81,26.6,287.62l3.24,3.21c9.4,9.01,19.5,17.22,30,24.37
						c10.49,7.14,21.84,13.53,33.74,19l4.16,1.84c99.56,43.01,216.18,9.04,277.31-80.77l0,0c70.37-103.4,43.49-244.78-59.92-315.16
						C1201.58,1257.02,1157.56,1243.55,1112.5,1243.55z M1301.9,1599.68h0.04H1301.9z"/><path fill="#fc9fad" d="M748.8,1845.58c0,0,128.68-119.77,144.78-63.71c14.29,49.75-93.17,79.29-93.17,79.29l-61.87,17.33"/><path fill="#ff571c" d="M1016.91,1679.59l-162.28,238.43c-11.77,17.29-35.31,21.74-52.58,9.99l-1.97-1.34
						c-17.3-11.77-21.76-35.28-9.99-52.58l162.28-238.43c9.28,8.9,19.39,17.2,30.39,24.69
						C993.77,1667.84,1005.2,1674.2,1016.91,1679.59z"/><path fill="#070706" d="M823.27,1937.41c-8.08,0-15.97-2.42-22.8-7.06l-1.97-1.34c-8.99-6.12-15.05-15.36-17.08-26.03
						c-2.03-10.67,0.22-21.49,6.34-30.48l162.28-238.43c0.47-0.69,1.21-1.13,2.04-1.22c0.83-0.08,1.65,0.19,2.25,0.77
						c9.42,9.04,19.52,17.24,30.02,24.39c10.49,7.14,21.84,13.53,33.74,19c0.75,0.35,1.32,1.01,1.54,1.81
						c0.22,0.8,0.08,1.66-0.39,2.35l-162.28,238.43c-6.12,8.99-15.36,15.05-26.04,17.07
						C828.38,1937.17,825.82,1937.41,823.27,1937.41z M952.85,1640l-160.41,235.69c-5.27,7.74-7.21,17.06-5.46,26.24
						c1.74,9.18,6.97,17.14,14.71,22.41l1.97,1.34c7.73,5.26,17.05,7.2,26.23,5.46c9.19-1.74,17.15-6.96,22.42-14.7l160.41-235.69
						c-11.09-5.28-21.68-11.35-31.53-18.05C971.31,1655.97,961.8,1648.35,952.85,1640z"/><path fill="#fc9fad" d="M739.4,1857.38c0,0,139.06-78.92,161.71-58.55c11.45,10.3,7.63,28.79,7.63,28.79s26.81,12.52,16.14,32.8
						c0,0,25.64,10.43,14.92,29.63c0,0,27,15.67-5.7,47.71s-127.02,67.22-127.02,67.22L739.4,1857.38z"/><path fill="#070706" d="M871.71,1848.45c-1.06,0-2.08-0.61-2.56-1.63c-0.66-1.41-0.05-3.09,1.37-3.75l36.56-17.02
						c1.41-0.65,3.09-0.05,3.75,1.37c0.66,1.41,0.05,3.09-1.37,3.75l-36.56,17.02C872.51,1848.36,872.11,1848.45,871.71,1848.45z"/><path fill="#070706" d="M890.08,1883.64c-0.99,0-1.95-0.52-2.46-1.44c-0.77-1.36-0.29-3.08,1.07-3.85l35.78-20.21
						c1.36-0.77,3.08-0.29,3.85,1.07c0.77,1.36,0.29,3.08-1.07,3.85l-35.78,20.21C891.02,1883.53,890.55,1883.64,890.08,1883.64z"/><path fill="#070706" d="M905.16,1910.01c-1.03,0-2.03-0.57-2.53-1.56c-0.7-1.39-0.14-3.09,1.25-3.79l34.43-17.33
						c1.39-0.7,3.09-0.14,3.79,1.25c0.7,1.39,0.14,3.09-1.25,3.79l-34.43,17.33C906.02,1909.91,905.59,1910.01,905.16,1910.01z"/><path fill="#789afe" d="M528.68,1522.48c0,0-135.41,38.35-165.68,208.03c-28.93,162.18-23.85,433.83,150.42,422.82
					c174.26-11.01,312.76-148.68,312.76-148.68c1.9-95.26-25.74-155.68-77.96-187.1l-223.79,123.91L528.68,1522.48z"/><path fill="#070706" d="M503.34,2156.48c-37.27,0-68.54-13.38-93.08-39.84c-1.06-1.14-0.99-2.93,0.15-3.99
					c1.14-1.06,2.93-0.99,3.99,0.15c25.55,27.56,58.79,40.24,98.84,37.72c164.34-10.38,298.48-135.88,310.13-147.07
					c1.55-89.41-23.75-150.84-75.22-182.62L525.8,1943.94c-0.87,0.48-1.93,0.47-2.8-0.03c-0.86-0.5-1.39-1.42-1.4-2.42l-1.82-250.26
					c-0.01-1.56,1.24-2.83,2.8-2.85c0.01,0,0.01,0,0.02,0c1.55,0,2.81,1.25,2.83,2.81l1.79,245.51l219.63-121.61
					c0.88-0.49,1.96-0.47,2.83,0.05c54.49,32.78,81.18,96.56,79.33,189.58c-0.01,0.73-0.31,1.43-0.84,1.95
					c-1.39,1.38-141.25,138.55-314.57,149.49C510.13,2156.37,506.71,2156.48,503.34,2156.48z"/><path fill="#ffb839" d="M2091.73,2148.95h-317.05c-25.76,0-46.64-20.88-46.64-46.64v-218.55c0-25.76,20.88-46.64,46.64-46.64
						h317.05c25.76,0,46.64,20.88,46.64,46.64v218.55C2138.38,2128.07,2117.49,2148.95,2091.73,2148.95z"/><path fill="#070706" d="M2091.73,2151.78h-317.05c-27.28,0-49.47-22.19-49.47-49.47v-218.55c0-27.28,22.19-49.47,49.47-49.47
						h317.05c27.27,0,49.47,22.19,49.47,49.47v218.55C2141.2,2129.59,2119.01,2151.78,2091.73,2151.78z M1774.68,1839.94
						c-24.16,0-43.82,19.66-43.82,43.82v218.55c0,24.16,19.66,43.82,43.82,43.82h317.05c24.16,0,43.81-19.66,43.81-43.82v-218.55
						c0-24.16-19.66-43.82-43.81-43.82H1774.68z"/><g><rect width="45.86" height="112.63" x="1800.54" y="1976.81" fill="#fff"/></g><g><rect width="45.86" height="182.25" x="1879.41" y="1907.18" fill="#fff"/></g><g><rect width="45.86" height="79.24" x="1958.29" y="2010.19" fill="#fff"/></g><g><rect width="45.86" height="136.41" x="2037.17" y="1953.03" fill="#fff"/></g><g><path fill="#070706" d="M770.78,584.31c-0.62,0-1.25-0.2-1.77-0.62l-27.03-21.73c-1.22-0.98-1.41-2.76-0.43-3.97
					c0.98-1.22,2.76-1.41,3.97-0.43l27.03,21.73c1.22,0.98,1.41,2.76,0.43,3.97C772.42,583.95,771.6,584.31,770.78,584.31z"/><path fill="#070706" d="M748.21,609.92c-0.7,0-1.39-0.25-1.94-0.77l-25.72-24.23c-1.13-1.07-1.19-2.86-0.12-3.99
					c1.07-1.14,2.85-1.19,4-0.12l25.72,24.23c1.13,1.07,1.19,2.86,0.12,3.99C749.71,609.63,748.96,609.92,748.21,609.92z"/><path fill="#070706" d="M730.19,628.84c-0.65,0-1.31-0.22-1.84-0.68l-25.19-21.55c-1.19-1.01-1.32-2.8-0.31-3.98
					c1.02-1.19,2.81-1.32,3.98-0.31l25.19,21.55c1.19,1.01,1.32,2.8,0.31,3.98C731.78,628.5,730.98,628.84,730.19,628.84z"/></g><g><path fill="#070706" d="M1354.98,314.02c20.94,6.41,40.57,17.82,55.23,34.09c14.66,16.27,24.1,37.54,24.61,59.44
				c0.5,21.9-8.38,44.18-24.94,58.51c-7.24,6.26-16.02,11.04-25.51,12.23c-15.24,1.92-30.67-5.86-40.42-17.72
				s-14.34-27.29-15.61-42.59c-1.27-15.3,0.56-30.67,2.39-45.92"/></g><g><path fill="#fc9fad" d="M1277.19,492.23l30.23,82.13c5.3,41.07,123.29,33.7,131.13-8.04l-57.17-140.04
				C1351.34,403.36,1317.74,459.47,1277.19,492.23z"/></g><g><path fill="#070706" d="M1307.43,574.36c0,0,52.47-46.21,50.83-76.27c-1.56-28.53-72.02,24.62-72.02,24.62L1307.43,574.36z"/></g><g><path fill="#fc9fad" d="M1172.89,430.78c-7.84,80.73,34.44,124.89,90.78,130.36c56.34,5.47,98.61-30.53,106.45-111.26
				c7.84-80.73-29.72-168.74-86.06-174.21C1227.72,270.21,1180.73,350.05,1172.89,430.78z"/></g><g><path fill="#070706" d="M1349.71,375.94c0,0-129.08-11.41-161.54-68.21c0,0,57.19-89.6,148.93-45.54
				c80.18,38.51,41,159.84,41,159.84L1349.71,375.94z"/></g><g><circle cx="1366.44" cy="398.26" r="40.92" fill="#fc9fad"/></g><g><path fill="#070706" d="M1371.12,419.8c-3.36,0-6.61-1.18-8.89-3.48c-3.24-3.28-4.2-8.51-2.34-12.72c1.87-4.21,6.33-7.02,10.98-6.82
				c1.56,0.07,2.77,1.38,2.7,2.94c-0.07,1.56-1.53,2.75-2.94,2.7c-2.45-0.1-4.64,1.36-5.58,3.46c-0.93,2.1-0.43,4.82,1.19,6.46
				c2.46,2.48,6.78,2.2,9.54,0.48c3.85-2.39,6.1-7.65,5.46-12.8c-0.59-4.76-3.36-9.53-7.79-13.42c-2.78-2.45-5.48-3.84-8.02-4.15
				c-4.04-0.49-8.58,1.89-11.22,5.92c-2.97,4.53-3.35,10.18-3.15,14.12c0.08,1.56-1.12,2.89-2.67,2.97
				c-1.5,0.09-2.89-1.11-2.97-2.68c-0.35-6.86,1.05-12.91,4.07-17.51c3.85-5.87,10.39-9.18,16.62-8.43
				c3.69,0.45,7.42,2.3,11.07,5.52c5.47,4.81,8.9,10.84,9.66,16.97c0.91,7.38-2.34,14.73-8.09,18.3
				C1376.41,419.09,1373.73,419.8,1371.12,419.8z"/></g><g><path fill="#070706" d="M1249.18,508.22c-0.77,0-1.55-0.03-2.34-0.08c-1.56-0.11-2.73-1.45-2.63-3.01c0.1-1.56,1.47-2.73,3.01-2.63
					c7.23,0.49,13.55-1.76,17.67-6.35c4.52-5.03,6.08-12.38,4.53-21.26c-0.27-1.54,0.75-3,2.29-3.27c1.56-0.27,3,0.76,3.27,2.29
					c2.37,13.46-1.9,21.57-5.89,26.02C1264.25,505.33,1257.24,508.22,1249.18,508.22z"/><circle cx="1265.87" cy="430.78" r="8.75" fill="#070706"/><path fill="#070706" d="M1237.12,469.23c-0.1,0-0.19,0-0.28-0.01c-2.44-0.24-5.2-0.52-7.82-1.54c-3.27-1.27-5.69-3.5-6.82-6.26
					c-1.38-3.39-0.58-6.98,0-9.61l5.82-26.16c0.34-1.53,1.88-2.48,3.37-2.14c1.52,0.34,2.48,1.85,2.14,3.37l-5.82,26.16
					c-0.54,2.46-0.94,4.63-0.28,6.25c0.53,1.29,1.85,2.43,3.63,3.13c1.9,0.74,4.15,0.96,6.33,1.18c1.55,0.16,2.69,1.54,2.53,3.09
					C1239.78,468.15,1238.55,469.23,1237.12,469.23z"/><path fill="#070706" d="M1246.07,412.34c0.19,4.58,8.62,1.01,17.62,1.05c9.1-0.11,15.17,3.01,17.11,0.38
					c1.98-2.25-1.99-9.94-13.24-12.02C1256.25,399.54,1245.59,407.77,1246.07,412.34z"/><path fill="#070706" d="M1183.43,399.09c-0.07,4.58,8.55,1.49,17.54,2.04c9.09,0.4,14.97,3.86,17.06,1.34
					c2.1-2.13-1.43-10.03-12.55-12.74C1194.31,386.88,1183.2,394.5,1183.43,399.09z"/><circle cx="1199.86" cy="418.58" r="8.75" fill="#070706"/></g><g><path fill="#fc9fad" d="M1383.26,735.92c0,0-124.61,14.83-153.82,32.86s-31.95,56.14-31.95,56.14h183.72L1383.26,735.92z"/><path fill="#ff571c" d="M1492.95,572.78c0,0,338.66,72.83,291.05,223.28c-38.91,122.96-403.64,48.18-403.64,48.18
					c-22.21-9.28-40.95-115,2.89-126.65l174.65-12.17"/><path fill="#070706" d="M1597.01,870.16c-102.48,0-209.09-21.48-217.21-23.15c-0.18-0.04-0.35-0.09-0.52-0.16
					c-14.84-6.2-27.52-48.48-25.11-83.78c1.82-26.71,11.89-43.83,28.37-48.21c0.17-0.05,0.35-0.08,0.53-0.09l174.65-12.17
					c1.58-0.1,2.91,1.07,3.01,2.62c0.11,1.56-1.06,2.91-2.62,3.02l-174.38,12.15c-18.61,5.15-22.98,29.16-23.93,43.06
					c-2.34,34.39,10.03,72.86,21.42,78.08c11.99,2.41,364.83,72,400.08-46.28c0.44-1.49,2-2.35,3.51-1.9
					c1.5,0.45,2.35,2.02,1.9,3.51C1769.58,854.39,1684.8,870.16,1597.01,870.16z"/><path fill="#070706" d="M1221.46,777.55c-1.18,0-2.29-0.75-2.68-1.94c-0.49-1.48,0.31-3.08,1.8-3.57c1.91-0.63,47-15.3,71.04-3.52
					c1.4,0.69,1.98,2.38,1.29,3.78c-0.69,1.4-2.37,1.98-3.78,1.29c-21.96-10.76-66.34,3.66-66.78,3.81
					C1222.05,777.51,1221.75,777.55,1221.46,777.55z"/><path fill="#070706" d="M1202.83,805.59c-1.09,0-2.13-0.64-2.59-1.71c-0.62-1.43,0.04-3.09,1.48-3.71
					c1.97-0.84,48.47-20.56,86.61-11.08c1.52,0.38,2.44,1.91,2.06,3.42c-0.38,1.52-1.92,2.44-3.42,2.06
					c-36.27-9.01-82.54,10.59-83.01,10.79C1203.58,805.52,1203.2,805.59,1202.83,805.59z"/></g><g><path fill="#070706" d="M1088.28,827.75c-0.22,0-0.44-0.03-0.67-0.08c-1.52-0.37-2.45-1.89-2.09-3.41
				c8.2-34.05,22.92-65.21,42.56-90.1c0.97-1.22,2.74-1.43,3.97-0.47c1.23,0.97,1.43,2.74,0.47,3.97
				c-19.14,24.26-33.5,54.66-41.5,87.92C1090.71,826.88,1089.55,827.75,1088.28,827.75z"/></g><g><path fill="#fff" d="M1426.45,536.66l32.34,31l-70.28,71.02l-35.55-37.45C1384.6,586.78,1407.82,563.98,1426.45,536.66z"/></g><g><path fill="#fff" d="M1352.97,601.23l-50.01,39.08l-15.23-62.41l15.45-13.92C1318.85,579.96,1335.23,593.26,1352.97,601.23z"/></g><g><path fill="#fff" d="M1520.29,396.28v110.75h153.69c61.13,0,110.72-49.58,110.72-110.75c0-30.58-12.39-58.25-32.45-78.27
				c-20.03-20.06-47.72-32.44-78.27-32.44h-42.97C1569.85,285.56,1520.29,335.14,1520.29,396.28z"/><path fill="#070706" d="M1673.99,509.85h-153.69c-1.56,0-2.83-1.26-2.83-2.83V396.28c0-62.61,50.94-113.54,113.55-113.54h42.97
				c30.34,0,58.85,11.82,80.27,33.27c21.45,21.42,33.27,49.93,33.27,80.27C1787.53,458.9,1736.59,509.85,1673.99,509.85z
				 M1523.12,504.2h150.87c59.49,0,107.89-48.41,107.89-107.92c0-28.83-11.23-55.91-31.62-76.27
				c-20.35-20.39-47.44-31.62-76.27-31.62h-42.97c-59.49,0-107.9,48.4-107.9,107.89V504.2z"/></g><g><circle cx="1714.74" cy="391.97" r="18.89" fill="#ff571c"/></g><g><circle cx="1656.08" cy="391.97" r="18.89" fill="#789afe"/></g><g><circle cx="1597.41" cy="391.97" r="18.89" fill="#ffb839"/></g><g><path fill="#ffb839" d="M439.43,836.75l146.96-24.06c-2.83-36.86,6.68-73.69,26.74-105.1c20.22-31.66,29.3-70.59,22.78-110.57
							c-14.07-86.21-95.47-144.75-181.67-130.63c-86.21,14.12-144.65,95.45-130.54,181.66c6.54,39.93,27.5,73.9,56.67,97.47
							C409.44,768.97,430.33,800.85,439.43,836.75z"/><path fill="#fff" d="M475.58,804.47c-1.36,0-2.56-0.98-2.78-2.37l-20.07-122.56l-20.76,3.4c-6.86,1.12-13.74-0.49-19.39-4.55
						c-5.64-4.06-9.37-10.07-10.49-16.92c-1.12-6.86,0.49-13.74,4.55-19.39c4.06-5.64,10.07-9.37,16.93-10.49l0.65-0.11
						c14.18-2.32,27.57,7.32,29.89,21.47l3.29,20.1l59.59-9.76l-3.29-20.1c-1.12-6.86,0.49-13.74,4.55-19.39
						c4.05-5.64,10.07-9.37,16.92-10.49l0.67-0.11c14.17-2.32,27.56,7.32,29.88,21.47c2.31,14.16-7.32,27.56-21.47,29.88l-20.76,3.4
						l20.07,122.56c0.25,1.54-0.79,2.99-2.33,3.24c-1.56,0.25-2.99-0.79-3.24-2.33l-20.07-122.56l-59.59,9.76l20.07,122.56
						c0.25,1.54-0.79,2.99-2.33,3.24C475.88,804.46,475.73,804.47,475.58,804.47z M428.43,636.79c-1.09,0-2.19,0.09-3.3,0.27
						l-0.65,0.11c-5.37,0.88-10.08,3.8-13.25,8.22c-3.18,4.42-4.44,9.81-3.56,15.18c0.88,5.37,3.79,10.07,8.21,13.25
						c4.42,3.18,9.81,4.44,15.18,3.56l20.76-3.4l-3.29-20.1C446.89,643.89,438.22,636.79,428.43,636.79z M540.03,618.51
						c-1.09,0-2.19,0.09-3.3,0.27l-0.67,0.11c-5.36,0.88-10.07,3.8-13.24,8.21c-3.17,4.42-4.44,9.81-3.56,15.18l3.29,20.1l20.76-3.4
						c11.08-1.81,18.62-12.31,16.81-23.39C558.49,625.62,549.82,618.51,540.03,618.51z"/><path fill="#070706" d="M591.98,757.88c-0.25,0-0.5-0.03-0.75-0.1c-1.5-0.41-2.39-1.97-1.98-3.47
							c4.68-17.01,11.91-33.24,21.49-48.25c20.59-32.24,28.54-70.81,22.37-108.6c-6.68-40.95-28.93-76.86-62.64-101.1
							c-33.72-24.25-74.84-33.91-115.78-27.2c-40.95,6.71-76.84,28.96-101.05,62.66c-24.21,33.7-33.86,74.81-27.15,115.75
							c1.56,9.55,4.01,18.97,7.28,27.99c0.53,1.47-0.23,3.09-1.69,3.62c-1.48,0.53-3.09-0.23-3.62-1.69
							c-3.38-9.35-5.92-19.1-7.55-29c-6.95-42.44,3.04-85.04,28.14-119.96c25.1-34.93,62.29-57.99,104.73-64.94
							c42.42-6.95,85.05,3.06,119.99,28.19c34.94,25.13,58,62.34,64.92,104.78c6.39,39.16-1.85,79.13-23.19,112.55
							c-9.27,14.53-16.28,30.24-20.8,46.71C594.36,757.06,593.22,757.88,591.98,757.88z"/><path fill="#252420" d="M573.21,863.88l0.21,1.25c4.36,26.62-13.67,51.72-40.28,56.08c-26.61,4.36-51.71-13.68-56.07-40.3
							l-0.21-1.25L573.21,863.88z"/><path fill="#252420" d="M613.9,784.16l2.17,13.27c1.7,10.39-5.35,20.2-15.73,21.9L428.35,847.5c-10.39,1.7-20.2-5.34-21.9-15.73
							l-2.17-13.27c-1.7-10.39,5.35-20.2,15.73-21.9L592,768.43C602.39,766.73,612.2,773.77,613.9,784.16z"/><path fill="#070706" d="M613.9,784.16l2.17,13.27c1.7,10.39-5.35,20.2-15.73,21.9L428.35,847.5c-8.58,1.4-16.76-3.15-20.3-10.63
							c2.97,1.09,6.24,1.44,9.58,0.89l171.99-28.16c10.39-1.7,17.44-11.51,15.73-21.9l-2.17-13.27c-0.3-1.81-0.83-3.52-1.59-5.1
							C607.85,771.6,612.74,777.12,613.9,784.16z"/><path fill="#252420" d="M622.12,834.41l2.17,13.27c1.7,10.39-5.35,20.2-15.73,21.9l-171.99,28.16
							c-10.39,1.7-20.2-5.34-21.9-15.73l-2.17-13.27c-1.7-10.39,5.35-20.2,15.73-21.9l171.99-28.16
							C610.62,816.97,620.42,824.02,622.12,834.41z"/><path fill="#070706" d="M622.12,834.41l2.17,13.27c1.7,10.39-5.34,20.2-15.73,21.9l-171.99,28.16
							c-8.58,1.4-16.76-3.15-20.3-10.63c2.97,1.09,6.24,1.44,9.58,0.89l171.99-28.16c10.39-1.7,17.44-11.51,15.73-21.9l-2.17-13.27
							c-0.3-1.81-0.83-3.52-1.59-5.1C616.08,821.85,620.97,827.37,622.12,834.41z"/><path fill="#ffb839" d="M453.38,418.67l1.5,9.16c0.61,3.74-1.92,7.27-5.66,7.88c-3.73,0.61-7.25-1.92-7.86-5.66l-1.5-9.16
					c-0.61-3.72,1.92-7.25,5.65-7.86c1.87-0.31,3.7,0.17,5.11,1.2C452.04,415.24,453.07,416.8,453.38,418.67z"/><path fill="#ffb839" d="M358.07,458.01l5.88,7.18c2.4,2.94,1.97,7.25-0.96,9.65c-2.92,2.39-7.24,1.96-9.64-0.98l-5.88-7.18
					c-2.39-2.92-1.96-7.24,0.96-9.63c1.47-1.2,3.29-1.7,5.03-1.51C355.19,455.71,356.86,456.54,358.07,458.01z"/><path fill="#ffb839" d="M555.59,432.26l-3.28,8.68c-1.34,3.55-5.29,5.33-8.84,3.99c-3.53-1.33-5.32-5.29-3.97-8.84l3.28-8.68
					c1.33-3.53,5.29-5.32,8.82-3.98c1.77,0.67,3.12,2,3.82,3.6C556.14,428.62,556.26,430.49,555.59,432.26z"/></g><g><path fill="#fff" d="M1680.77,730.66c-7.74,0-14.03-6.29-14.03-14.03s6.29-14.03,14.03-14.03c7.73,0,14.03,6.29,14.03,14.03
			S1688.5,730.66,1680.77,730.66z M1680.77,708.25c-4.62,0-8.38,3.76-8.38,8.38c0,4.62,3.76,8.38,8.38,8.38
			c4.62,0,8.38-3.76,8.38-8.38C1689.15,712.01,1685.39,708.25,1680.77,708.25z"/></g><g><path fill="#fff" d="M1537.86,804.75c-11.24,0-20.39-9.15-20.39-20.39c0-11.24,9.15-20.39,20.39-20.39
			c11.25,0,20.4,9.15,20.4,20.39C1558.25,795.6,1549.1,804.75,1537.86,804.75z M1537.86,769.62c-8.13,0-14.74,6.61-14.74,14.74
			s6.61,14.74,14.74,14.74c8.13,0,14.74-6.61,14.74-14.74S1545.99,769.62,1537.86,769.62z"/></g><g><path fill="#fff" d="M1484.65,633.56c-11.42,0-20.7-9.29-20.7-20.7c0-11.41,9.29-20.7,20.7-20.7s20.7,9.29,20.7,20.7
			C1505.35,624.27,1496.07,633.56,1484.65,633.56z M1484.65,597.81c-8.3,0-15.05,6.75-15.05,15.05c0,8.3,6.75,15.05,15.05,15.05
			c8.3,0,15.05-6.75,15.05-15.05C1499.7,604.56,1492.95,597.81,1484.65,597.81z"/></g><g><path fill="#fff" d="M1136.72,689.03c-12.47,0-24.17-6.11-31.29-16.36l4.64-3.23c6.07,8.72,16.03,13.93,26.65,13.93
			c17.86,0,32.4-14.55,32.4-32.43c0-7.65-2.56-14.79-7.41-20.65l4.36-3.6c5.69,6.89,8.71,15.27,8.71,24.25
			C1174.77,671.94,1157.7,689.03,1136.72,689.03z"/></g><g><path fill="#fff" d="M914.44,743.39c-8.16,0-14.79-6.64-14.79-14.79s6.64-14.79,14.79-14.79c8.16,0,14.79,6.64,14.79,14.79
			S922.59,743.39,914.44,743.39z M914.44,719.45c-5.04,0-9.14,4.1-9.14,9.14c0,5.04,4.1,9.14,9.14,9.14c5.04,0,9.14-4.1,9.14-9.14
			C923.58,723.56,919.48,719.45,914.44,719.45z"/></g><g><path fill="#fff" d="M1013.16,804.75c-10.15,0-18.41-8.26-18.41-18.41c0-10.15,8.26-18.41,18.41-18.41
			c10.15,0,18.41,8.26,18.41,18.41C1031.57,796.49,1023.31,804.75,1013.16,804.75z M1013.16,773.58c-7.03,0-12.76,5.72-12.76,12.76
			c0,7.03,5.72,12.76,12.76,12.76c7.03,0,12.76-5.72,12.76-12.76C1025.92,779.31,1020.19,773.58,1013.16,773.58z"/></g><g><circle cx="452.47" cy="1761.25" r="34.22" fill="#fff"/></g><g><circle cx="434.51" cy="1973.26" r="17.95" fill="#fff"/></g><g><circle cx="688.47" cy="2011.64" r="20.42" fill="#fff"/></g><g><circle cx="544.61" cy="2051.39" r="19.33" fill="#fff"/></g><g><circle cx="660.32" cy="1731.52" r="23.72" fill="#fff"/></g><g><circle cx="768.62" cy="1609.37" r="24.07" fill="#fff"/></g><g><circle cx="756.05" cy="2173.75" r="20.09" fill="#fff"/></g></svg>