<svg xmlns="http://www.w3.org/2000/svg" viewBox="0 0 1200 1000"><path fill="#7e75fc" fill-rule="evenodd" d="M928.54984,265.28553c-81.069-1.0528-76.4032-97.552-16-106,143-20,232,158,173,161C1052.95674,321.94283,1082.54984,267.28553,928.54984,265.28553Z"/><path fill="#7e75fc" fill-rule="evenodd" d="M898.54984,136.28553c-49.7198,5.7295-43.6214-41.5246-6-43,51-2,92,29,79,46C962.51944,151.09453,936.35594,131.92893,898.54984,136.28553Z"/><path fill="#fff" d="M455.05764,281.61373c30.9569,28.7196,43.0412,42.9186,43.0412,42.9186l41.374-50.3487L574.795,295.549c1.9747,1.133,14.0781.5906,13.0093,2.3607-8.0829,13.386-59.2307,93.9925-94.8912,90.9231-36.7031-3.1591-62.7718-49.0669-76.3073-88.6146C409.023,278.06283,430.37114,258.71143,455.05764,281.61373Z"/><path d="M494.89554,389.41683c-.6811,0-1.3546-.0283-2.0253-.0859-16.838-1.4492-32.7171-11.831-47.1965-30.8569-14.5062-19.0611-24.0712-42.1128-29.5409-58.0938-3.6876-10.7744-.8056-21.497,7.1715-26.6811,8.8214-5.7334,20.8189-2.9116,32.0934,7.5478,27.6299,25.6333,40.3737,39.8682,42.6906,42.5113l40.9981-49.8921a.50108.50108,0,0,1,.6452-.1104l35.3222,21.3657c.7276.417,3.5168.605,5.9774.7705,4.685.3155,6.7864.5459,7.2467,1.4297a.83823.83823,0,0,1-.0456.8462C585.94464,301.95693,532.69194,389.41293,494.89554,389.41683ZM433.29444,271.786a17.06413,17.06413,0,0,0-9.4452,2.7515c-7.5861,4.9301-10.307,15.1855-6.7703,25.5185,5.4458,15.9116,14.9653,38.8574,29.3906,57.8125,14.3011,18.792,29.9415,29.042,46.4864,30.4663,37.0447,3.1563,91.4159-85.7197,94.3706-90.6015-.6633-.46-4.0725-.6895-6.3624-.8438-2.9405-.1978-5.4801-.3686-6.4178-.9067l-34.962-21.1475L498.48524,324.85a.50008.50008,0,0,1-.7671.0068c-.1207-.1421-12.4281-14.5137-43.0006-42.8765C447.48694,275.27233,439.98194,271.786,433.29444,271.786Z"/><path fill="#fff" d="M540.54,265.34563l-11.1147,15.7935a3.91042,3.91042,0,0,0,.1817,4.5055c5.4773,7.6579,24.0042,30.9757,47.2417,32.1086a3.82424,3.82424,0,0,0,3.5857-1.97l9.731-17.6588a4.08641,4.08641,0,0,0-2.3702-5.5751c-20.0936-7.4983-34.6865-20.778-41.0129-27.2936C544.90344,263.32063,541.92994,263.37063,540.54,265.34563Z"/><path d="M577.14464,318.13713a4.595,4.595,0,0,1-.496-.0264c-11.8642-1.2637-29.7179-7.8662-47.399-32.1421a4.42305,4.42305,0,0,1-.2203-5.1352l11.1018-15.7754a4.0451,4.0451,0,0,1,3.0518-1.71,4.97452,4.97452,0,0,1,3.9581,1.5596c6.7884,6.9912,21.1197,19.8183,40.8291,27.1733a4.81531,4.81531,0,0,1,2.8308,2.8438,4.14135,4.14135,0,0,1-.1976,3.4409l-9.662,17.5337A4.27874,4.27874,0,0,1,577.14464,318.13713Zm-33.5982-53.8037c-.095,0-.1898.0039-.2849.0112a3.063,3.063,0,0,0-2.3125,1.2886l-11.1018,15.7753a3.42689,3.42689,0,0,0,.2108,3.9712c17.4651,23.9795,35.0337,30.4942,46.6964,31.7369a3.31836,3.31836,0,0,0,3.3111-1.6998l9.662-17.5336a3.10291,3.10291,0,0,0,.1358-2.6109,3.8706,3.8706,0,0,0-2.2428-2.2549c-19.893-7.4228-34.3499-20.3613-41.197-27.4135A4.0353,4.0353,0,0,0,543.54644,264.33343Z"/><path fill="#fff" d="M492.25244,333.20723l5.8464-8.6749Z"/><path d="M492.25194,333.70743a.50007.50007,0,0,1-.4141-.7793l5.8464-8.6748a.49994.49994,0,1,1,.8293.5586l-5.8464,8.6748A.49905.49905,0,0,1,492.25194,333.70743Z"/><path fill="#fff" d="M511.17064,914.69933s-.1614-30.6485-14.2345-43.3459c-13.5728-12.246-34.3651-12.2835-50.1579-21.571-19.721-11.5975-26.1005-46.9007-31.8432-46.8795l-69.3785,10.5467-2.0524,101.2497Z"/><path d="M511.17064,915.19913H343.50414a.49963.49963,0,0,1-.4998-.5103l2.0523-101.2495a.49939.49939,0,0,1,.4247-.4839l69.3786-10.5469c2.6212,0,4.8361,5.0289,8.1863,12.6363,5.0669,11.5049,12.0063,27.2622,23.9855,34.3066,6.7049,3.9429,14.4551,6.2466,21.9501,8.4741,10.049,2.9864,20.4399,6.0747,28.2893,13.1568,14.0751,12.6992,14.393,42.4536,14.3995,43.7143a.50019.50019,0,0,1-.5.5025Zm-167.1562-1h166.6464c-.1056-4.0196-1.292-30.9551-14.0596-42.4746-7.6813-6.9302-17.962-9.9859-27.9043-12.9405-7.5525-2.2446-15.3621-4.5659-22.1721-8.5703-12.2574-7.2085-19.272-23.1362-24.3938-34.7661-2.8462-6.4624-5.3047-12.0449-7.1907-12.0449l-68.8925,10.478Z"/><path fill="#7e75fc" d="M373.59794,902.92863a.5.5,0,0,1-.4999-.4981,38.31929,38.31929,0,0,0-8.1919-24.1221c-5.2242-6.3969-12.1573-9.9223-19.48-9.8774a.50028.50028,0,0,1-.5018-.498.54159.54159,0,0,1,.5863-.502c7.6123,0,14.7723,3.6357,20.1701,10.2451a39.31919,39.31919,0,0,1,8.4173,24.7505.5001.5001,0,0,1-.4982.502Z"/><path d="M383.40914,899.057a.49991.49991,0,0,1-.4982-.4639c-1.5695-21.7754-16.0592-39.1909-33.7043-40.5093a.49989.49989,0,1,1,.0745-.997c18.1359,1.3549,33.0224,19.1679,34.6272,41.4341a.49976.49976,0,0,1-.4627.5346Z"/><path fill="#7e75fc" d="M490.60454,867.14693a41.18442,41.18442,0,0,1,5.8842,4.3782c8.2843,7.4746,11.6397,20.5775,13.0872,30.4035l-25.5582.0939Z"/><path d="M485.21864,896.17953a.513.513,0,0,1-.0934-.0087.49982.49982,0,0,1-.3985-.584l4.4049-23.3355a.5.5,0,0,1,.9827.1856l-4.405,23.3354A.50011.50011,0,0,1,485.21864,896.17953Z"/><path d="M348.55174,903.26113a.5.5,0,0,1-.0018-1l154.7597-.5689a.5.5,0,1,1,.0036,1l-154.7596.5689Z"/><path d="M446.39344,860.492a4.29875,4.29875,0,0,1-1.7041-.3598,3.56315,3.56315,0,0,1-2.1862-4.5015,3.03326,3.03326,0,0,1,1.9775-1.6899,4.2561,4.2561,0,0,1,4.8652,2.105,2.95894,2.95894,0,0,1-1.8561,4.289A3.825,3.825,0,0,1,446.39344,860.492Zm-.8161-5.7089a2.85008,2.85008,0,0,0-.8113.1157,2.051,2.051,0,0,0-1.3452,1.1294,2.57379,2.57379,0,0,0,1.6657,3.186,3.12058,3.12058,0,0,0,2.1178.1626,1.962,1.962,0,0,0,1.2474-2.8828,3.11531,3.11531,0,0,0-1.5678-1.4326A3.30011,3.30011,0,0,0,445.57734,854.78313Z"/><path d="M461.45414,867.55413a4.39887,4.39887,0,0,1-.8657-.087,3.30017,3.30017,0,1,1,1.2893-6.3974,4.118,4.118,0,0,1,2.4154,1.4316,3.03422,3.03422,0,0,1,.6592,2.5166A3.41671,3.41671,0,0,1,461.45414,867.55413Zm-.4484-5.5718a2.419,2.419,0,0,0-2.5117,1.7339,2.85649,2.85649,0,0,0,5.478,1.1045,2.05193,2.05193,0,0,0-.4603-1.6954,3.11694,3.11694,0,0,0-1.8315-1.0752A3.41721,3.41721,0,0,0,461.00574,861.98233Z"/><path d="M478.73644,870.19763c-.0909,0-.1824-.0024-.2747-.0083a3.56354,3.56354,0,0,1-3.5852-3.4912,3.03422,3.03422,0,0,1,1.2857-2.2617,4.2569,4.2569,0,0,1,5.291.3276,3.0333,3.0333,0,0,1,.997,2.4028A3.51832,3.51832,0,0,1,478.73644,870.19763Zm-.1508-5.5303a3.07035,3.07035,0,0,0-1.8294.5738,2.04994,2.04994,0,0,0-.8817,1.5185,2.85644,2.85644,0,0,0,5.5776.3457,2.05124,2.05124,0,0,0-.6875-1.6162,3.11447,3.11447,0,0,0-1.9614-.8149C478.73034,864.66983,478.65774,864.66733,478.58564,864.66733Z"/><path fill="#7e75fc" d="M466.65584,847.47793a88.6645,88.6645,0,0,1-15.8298-1.791.50014.50014,0,0,1-.1261-.9336c.7739-.3999,19.0213-9.7491,25.2491-6.4761a3.86956,3.86956,0,0,1,2.0947,3.1182,4.08217,4.08217,0,0,1-1.2942,3.7124C474.80074,846.90423,470.87514,847.47793,466.65584,847.47793Zm-14.175-2.4903c4.7023.8604,19.4643,3.1895,23.591-.6152a3.09369,3.09369,0,0,0,.98-2.8511,2.88385,2.88385,0,0,0-1.5678-2.3588C470.623,836.60873,456.82094,842.888,452.48084,844.98763Z"/><path fill="#7e75fc" d="M450.92984,845.69763a.5.5,0,0,1-.2982-.9018c.1357-.1006,13.5698-10.1241,13.478-15.6192a2.49822,2.49822,0,0,0-1.1827-2.1182,2.30675,2.30675,0,0,0-2.1131-.3715c-2.2495.7163-4.8522,4.8466-7.3287,11.6308a.49993.49993,0,1,1-.9393-.3427c2.6599-7.2872,5.3397-11.4053,7.9648-12.2408a3.28837,3.28837,0,0,1,2.9846.501,3.4805,3.4805,0,0,1,1.6143,2.9248c.1,6.0059-13.3114,16.0161-13.8824,16.4395A.49691.49691,0,0,1,450.92984,845.69763Z"/><path fill="#7e75fc" d="M478.66394,867.43253a.51834.51834,0,0,1-.0554-.003.49982.49982,0,0,1-.4421-.5517l.9724-8.815a.5.5,0,1,1,.9939.1094l-.9724,8.815A.50018.50018,0,0,1,478.66394,867.43253Z"/><path fill="#7e75fc" d="M461.23314,864.76843a.49986.49986,0,0,1-.4775-.6484l3.1677-10.1895a.5.5,0,1,1,.9549.2969l-3.1678,10.1894A.49984.49984,0,0,1,461.23314,864.76843Z"/><path fill="#fff" d="M438.57524,392.46633c5.8511-3.2334,10.3562-35.0397,10.3562-35.0397s6.1491-72.178-13.3708-87.8455c-15.3496-12.3203-94.7125-13.9057-115.8085,1.3183-17.4143,12.5671-12.199,50.3309-12.4242,71.805-.1016,9.6864,4.5026,49.4057,4.5026,49.4057S383.98064,422.63653,438.57524,392.46633Z"/><path d="M382.05364,406.19273c-37.581.0025-69.9348-13.4175-70.4179-13.622a.50048.50048,0,0,1-.3018-.4029c-.0461-.3974-4.6067-39.8618-4.506-49.4687a.514.514,0,0,1,.5053-.4947.5.5,0,0,1,.4947.5054c-.0955,9.1074,4.0462,45.4014,4.4656,49.0503,4.8795,1.9795,73.9522,29.0542,126.0399.2686,4.6208-2.5537,8.8596-25.8941,10.1029-34.6724.0711-.6914,7.1092-71.1816-12.0616-86.3901-17.1463-13.6021-81.5785-17.9239-108.4347-3.6905a.5001.5001,0,0,1-.4683-.8838c27.1056-14.3647,92.1881-9.9624,109.5245,3.7911,19.5984,15.5478,12.7343,84.3725,12.4326,87.2949-.1877,1.3276-4.6114,32.1098-10.6117,35.4258C420.801,402.85973,400.77554,406.19173,382.05364,406.19273Z"/><path d="M411.46034,260.25043c-.4077-4.5788-1.9461-7.835-6.9239-9.5966-6.3176-2.2356-20.1213-2.1731-26.585-.4037-5.8336,1.5969-8.6925,3.1992-11.7862,8.028-2.6872,4.1944-2.5512,12.5568-2.5512,12.5568l44.8347,3.8043S411.71084,263.06413,411.46034,260.25043Z"/><path fill="#7e75fc" d="M400.284,277.12063c4.5766,23.2356,9.467,38.486,9.8076,63.474.259,19.0214-5.3291,40.8678-9.4932,60.101-1.6611-.134-3.2524-.6251-4.9087-.8696,2.9334-23.7975,5.6028-43.0133,5.3452-67.4009-.1933-18.2992-3.4565-36.0569-5.7963-54.2136C396.94,277.80513,398.57574,277.62323,400.284,277.12063Z"/><path d="M395.94324,384.05113a.47971.47971,0,0,1-.0832-.0068.49992.49992,0,0,1-.4105-.5757c2.9155-17.4053,3.7825-41.1504,2.3192-63.5181a.50016.50016,0,0,1,.4662-.5317.50877.50877,0,0,1,.5316.4663c1.4681,22.4404.5968,46.2715-2.3308,63.7485A.49984.49984,0,0,1,395.94324,384.05113Z"/><path d="M403.85444,386.46033a.5135.5135,0,0,1-.101-.0102.5.5,0,0,1-.3892-.5904l.7534-3.6509c2.8971-14.0078,5.6336-27.2382,5.4827-39.6347-.1947-16.003-2.0274-26.9966-3.9676-38.6358l-.6289-3.79a.50006.50006,0,0,1,.9869-.1621l.6284,3.7881c1.9467,11.6777,3.7855,22.708,3.9811,38.7881.1522,12.5043-2.5949,25.7866-5.5033,39.8486l-.7532,3.6499A.50041.50041,0,0,1,403.85444,386.46033Z"/><path fill="#fff" d="M410.21754,224.14433c4.4225-11.0032.2241-18.3202-6.3165-22.5807-4.0444-2.6345-39.5311,18.3079-40.8215,23.044-3.6162,13.272,7.6768,25.0886,19.77,26.8179,9.2165,1.3179,23.9413-3.2802,28.129-16.2931C412.45584,230.542,410.21754,224.14433,410.21754,224.14433Z"/><path d="M385.93744,252.13413a22.4348,22.4348,0,0,1-3.1587-.2133,25.82769,25.82769,0,0,1-17.4254-11.0884,19.92153,19.92153,0,0,1-2.7562-16.356c1.0951-4.0195,23.9827-18.0859,35.1496-22.3359,4.5008-1.7139,5.8237-1.3892,6.4272-.9956,4.6637,3.0376,11.6966,10.0586,6.576,23.0141.3616,1.1016,2.0938,6.8096.7046,11.1265C407.57924,247.328,394.99624,252.13363,385.93744,252.13413Zm16.9364-50.3022a14.92589,14.92589,0,0,0-4.7714,1.2432c-11.6459,4.4326-33.5968,18.2006-34.5405,21.664a18.76811,18.76811,0,0,0,2.6271,15.544,24.79639,24.79639,0,0,0,16.7313,10.6474c8.6541,1.2383,23.4067-2.9761,27.5823-15.9516,1.4094-4.3799-.7353-10.607-.7571-10.6695a.5.5,0,0,1,.008-.3515c4.735-11.7808-.7175-18.4527-6.1254-21.9751A1.39424,1.39424,0,0,0,402.87384,201.83193Z"/><polygon fill="#7e75fc" points="377.979 270.512 396.639 277.121 401.277 272.465 401.277 242.231 377.979 239.436 377.979 270.512"/><path d="M392.99354,255.741a13.03975,13.03975,0,0,0,7.2559-5.7263l-22.2224-7.7841s.0422,3.5838.0422,10.9561C378.06924,253.18673,387.47474,257.59753,392.99354,255.741Z"/><path fill="#7e75fc" d="M406.98114,227.11033c0,13.652-5.3128,24.1116-11.3553,25.2571-11.337,2.149-22.2044-11.6284-22.2044-25.2804s8.3631-24.6654,17.3676-24.6654C402.43264,202.42163,406.98114,212.485,406.98114,227.11033Z"/><path d="M398.00574,238.14053a7.28617,7.28617,0,0,1-3.7746-1.666.5.5,0,0,1,.6316-.7754c.5742.4668,2.3098,1.6323,3.4324,1.4155a1.1079,1.1079,0,0,0,.7932-.6045c.4643-.831-.204-2.4971-.9115-4.2607a16.14014,16.14014,0,0,1-1.522-5.7354.5001.5001,0,0,1,.5-.499.52451.52451,0,0,1,.5.501,15.43117,15.43117,0,0,0,1.4501,5.3608c.8336,2.0786,1.5536,3.8735.8563,5.1211a2.12009,2.12009,0,0,1-1.4795,1.0991A2.53079,2.53079,0,0,1,398.00574,238.14053Z"/><path d="M395.99914,243.20493a4.74941,4.74941,0,0,1-1.7761-.353c-.9499-.3862-.992-.6689-1.0099-.7895a.50006.50006,0,0,1,.421-.5684.50524.50524,0,0,1,.4437.1582,3.60823,3.60823,0,0,0,4.2011-.271.5.5,0,1,1,.6061.7954A4.686,4.686,0,0,1,395.99914,243.20493Z"/><path d="M391.47834,221.765c-2.3268,0-6.8192,1.7317-6.4478,3.8699.1153.6634.7796-1.2294,7.1563-1.8808C393.206,223.65,393.11744,221.76493,391.47834,221.765Z"/><path d="M398.78784,221.64373c2.0304-.5265,6.089.2099,6.3016,2.3637.066.6683-2.3802-1.3816-6.2979-.3718C397.89724,223.86613,397.35754,222.01453,398.78784,221.64373Z"/><path d="M386.57874,228.00333a.49991.49991,0,0,1-.3146-.8887c2.2353-1.8071,3.353-2.5454,6.4195-1.103a.50011.50011,0,0,1-.4255.9052c-2.629-1.2373-3.3186-.6796-5.3653.9751A.49616.49616,0,0,1,386.57874,228.00333Z"/><path d="M398.61344,226.62343a.5.5,0,0,1-.3516-.8555c1.9916-1.9697,3.9344-.8115,5.0953-.1181a.49985.49985,0,1,1-.5124.8584c-1.3817-.8238-2.5447-1.3497-3.8797-.0293A.49939.49939,0,0,1,398.61344,226.62343Z"/><path d="M390.02454,227.77923a1.06,1.06,0,0,1-1.1414-1.0173.93138.93138,0,0,1,1.8161-.2543C390.87684,226.94623,390.55764,227.77923,390.02454,227.77923Z"/><path d="M401.29254,226.97693a.9919.9919,0,0,1-1.0788-.9312.88417.88417,0,0,1,1.7167-.2328C402.09714,226.21313,401.79654,226.97693,401.29254,226.97693Z"/><path fill="#7e75fc" d="M375.145,229.96753c.7681,3.1108,2.1484,7.4768-1.1716,7.9013-1.7803.2276-5.2631-3.1851-5.9362-6.3171-.9742-4.5328.0472-6.3445,2.3332-6.3445C372.16194,225.20723,374.37694,226.85673,375.145,229.96753Z"/><path d="M373.50134,234.26353a1.49518,1.49518,0,0,1-1.0797-.3691c-.5803-.5542-.4341-1.4829-.2928-2.3814.1042-.6616.2224-1.4121-.0248-1.7011a.87579.87579,0,0,0-.6719-.1963.5.5,0,0,1,0-1,1.788,1.788,0,0,1,1.432.5464,3.08092,3.08092,0,0,1,.2526,2.5068c-.087.5527-.2062,1.3096-.0046,1.502.0444.0429.2436.1699.9331.0288a.5.5,0,0,1,.2013.9795A3.74659,3.74659,0,0,1,373.50134,234.26353Z"/><path d="M392.99814,253.15763a12.72477,12.72477,0,0,1-1.7247-.1197c-3.5566-.4873-10.3209-3.06-15.9973-14.7612a3.7932,3.7932,0,0,1-1.0579.3062c-2.153.3144-5.6234-2.7408-6.189-5.4546a.5.5,0,0,1,.979-.2041c.4833,2.3193,3.5556,4.8999,5.0638,4.6694a2.3788,2.3788,0,0,0,1.1134-.4233.48812.48812,0,0,1,.4223-.0899.49981.49981,0,0,1,.3349.2725c5.5227,11.6987,12.0608,14.228,15.4665,14.6943,3.6906.5054,6.7321-.8735,8.1092-2.4653a.5.5,0,0,1,.7562.6543A9.70354,9.70354,0,0,1,392.99814,253.15763Z"/><path fill="#fff" d="M364.25384,224.14433c-4.8584-1.1261-5.0627-16.7904,6.2575-23.2536,6.5784-3.7559,4.8124-7.8692,13.4799-10.1265,6.8656-1.788,14.6222-.42,19.6904,6.4447,6.0169,8.1498,2.3184,17.9427-6.536,18.9535-7.8837.9-15.7885-7.3895-18.2052-5.0871-1.8562,1.7684-.999,4.3739-1.4287,5.7895-.7088,2.3351-3.046,2.5459-2.0423,6.3188.9659,3.6308,3.227,7.3473.6238,7.3473-1.5776,0-3.3042-3.7165-3.9949-5.3237Z"/><path d="M376.09334,231.03113c-1.3512,0-2.8499-1.8931-4.4543-5.6265a.49991.49991,0,1,1,.9187-.3945c1.591,3.7022,2.8696,5.021,3.5356,5.021.3155,0,.5207-.0644.6099-.1909.3509-.4981-.2521-2.1831-.784-3.6699-.3309-.9248-.6732-1.8814-.9331-2.8584a4.58446,4.58446,0,0,1,1.0072-4.8467,5.0488,5.0488,0,0,0,1.04-1.7456,6.08054,6.08054,0,0,0,.1268-1.5332c.0111-1.3941.0249-3.1294,1.4354-4.4727,1.3648-1.3012,3.7717-.0561,6.8191,1.5186,3.3648,1.7397,7.5524,3.9053,11.6743,3.4336a9.82922,9.82922,0,0,0,8.1774-5.8301c1.6528-3.7969.91-8.4063-1.987-12.3301-4.4263-5.9951-11.4105-8.2764-19.1621-6.2578-4.8609,1.2661-6.2902,3.0845-7.9453,5.1899a17.08618,17.08618,0,0,1-5.4127,4.8868,18.50171,18.50171,0,0,0-9.0207,17.9721c.3563,2.4317,1.3389,4.0616,2.6282,4.3604a.50021.50021,0,0,1-.2258.9746c-1.731-.4014-2.9673-2.293-3.3918-5.19a19.54,19.54,0,0,1,9.5143-18.9853,16.02871,16.02871,0,0,0,5.1223-4.6367c1.6933-2.1543,3.2926-4.1885,8.4795-5.5396,8.0475-2.0942,15.6059.3838,20.2186,6.6319,3.1116,4.2143,3.8964,9.1948,2.0994,13.3227a10.80375,10.80375,0,0,1-8.9809,6.4243c-4.4246.5064-8.7616-1.7363-12.2469-3.5381-2.5869-1.3374-4.8209-2.4921-5.6701-1.6835-1.1037,1.0512-1.1151,2.4887-1.1252,3.7568a6.67375,6.67375,0,0,1-.1699,1.8154,6.01081,6.01081,0,0,1-1.217,2.0816,3.639,3.639,0,0,0-.8206,3.9638c.2491.9366.5841,1.8726.9081,2.7784.7318,2.0449,1.3097,3.6601.6602,4.5825A1.63036,1.63036,0,0,1,376.09334,231.03113Z"/><path d="M395.94264,277.02143l-20.8035-15.7307-11.5251,9.5442c2.4909,6.6414,19.125,22.1157,19.125,22.1157Z"/><path d="M395.94264,277.02143l14.3758-21.5294s4.108,7.6183,4.6749,12.0121c.8185,6.3431-7.2058,22.3393-7.2058,22.3393Z"/><path fill="#fff" d="M397.55894,276.17323a.50014.50014,0,0,1-.3952-.8062c2.7929-3.6108,9.4465-13.8188,6.7309-17.6362a.50014.50014,0,0,1,.8149-.5801c3.6993,5.2007-6.3262,18.2744-6.7549,18.8286A.49984.49984,0,0,1,397.55894,276.17323Z"/><path fill="#fff" d="M395.94234,277.52133a.49828.49828,0,0,1-.3166-.1132c-.6178-.5059-1.951-1.3872-3.6388-2.5025-6.1493-4.0635-16.4414-10.8642-17.3491-15.8725a3.372,3.372,0,0,1,.571-2.6812.50007.50007,0,0,1,.8091.5879,2.37645,2.37645,0,0,0-.3962,1.915c.8315,4.5874,11.2951,11.502,16.9166,15.2168,1.7116,1.1309,3.0636,2.0244,3.7211,2.563a.5.5,0,0,1-.3171.8867Z"/><path d="M441.12824,828.044s17.1146-132.2744,18.6494-180.2432c1.5021-46.9451-.5208-123.4553-4.651-165.6816-2.2194-22.6911-12.2781-93.8753-12.2781-93.8753s-33.745,5.5521-65.5796,5.5521c0,0-13.3961,81.3436-16.1276,105.1248-4.4195,38.4763-4.8595,116.4218-7.4119,154.7395-2.846,42.725-14.9818,169.0223-14.9818,169.0223Z"/><path fill="#7e75fc" d="M381.65884,310.94453v21.0569a3.16059,3.16059,0,0,1-1.1866,2.51l-9.7897,7.5138a2.53572,2.53572,0,0,1-3.1362,0l-9.7899-7.5138a3.161,3.161,0,0,1-1.1864-2.51v-21.0569Z"/><path d="M368.86314,343.06673a3.0657,3.0657,0,0,1-1.8726-.645l-9.7899-7.5136a3.664,3.664,0,0,1-1.3819-2.9068v-8.6875a.5.5,0,0,1,1,0v8.6875a2.66,2.66,0,0,0,.9908,2.1138l9.7899,7.5137a2.02893,2.02893,0,0,0,2.5274,0l9.7897-7.5137a2.6599,2.6599,0,0,0,.991-2.1138l.2453-20.5566h-14.7187a.5.5,0,0,1,0-1h15.2246a.49971.49971,0,0,1,.5.5058l-.2513,21.0567a3.66036,3.66036,0,0,1-1.382,2.9009l-9.7897,7.5136A3.06592,3.06592,0,0,1,368.86314,343.06673Z"/><path fill="#fff" d="M440.51754,837.95633c5.7982,1.1834,9.5872-14.7361,2.7183-17.1997-8.7064-3.1227-26.104-7.7029-49.7852-8.2288-24.9802-.5546-49.1097,1.445-56.7505,5.5203-5.3068,2.8305-3.6416,19.125.7329,18.7683,14.4818-1.1808,38.5752-5.1221,63.5272-3.9778A245.03633,245.03633,0,0,1,440.51754,837.95633Z"/><path d="M441.13324,838.51993a3.55568,3.55568,0,0,1-.7157-.0738,244.13372,244.13372,0,0,0-39.4802-5.1079c-18.7517-.8623-36.6853,1.1211-51.0951,2.7134-4.7142.521-8.7854.9707-12.3686,1.2632-1.5939.1211-2.9414-1.395-3.7929-4.2935-1.4771-5.0288-1.1324-13.3252,2.7841-15.4145,7.3694-3.9302,30.2752-6.1709,56.9969-5.5791,25.901.5752,43.555,5.9668,49.9429,8.2583,4.0058,1.4365,4.7479,7.0273,3.4105,11.8071C445.88734,835.409,443.80884,838.51993,441.13324,838.51993Zm-.5158-1.0532c2.3891.4877,4.3506-2.483,5.2347-5.6431,1.2127-4.3345.6455-9.3657-2.7851-10.5962-6.342-2.2749-23.8731-7.6279-49.6275-8.1997-26.1507-.5801-49.3859,1.665-56.5041,5.4619-3.1037,1.6553-3.7935,9.1489-2.2952,14.2495.6831,2.3257,1.7102,3.6694,2.7521,3.5786,3.5689-.2905,7.6335-.7397,12.34-1.2597,14.4445-1.5962,32.4213-3.5826,51.2507-2.7188a245.02678,245.02678,0,0,1,39.6344,5.1275Z"/><path fill="#fff" d="M446.10624,425.89593a.499.499,0,0,1-.3989-.1983c-.3216-.4243-7.8766-10.519-7.8766-20.835a.5.5,0,1,1,1,0c0,9.9751,7.5971,20.1299,7.6738,20.2315a.50023.50023,0,0,1-.3983.8018Z"/><path fill="#7e75fc" d="M445.98614,858.00963a.49994.49994,0,0,1-.4161-.7763l5.9046-8.8931a.49988.49988,0,1,1,.8331.5527l-5.9046,8.8931A.49951.49951,0,0,1,445.98614,858.00963Z"/><path fill="#fff" d="M189.91724,874.75723s24.9087-16.7778,27.6787-35.5289c2.6715-18.0845-8.8203-35.4126-9.8418-53.7054-1.2756-22.8428,24.5749-47.7177,21.3747-52.4862l-47.2281-51.9049-85.4164,54.4035Z"/><path d="M189.91724,875.25723a.49984.49984,0,0,1-.4152-.2212l-93.4329-139.2217a.5004.5004,0,0,1,.1466-.7007l85.4164-54.4038a.5002.5002,0,0,1,.6385.0855l47.228,51.9048c1.4615,2.1679-1.4995,6.8022-5.9815,13.8173-6.7686,10.5938-16.0386,25.1021-15.2638,38.9776.4337,7.7666,2.8116,15.4946,5.1111,22.9677,3.083,10.0196,6.271,20.3804,4.7261,30.8389-2.7703,18.7534-26.8694,35.1802-27.894,35.8701A.4987.4987,0,0,1,189.91724,875.25723ZM97.18494,735.682l92.8642,138.3745c3.2423-2.2871,24.5409-17.9009,27.0522-34.9014,1.5118-10.2343-1.6423-20.4848-4.6926-30.3979-2.3172-7.5308-4.7133-15.3184-5.1538-23.2066-.7929-14.1972,8.5776-28.8632,15.4195-39.5717,3.8047-5.9546,7.0905-11.0972,6.0392-12.6636l-46.8993-51.5357Z"/><path fill="#7e75fc" d="M123.37664,754.28453a.49985.49985,0,0,1-.2791-.915,38.31687,38.31687,0,0,0,15.5388-20.1865c2.4293-7.8936,1.5153-15.5962-2.5737-21.689a.50008.50008,0,0,1,.8303-.5576c4.2604,6.3481,5.2189,14.3535,2.6991,22.5405a39.31686,39.31686,0,0,1-15.9373,20.7227A.49607.49607,0,0,1,123.37664,754.28453Z"/><path d="M132.03674,760.306a.49993.49993,0,0,1-.3067-.895c17.2561-13.374,23.7221-35.0864,15.0406-50.5049a.49986.49986,0,1,1,.8713-.4902c8.9231,15.8467,2.3458,38.1098-15.2993,51.7851A.49677.49677,0,0,1,132.03674,760.306Z"/><path fill="#7e75fc" d="M217.46954,831.67713a39.10345,39.10345,0,0,1-.2474,7.1479c-1.6307,11.0382-11.2272,21.7558-18.0717,27.869l-14.2424-21.2222Z"/><path d="M191.49334,843.18443a.5.5,0,0,1-.1953-.9604l21.2251-8.9947a.50008.50008,0,1,1,.3902.9209l-21.2251,8.9947A.50148.50148,0,0,1,191.49334,843.18443Z"/><path d="M195.94194,862.84413a.49973.49973,0,0,1-.4156-.2212l-86.7227-129.2231a.50015.50015,0,0,1,.8304-.5577l86.7226,129.2232a.50021.50021,0,0,1-.4147.7788Z"/><path d="M201.36434,792.71763a3.671,3.671,0,0,1-3.3828-3.1977,4.11678,4.11678,0,0,1,.4394-2.773,3.03371,3.03371,0,0,1,2.0958-1.5415,3.566,3.566,0,0,1,3.8861,3.1529,4.115,4.115,0,0,1-.4394,2.7729,3.0335,3.0335,0,0,1-2.0958,1.5415A2.84056,2.84056,0,0,1,201.36434,792.71763Zm-.3403-6.5576a1.839,1.839,0,0,0-.3293.0298,2.0504,2.0504,0,0,0-1.4054,1.0532,3.11593,3.11593,0,0,0-.3238,2.0991,2.5752,2.5752,0,0,0,2.7241,2.3462,2.05106,2.05106,0,0,0,1.4055-1.0527,3.11771,3.11771,0,0,0,.3237-2.0996A2.678,2.678,0,0,0,201.024,786.16Z"/><path d="M204.054,809.30893a3.22721,3.22721,0,0,1-1.5056-.3877,4.25578,4.25578,0,0,1-2.008-4.9062,2.95893,2.95893,0,0,1,4.3251-1.77,4.1155,4.1155,0,0,1,1.8611,2.102,3.56326,3.56326,0,0,1-1.5824,4.7476A2.86946,2.86946,0,0,1,204.054,809.30893Zm-.6954-6.4502a1.86054,1.86054,0,0,0-.71.1387,2.0491,2.0491,0,0,0-1.1557,1.3223,3.25839,3.25839,0,0,0,1.5212,3.7168,2.04728,2.04728,0,0,0,1.7512.1323,2.57383,2.57383,0,0,0,1.0359-3.4429,3.11892,3.11892,0,0,0-1.4014-1.5962A2.2379,2.2379,0,0,0,203.35864,802.85873Z"/><path d="M211.59364,825.23963a3.333,3.333,0,0,1-1.1361-.2061,4.11749,4.11749,0,0,1-2.1308-1.8281,3.563,3.563,0,0,1,.919-4.9194,3.03306,3.03306,0,0,1,2.595-.1831,4.11808,4.11808,0,0,1,2.1309,1.8281,3.56312,3.56312,0,0,1-.9191,4.9194A2.88991,2.88991,0,0,1,211.59364,825.23963Zm-.8865-6.3413a1.89483,1.89483,0,0,0-.9597.2529,2.574,2.574,0,0,0-.5558,3.5523,3.11631,3.11631,0,0,0,1.6063,1.3896,2.04923,2.04923,0,0,0,1.7529-.1079,2.57386,2.57386,0,0,0,.5558-3.5522,3.11606,3.11606,0,0,0-1.6063-1.3897A2.33358,2.33358,0,0,0,210.70714,818.89833Z"/><path fill="#7e75fc" d="M229.28844,808.00773a4.3594,4.3594,0,0,1-1.033-.128c-6.9809-1.6987-14.5309-20.4594-14.8488-21.2573a.49984.49984,0,0,1,.7071-.6221c.7614.4224,18.6552,10.4307,19.3835,17.4278a3.86891,3.86891,0,0,1-1.4343,3.4717A4.16645,4.16645,0,0,1,229.28844,808.00773Zm-14.3827-20.3955c1.8898,4.3911,8.1326,17.9692,13.5862,19.2959a3.09738,3.09738,0,0,0,2.916-.7642,2.88358,2.88358,0,0,0,1.0947-2.6123C231.93444,798.07073,219.05864,790.06143,214.90574,787.61223Z"/><path fill="#7e75fc" d="M230.21884,790.44963c-6.5818,0-16.0035-3.357-16.5171-3.542a.49981.49981,0,1,1,.3387-.9405c.1589.0567,15.9471,5.6846,20.4706,2.5625a2.49839,2.49839,0,0,0,1.1079-2.1587,2.302,2.302,0,0,0-.8622-1.9643c-1.8428-1.4756-6.7233-1.3525-13.7425.3452a.49989.49989,0,1,1-.2353-.9717c7.5395-1.8237,12.4527-1.8759,14.6029-.1543a3.28679,3.28679,0,0,1,1.237,2.7627,3.48008,3.48008,0,0,1-1.5399,2.9644A8.75564,8.75564,0,0,1,230.21884,790.44963Z"/><path fill="#7e75fc" d="M211.14954,822.06823a.49981.49981,0,0,1-.2302-.9438l7.8764-4.0757a.49981.49981,0,1,1,.4596.8877l-7.8764,4.0757A.49827.49827,0,0,1,211.14954,822.06823Z"/><path fill="#7e75fc" d="M203.70674,806.08293a.4999.4999,0,0,1-.1408-.9795l10.2372-3.0103a.49982.49982,0,1,1,.2821.959l-10.2372,3.0103A.49053.49053,0,0,1,203.70674,806.08293Z"/><path fill="#7e75fc" d="M201.06534,789.52383a.49993.49993,0,0,1-.029-.999l10.652-.6294a.50614.50614,0,0,1,.5286.4697.49977.49977,0,0,1-.4697.5283l-10.6519.6294Z"/><path d="M219.04624,766.21843s90.3282-62.3601,127.0137-93.3041c55.0157-46.4054,49.3483-182.6881,49.3483-182.6881l-10.9044-96.4453-72.6733-1.6708s-23.7154,52.9699-24.0475,101.3115c-.2444,35.5658,2.7026,74.8195-25.2621,101.1393-39.6135,37.2835-108.757,92.6084-108.757,92.6084Z"/><path fill="#fff" d="M356.659,662.32363a.50017.50017,0,0,1-.3889-.814c40.4024-50.1025,39.1863-152.6919,38.5323-172.749a.49946.49946,0,0,1,.4834-.5156.49131.49131,0,0,1,.516.4834c.6561,20.1186,1.871,123.0312-38.7533,173.4092A.49889.49889,0,0,1,356.659,662.32363Z"/><path fill="#fff" d="M317.86344,449.70643a.54617.54617,0,0,1-.0739-.0054.50016.50016,0,0,1-.4213-.5678q.43695-2.95245.925-5.9361a.49994.49994,0,1,1,.9868.1612q-.48705,2.97645-.9226,5.9213A.49986.49986,0,0,1,317.86344,449.70643Z"/><path fill="#fff" d="M205.82894,682.47453a.5.5,0,0,1-.2983-.9014c3.008-2.2319,6.0887-4.5796,9.1568-6.978a.50011.50011,0,1,1,.6159.7881c-3.0747,2.4033-6.1622,4.7563-9.1768,6.9926A.49845.49845,0,0,1,205.82894,682.47453Zm18.1649-14.187a.49991.49991,0,0,1-.317-.8868c2.9043-2.3779,5.8769-4.8623,8.8351-7.3852a.49993.49993,0,0,1,.6489.7607c-2.9633,2.5274-5.9411,5.0161-8.8506,7.398A.49786.49786,0,0,1,223.99384,668.28753Zm17.543-14.9512a.50012.50012,0,0,1-.3315-.8745c2.8139-2.4893,5.6949-5.0806,8.5629-7.7022a.50008.50008,0,0,1,.6747.7383c-2.872,2.6255-5.7571,5.2202-8.575,7.7129A.49891.49891,0,0,1,241.53684,653.33633Zm17.0167-15.5479a.49985.49985,0,0,1-.3429-.8637c2.753-2.5933,5.556-5.2701,8.3312-7.9551a.5.5,0,0,1,.6954.7187c-2.7785,2.6885-5.5847,5.3677-8.341,7.9639A.49679.49679,0,0,1,258.55354,637.78843Zm16.5686-16.0254a.49995.49995,0,0,1-.3521-.8549q4.0038-3.97125,8.1326-8.1597a.50008.50008,0,0,1,.7123.7021q-4.13355,4.19385-8.1407,8.1675A.49825.49825,0,0,1,275.12214,621.763Zm16.1837-16.4155a.49984.49984,0,0,1-.3596-.8472q3.37875-3.50025,6.8401-7.1464.54885-.578,1.0662-1.1914a.49988.49988,0,1,1,.7643.6445q-.5367.63645-1.1054,1.2353-3.46425,3.64965-6.8458,7.1524A.49885.49885,0,0,1,291.30584,605.34753Zm13.6839-18.2666a.49959.49959,0,0,1-.464-.686,65.65476,65.65476,0,0,0,3.2062-10.9575.50007.50007,0,0,1,.9787.206,66.64637,66.64637,0,0,1-3.2566,11.1235A.49992.49992,0,0,1,304.98974,587.08093Zm5.029-22.4209a.47839.47839,0,0,1-.0583-.0034.49984.49984,0,0,1-.439-.5542c.3988-3.4375.7312-7.1856,1.0162-11.4575a.5.5,0,1,1,.9978.0664c-.2861,4.2886-.62,8.0522-1.0207,11.5063A.49989.49989,0,0,1,310.01874,564.66Zm1.6263-22.9941a.50451.50451,0,0,1-.4999-.521q.23415-5.57085.4176-11.5166a.48233.48233,0,0,1,.516-.4834.49975.49975,0,0,1,.4836.5156q-.1935,5.9472-.4181,11.5264A.50023.50023,0,0,1,311.645,541.66593Zm.7885-23.045a.50338.50338,0,0,1-.5001-.5166q.187-5.62935.4233-11.5244a.49237.49237,0,0,1,.5202-.479.49981.49981,0,0,1,.479.52q-.24315,5.88795-.423,11.5167A.5.5,0,0,1,312.43354,518.62093Zm.9729-23.0351a.506.506,0,0,1-.4997-.5274c.2211-4.02.4612-7.7861.734-11.5146a.5.5,0,0,1,.9973.0732c-.2723,3.7222-.512,7.4825-.7327,11.4961A.50008.50008,0,0,1,313.40644,495.58583Zm1.6966-22.9932a.5093.5093,0,0,1-.4984-.5473c.3693-3.8843.7838-7.7442,1.232-11.4732a.5.5,0,1,1,.9929.1192c-.4472,3.7207-.8608,7.5727-1.2294,11.4487A.5.5,0,0,1,315.103,472.59263Z"/><path fill="#fff" d="M191.49364,692.63763a.50017.50017,0,0,1-.2803-.9146q2.4306-1.6413,4.9358-3.3906a.49987.49987,0,1,1,.5729.8193q-2.5119,1.75635-4.949,3.4004A.50014.50014,0,0,1,191.49364,692.63763Z"/><path fill="#fff" d="M211.09974,776.17723c3.532,5.0712,16.0467-4.4983,13.313-11.5894-3.465-8.9882-10.5372-19.7566-27.0382-42.2718-15.4244-21.0462-32.5929-36.2399-40.031-41.1842-6.2871-4.1792-18.4982,9.293-14.3164,13.2582,10.6402,10.0891,29.0929,28.5233,43.2289,46.5855C195.91494,753.31713,201.65774,762.62013,211.09974,776.17723Z"/><path d="M214.02424,778.10583a3.86757,3.86757,0,0,1-3.3348-1.6431c-2.8815-4.1372-5.3955-7.8442-7.8266-11.4292-5.5258-8.1484-10.298-15.1855-17.0005-23.75-15.3031-19.5532-35.2945-39.0542-43.1793-46.5307-1.8056-1.7119-1.1151-5.1494,1.759-8.7569,3.5455-4.4497,9.3692-7.812,13.1783-5.2807,7.7486,5.1509,24.8374,20.4014,40.1574,41.3052,17.1866,23.4506,23.772,33.7505,27.1016,42.3877,1.7026,4.4165-2.1845,10.0551-6.8833,12.5503A8.66644,8.66644,0,0,1,214.02424,778.10583Zm-59.3991-97.2529c-3.057,0-6.835,2.5459-9.401,5.7661-2.0705,2.5986-3.4464,5.8975-1.8529,7.4082,7.9009,7.4917,27.9343,27.0342,43.2786,46.6401,6.7234,8.5909,11.5046,15.6411,17.0407,23.8047,2.4294,3.5825,4.9415,7.2871,7.8195,11.4195,1.5941,2.2885,5.0084.7187,6.017.1836,4.3207-2.2945,7.9311-7.3853,6.4192-11.3077-3.2934-8.5429-9.8481-18.7861-26.975-42.1562-15.243-20.7984-32.2154-35.9522-39.9045-41.063A4.32881,4.32881,0,0,0,154.62514,680.85293Z"/><path fill="#b0602b" d="M331.35724,439.07053s11.6583,1.8576,17.4154-8.2059c6.1126-10.6847,7.0661-15.3547,7.0661-15.3547L339.288,411.586Z"/><path fill="#473929" d="M334.36574,439.13663a13.56943,13.56943,0,0,1-2.2344-.1602.50006.50006,0,0,1,.1874-.9824c.0933.0176,9.3765,1.6665,14.8087-6.5864,5.0229-7.6309,5.9106-10.8003,5.919-10.8316a.50006.50006,0,0,1,.9667.2564c-.0348.1318-.909,3.3139-6.0504,11.125A15.85334,15.85334,0,0,1,334.36574,439.13663Z"/><path fill="#fff" d="M377.26894,406.28353c-26.2624,0-50.9057-2.895-67.6109-7.9433a.49989.49989,0,1,1,.2893-.957c16.6153,5.021,41.153,7.9003,67.3216,7.9003,24.6486,0,48.2445-2.6079,64.7376-7.1547a.49988.49988,0,1,1,.2657.9638C425.69634,403.66253,402.00354,406.28353,377.26894,406.28353Z"/><path fill="#fff" d="M367.63234,781.32783c-17.1098-4.2228-37.6992-10.4519-53.3347-17.5185-11.1794-5.0526-15.9588-11.2591-12.7629-24.11,44.7101-179.7811,133.3989-386.6014,200.1299-583.4253,23.2191-23.3948,43.9017-47.2426,68.0455-69.7007a4.61155,4.61155,0,0,1,7.7004,2.7551c4.3164,31.2109,7.3158,62.4653,12.3071,93.6825-56.032,201.3097-131.8062,392.2224-198.836,586.8045C386.37094,782.90943,379.866,784.34723,367.63234,781.32783Z"/><path fill="#7e75fc" d="M583.55354,136.33313q-2.8236-23.64855-6.1353-47.2072a4.60936,4.60936,0,0,0-7.6459-2.7752c-12.4876,11.2424-24.5506,22.7247-36.0867,35.0432C556.01114,123.17223,568.001,126.98693,583.55354,136.33313Z"/><path fill="#7e75fc" d="M399.825,745.95173c-3.0777,7.2672-4.7158,17.6126-8.2674,24.1803-5.8139,10.7515-11.8352,15.1344-24.0683,11.5045-17.1091-5.0767-36.9871-11.1071-53.5772-17.601-11.8618-4.6432-12.0944-12.2817-11.3928-23.9001.4285-7.0968,4.1223-16.4577,5.437-23.8725C338.84114,725.50373,369.218,735.82043,399.825,745.95173Z"/><path fill="#7e75fc" d="M589.59734,183.36613a.49954.49954,0,0,1-.2201-.0513c-29.2476-14.3701-53.0707-21.6025-87.8993-26.6856a.49983.49983,0,1,1,.1443-.9892c34.942,5.0991,58.8456,12.3564,88.1959,26.7773a.5.5,0,0,1-.2208.9488Z"/><path fill="#7e75fc" d="M589.597,183.36613a.5.5,0,0,1-.4936-.4244c-2.82-18.4086-5.1172-37.2026-7.3388-55.3779-1.5311-12.5259-3.1143-25.4785-4.8548-38.1914a4.11114,4.11114,0,0,0-6.8443-2.4863c-20.7202,18.9614-38.9597,38.4516-60.6512,61.9604a.49984.49984,0,1,1-.7349-.6777c21.7077-23.5269,39.962-43.0322,60.7111-62.02a5.11076,5.11076,0,0,1,8.51,3.0879c1.7415,12.7202,3.3252,25.6762,4.8567,38.206,2.2207,18.1675,4.517,36.9541,7.3347,55.3477a.49976.49976,0,0,1-.4186.5698A.50676.50676,0,0,1,589.597,183.36613Z"/><path d="M407.67844,610.57363a.4996.4996,0,0,1-.4796-.6421c21.9292-73.9258,47.9066-139.377,75.4093-208.6709,5.1652-13.0142,10.5063-26.4712,15.8238-39.9971a.5.5,0,0,1,.9306.3662c-5.3181,13.5274-10.6595,26.9849-15.825,40-27.4942,69.2725-53.4635,134.7037-75.3799,208.586A.50025.50025,0,0,1,407.67844,610.57363Z"/><path d="M362.38014,648.202a.49472.49472,0,0,1-.1471-.022.5002.5002,0,0,1-.3311-.625c20.7676-67.6084,46.1251-133.6518,70.6476-197.521,22.7529-59.2597,46.2805-120.5371,66.0034-182.7417a.5.5,0,0,1,.9532.3023c-19.7319,62.2329-43.2649,123.5244-66.0231,182.7978-24.5165,63.8535-49.8676,129.8804-70.6252,197.4566A.50011.50011,0,0,1,362.38014,648.202Z"/><path d="M376.71334,783.21033a38.51318,38.51318,0,0,1-9.3486-1.4365c-14.7575-3.7847-36.3614-9.7305-53.5199-17.6304-11.9207-5.4883-14.382-10.6719-11.4508-24.1147,25.5682-117.2618,70.5466-235.2442,114.044-349.3418,25.3673-66.541,51.5983-135.3472,73.4309-202.7119a.5.5,0,0,1,.9513.3085c-21.8405,67.3887-48.076,136.2071-73.4478,202.7593-43.4843,114.0635-88.4491,232.0103-114.0013,349.1988-2.8302,12.9794-.5907,17.707,10.892,22.9936,17.0847,7.8662,38.6302,13.7949,53.3501,17.5698,11.6075,2.9781,18.7397,2.1089,23.1799-10.9829,21.1772-62.438,44.4452-126.7602,66.947-188.9648,46.3751-128.2002,94.3291-260.7647,129.0014-389.9644a.49994.49994,0,1,1,.9658.2588c-34.6833,129.2407-82.6446,261.8262-129.0269,390.0459-22.5001,62.1997-45.7663,126.5171-66.9404,188.9458C388.42754,779.91,383.532,783.21033,376.71334,783.21033Z"/><path d="M390.868,743.42123a.49859.49859,0,0,1-.1604-.0263l-.3604-.1221c-13.8669-4.6953-28.2059-9.5503-42.3944-14.0688a.50016.50016,0,0,1,.3034-.9532c14.1972,4.5215,28.5406,9.378,42.4117,14.0747l.3604.1221a.5.5,0,0,1-.1603.9736Z"/><path fill="#7e75fc" d="M562.28014,162.05313a.51009.51009,0,0,1-.0764-.0059.49988.49988,0,0,1-.4184-.5698c2.5423-16.5737,5.4974-33.3555,8.3551-49.5845l.6513-3.7002a.5.5,0,1,1,.9849.1729l-.6514,3.7007c-2.8568,16.2236-5.8108,33-8.3514,49.5625A.50008.50008,0,0,1,562.28014,162.05313Z"/><path fill="#7e75fc" d="M543.18354,141.25133a.49976.49976,0,0,1-.4457-.7261c8.1389-16.0732,16.7744-32.0903,25.6667-47.6054a.5.5,0,0,1,.8677.497c-8.8838,15.5005-17.5111,31.502-25.6423,47.5606A.49976.49976,0,0,1,543.18354,141.25133Z"/><path fill="#fff" d="M337.37044,306.29313a452.44156,452.44156,0,0,0-.0934,77.7793,281.08412,281.08412,0,0,0,38.4665,22.4473c13.0552,6.1405,29.0023,13.8728,29.0023,13.8728l-16.3335,49.8171a4.03028,4.03028,0,0,1-5.3919,2.3736c-16.5477-6.8163-115.2551-22.9992-114.0676-60.4492.8124-25.6189,20.7539-107.1427,46.2226-137.4948C327.41254,260.05583,340.76954,269.25413,337.37044,306.29313Z"/><path fill="#7e75fc" d="M396.64064,431.74983s23.4685,1.3298,30.9409,3.6451c9.7207,3.0119,25.7685,15.4409,23.3017,19.2957-3.4219,5.3474-22.4717-6.079-22.7272-1.9436-.2957,4.7854,13.8822,12.75,18.6491,13.9575,13.8652,3.5122,27.6783-1.9695,27.9329,5.0055.1803,4.9429-9.8964,7.5383-9.8964,7.5383-1.2461,2.5106-5.4266,5.4606-8.8329,7.7466-9.1413,6.1348-24.6217,4.6485-35.4507-.4707-11.7871-5.5722-43.236-26.0929-43.236-26.0929Z"/><path fill="#7e75fc" d="M375.72594,407.01453a.49718.49718,0,0,1-.2306-.0566,520.73254,520.73254,0,0,1-47.6934-27.8384.50012.50012,0,0,1,.5638-.8262,519.74877,519.74877,0,0,0,47.5916,27.7778.5.5,0,0,1-.2314.9434Z"/><path fill="#7e75fc" d="M333.32464,382.63713a.48181.48181,0,0,1-.12-.0147.49978.49978,0,0,1-.3658-.605c.1025-.416,10.2358-42.0132,8.4918-77.1899a.50022.50022,0,0,1,.4746-.5244.50636.50636,0,0,1,.5242.4746c1.7514,35.3257-8.4167,77.0615-8.5197,77.479A.5001.5001,0,0,1,333.32464,382.63713Z"/><path d="M331.93194,458.68343a.50006.50006,0,0,1-.1583-.0258c-66.496-22.1905-64.7723-37.1392-62.3868-57.8286l.2298-2.0137c2.0212-18.0816,22.4533-99.0352,45.1857-124.5093a.50006.50006,0,0,1,.7461.666c-22.5974,25.3228-42.9244,105.9409-44.938,123.9546l-.2302,2.0171c-2.3316,20.2212-4.0162,34.8315,61.7099,56.7656a.49988.49988,0,0,1-.1582.9741Z"/><path fill="#fff" d="M405.98684,419.843l-19.9315-9.6769a4.28512,4.28512,0,0,0-4.8199.7118c-6.8573,6.5634-27.2594,28.4632-22.4803,52.6639a4.763,4.763,0,0,0,3.0544,3.4851l21.5889,8.0268a3.99484,3.99484,0,0,0,5.41-3.1028c2.909-21.6841,13.4842-38.3427,18.8881-45.6528A4.32168,4.32168,0,0,0,405.98684,419.843Z"/><path d="M384.86054,475.81923a4.68847,4.68847,0,0,1-1.6364-.2969l-21.4359-7.9697a5.199,5.199,0,0,1-3.4157-4.1118c-1.7007-12.4434.8212-31.7168,22.494-52.8692a4.7933,4.7933,0,0,1,5.4303-.8442l19.9084,9.666a4.96571,4.96571,0,0,1,2.6784,3.2754,4.69925,4.69925,0,0,1-.785,3.9268c-5.7951,7.8388-15.9428,24.164-18.7947,45.4218a4.33508,4.33508,0,0,1-2.0863,3.148A4.57362,4.57362,0,0,1,384.86054,475.81923Zm-.6868-65.5811a3.72683,3.72683,0,0,0-2.6088,1.0494c-21.3747,20.8613-23.8712,39.8022-22.2016,52.0175a4.20129,4.20129,0,0,0,2.7734,3.3101l21.4359,7.9697a3.60845,3.60845,0,0,0,3.1303-.2768,3.3396,3.3396,0,0,0,1.6099-2.4234c2.8816-21.4795,13.1295-37.9673,18.9817-45.8838a3.70076,3.70076,0,0,0,.618-3.0932,3.96841,3.96841,0,0,0-2.1441-2.6148l-19.9084-9.666A3.8618,3.8618,0,0,0,384.17374,410.23813Z"/><path fill="#7e75fc" d="M392.46284,423.17343c1.5024.6078,3.0962.2053,3.5599-.8992s-.3782-2.4927-1.8805-3.1005-3.0962-.2053-3.56.8992S390.96054,422.56553,392.46284,423.17343Z"/><path d="M446.80964,479.66733a49.69922,49.69922,0,0,1-5.9731-.2729c-3.6043-.4819-7.8563-2.5059-10.9609-3.9834a25.45321,25.45321,0,0,0-3.3074-1.4326.50022.50022,0,0,1,.2381-.9717,24.84617,24.84617,0,0,1,3.4991,1.501c3.0448,1.4497,7.2149,3.434,10.6637,3.8955,4.9176.6572,17.4857-.1343,17.6121-.1426a.5.5,0,1,1,.0637.998C458.28124,479.28213,452.16764,479.66733,446.80964,479.66733Z"/><path d="M447.245,486.12053a57.90827,57.90827,0,0,1-17.8852-2.7398.50013.50013,0,0,1,.327-.9453,57.77424,57.77424,0,0,0,19.1975,2.6543.50023.50023,0,0,1,.054.999C448.91364,486.08973,448.29714,486.12053,447.245,486.12053Z"/><path d="M878.27814,915.19913H106.12444a.5.5,0,0,1,0-1h772.1537a.5.5,0,0,1,0,1Z"/><path fill="#7e75fc" d="M561.59094,279.551s9.4023-20.7624-6.7886-38.2803c-10.1989-11.0347-11.9227-19.4768-9.2465-24.9823a10.67293,10.67293,0,0,1,10.5377-5.3648s1.7848-3.0232,7.0792-1.6131a29.17744,29.17744,0,0,1,16.3093,11.57l2.6769-9.5822c12.4226,11.6271,12.4289,29.2337,10.047,42.1804-2.1535,11.7053-11.7059,36.1425-11.7059,36.1425s-6.6099-3.0675-9.5017-4.5774C568.50364,283.74133,561.59094,279.551,561.59094,279.551Z"/><path d="M574.819,225.74693a.49881.49881,0,0,1-.3831-.1782,43.87961,43.87961,0,0,0-12.264-9.5688.50014.50014,0,0,1,.4455-.8956,44.118,44.118,0,0,1,12.5841,9.8208.5.5,0,0,1-.3825.8218Z"/><path d="M568.60694,230.59413a.49894.49894,0,0,1-.383-.1782,43.93008,43.93008,0,0,0-12.2639-9.5684.5001.5001,0,0,1,.4455-.8955,44.11028,44.11028,0,0,1,12.584,9.8203.5001.5001,0,0,1-.3826.8218Z"/><path fill="#7e75fc" d="M715.92194,425.73423a30.50489,30.50489,0,0,1-14.3427-3.3169,39.571,39.571,0,0,1-19.8316-26.9751c-2.5751-12.1235.1601-24.8364,7.3166-34.0068,14.3016-18.3262,47.0472-22.2622,66.1093-7.9463,12.5831,9.4507,19.594,21.2129,20.2746,34.0156.6605,12.4268-4.8625,24.7583-15.5519,34.7242a1,1,0,1,1-1.3637-1.4629c10.2489-9.5552,15.547-21.3296,14.9184-33.1548-.6482-12.1929-7.3838-23.439-19.4786-32.5225-17.9313-13.4673-49.893-9.643-63.3314,7.5772-6.7975,8.7104-9.3908,20.8081-6.937,32.3608a37.58021,37.58021,0,0,0,18.8157,25.626c12.31,6.5581,31.34,2.3818,41.5552-9.1206,6.1272-6.8994,13.9824-21.957-2.2503-45.2842a1,1,0,0,1,1.6416-1.1426c12.4283,17.8604,13.1952,35.2661,2.1041,47.7549C738.27594,421.07363,726.69494,425.73373,715.92194,425.73423Z"/><path d="M799.94034,392.88173a.99917.99917,0,0,1-.3552-.0659c-3.5049-1.3321-5.5883-2.1836-5.6089-2.1924a.99983.99983,0,1,1,.7576-1.8506c.0205.0083,2.0832.8511,5.562,2.1738a1.00025,1.00025,0,0,1-.3555,1.9351Z"/><path d="M963.02234,426.34313a.99722.99722,0,0,1-.2924-.0439c-3.7741-1.1529-7.6264-2.2681-11.4498-3.315a.99986.99986,0,1,1,.5282-1.9287c3.8421,1.0518,7.7132,2.1724,11.5058,3.3306a1.00037,1.00037,0,0,1-.2918,1.957Zm-23.046-6.3061a1.001,1.001,0,0,1-.2358-.0279c-3.9119-.9458-7.8228-1.8252-11.6239-2.6142a.99985.99985,0,1,1,.4062-1.958c3.8224.7929,7.7548,1.6772,11.6876,2.6279a1.0001,1.0001,0,0,1-.2341,1.9722Zm-23.3945-4.8374a.9851.9851,0,0,1-.1684-.0142c-3.9901-.6763-7.9516-1.2637-11.7746-1.7451a1,1,0,1,1,.25-1.9844c3.8511.4854,7.8409,1.0767,11.8589,1.7578a1,1,0,0,1-.1659,1.9859Zm-23.703-2.9522c-.025,0-.0503-.001-.0756-.0029-4.0731-.3042-8.066-.4824-11.8677-.5293a.99993.99993,0,0,1-.9875-1.0122,1.04322,1.04322,0,0,1,1.0122-.9878c3.843.0474,7.8777.2275,11.9919.5351a.99993.99993,0,0,1-.0733,1.9971Zm-23.8624-.9365c-.0308,0-.0617-.0015-.0929-.0044-3.6597-.3374-7.6684-.8955-11.9147-1.6587a1.00011,1.00011,0,0,1,.3537-1.9687c4.1902.7534,8.1418,1.3037,11.7446,1.6362a.99991.99991,0,0,1-.0907,1.9956Zm-23.5195-4.1099a1.00745,1.00745,0,0,1-.2327-.0273c-3.6923-.8799-7.5949-1.8994-11.5994-3.0293a1,1,0,0,1,.5432-1.9248c3.9783,1.1225,7.8541,2.1347,11.52,3.0088a.99991.99991,0,0,1-.2311,1.9726Zm-23.0031-6.456a1.00824,1.00824,0,0,1-.303-.0474c-3.7221-1.1826-7.5447-2.457-11.3619-3.7881a1.00007,1.00007,0,0,1,.6586-1.8886c3.7996,1.3251,7.6044,2.5937,11.3088,3.7705a1.00034,1.00034,0,0,1-.3025,1.9536Z"/><path d="M979.98914,431.98863a1.00467,1.00467,0,0,1-.3523-.0644c-.0201-.0078-2.062-.7749-5.6225-1.9883a1.00025,1.00025,0,0,1,.6452-1.8936c3.594,1.2251,5.6617,2.0025,5.6822,2.0098a1.00041,1.00041,0,0,1-.3526,1.9365Z"/><path d="M797.52,426.14293a1.00175,1.00175,0,0,1-.271-.0376l-5.7735-1.6216a1,1,0,0,1,.5402-1.9257l5.7743,1.6215a1.0004,1.0004,0,0,1-.27,1.9634Z"/><path d="M962.09134,458.08533c-.0177,0-.0354-.0005-.0533-.0015-4.0173-.2109-8.0592-.4506-12.0138-.7114a1.00022,1.00022,0,0,1,.1318-1.9961c3.9456.2608,7.9786.4995,11.9869.7105a.99994.99994,0,0,1-.0516,1.9985Zm-23.9888-1.5869c-.0269,0-.0539-.001-.0813-.0034-4.0824-.3282-8.1162-.6841-11.9893-1.0576a1.00027,1.00027,0,0,1,.1921-1.9913c3.8627.3731,7.8857.7281,11.9576,1.0557a.9999.9999,0,0,1-.0791,1.9966Zm-23.9261-2.3208a.94868.94868,0,0,1-.1161-.0068c-4.1288-.4776-8.1494-.9878-11.9503-1.5176a.99981.99981,0,1,1,.2759-1.9805c3.7856.5269,7.7909,1.0357,11.9041,1.5117a.9999.9999,0,0,1-.1136,1.9932Zm-23.8065-3.3423a.98655.98655,0,0,1-.1686-.0142c-4.1758-.7089-8.162-1.4668-11.8483-2.2524a1,1,0,0,1,.417-1.9561c3.6591.7798,7.6177,1.5323,11.766,2.2369a1,1,0,0,1-.1661,1.9858Zm-23.4827-5.0923a1.01,1.01,0,0,1-.2722-.0381l-.5342-.1513c-3.5102-1.0005-7.2161-2.0542-11.0243-3.1353a.99992.99992,0,1,1,.5462-1.9238c3.8089,1.081,7.5155,2.1347,11.0258,3.1352l.5299.1504a1.00029,1.00029,0,0,1-.2712,1.9629ZM843.77,439.181a1.01545,1.01545,0,0,1-.2728-.0381l-11.5619-3.268a1,1,0,0,1,.5435-1.9248l11.5631,3.268a1.00041,1.00041,0,0,1-.2719,1.9629Zm-23.1263-6.5303a.98784.98784,0,0,1-.2718-.0381l-11.5658-3.2573a.99983.99983,0,1,1,.542-1.9248l11.5663,3.2573a1.00022,1.00022,0,0,1-.2707,1.9629Z"/><path d="M979.98974,458.82413c-.0244-.0005-2.2092-.0528-6.0321-.1978a1.00022,1.00022,0,0,1,.076-1.999c3.8015.1445,5.9756.1968,5.9796.1973a.99989.99989,0,0,1-.0235,1.9995Z"/><path d="M720.67134,407.39933a.976.976,0,0,1-.1065-.0059.99949.99949,0,0,1-.7711-.5146l-15.2628-27.9141a1.00016,1.00016,0,0,1,1.7549-.96l14.5869,26.6787c6.1179-6.6499,40.6533-42.2866,79.8856-44.6494a.99986.99986,0,1,1,.1204,1.9961c-42.2164,2.543-79.0839,44.5991-79.4515,45.0235A1,1,0,0,1,720.67134,407.39933Z"/><path fill="#7e75fc" d="M694.53224,559.90323a51.33579,51.33579,0,0,1-11.2398-1.2876,40.59463,40.59463,0,0,1-30.6418-29.3003,41.50286,41.50286,0,0,1,11.2284-41.2871c17.4726-16.5567,42.1634-18.374,60.0438-4.4209,18.5876,14.5053,17.1783,50.4101,3.0311,68.539a1,1,0,1,1-1.5767-1.2304c13.6047-17.4336,15.0684-51.8775-2.6848-65.7315-17.0817-13.3305-40.7009-11.5635-57.4378,4.2959a39.5062,39.5062,0,0,0-10.6757,39.3042,38.62421,38.62421,0,0,0,29.1519,27.8799c15.2338,3.4238,29.1134-.3618,36.2226-9.8799,8.1606-10.9262,6.4685-28.0327-4.7646-48.1684a1.00006,1.00006,0,1,1,1.7466-.9746c11.6405,20.8662,13.2814,38.7436,4.6204,50.3398C715.79324,555.69663,705.94874,559.90273,694.53224,559.90323Z"/><path d="M777.39224,522.34653a.99832.99832,0,0,1-.382-.0766c-3.5521-1.4698-5.4642-2.397-5.5439-2.4356a1.00014,1.00014,0,0,1,.8749-1.7988c.019.0093,1.9446.9429,5.4337,2.3867a1.00019,1.00019,0,0,1-.3827,1.9243Z"/><path d="M911.52294,549.50523a.98918.98918,0,0,1-.2307-.0268c-3.5932-.8487-7.3426-1.6724-11.1444-2.4478a1.00014,1.00014,0,0,1,.3999-1.9599c3.8216.7797,7.5912,1.6079,11.2042,2.4614a.99991.99991,0,0,1-.229,1.9731Zm-22.4145-4.5835a1.01416,1.01416,0,0,1-.1742-.0151c-3.6886-.6475-7.4795-1.2612-11.2673-1.8237a1.00014,1.00014,0,0,1,.2937-1.9786c3.8051.5655,7.6136,1.1817,11.3195,1.8326a.99992.99992,0,0,1-.1717,1.9848Zm-22.6299-3.3652a1.04561,1.04561,0,0,1-.123-.0073c-3.7537-.461-7.5712-.8809-11.3467-1.2491a.99982.99982,0,1,1,.1941-1.9902c3.7918.3696,7.6261.7915,11.3962,1.2539a1.00008,1.00008,0,0,1-.1206,1.9927Zm-22.7578-2.3608a1.01807,1.01807,0,0,1-.1151-.0064c-3.7616-.4316-7.5895-.96-11.3773-1.5703a1,1,0,1,1,.3183-1.9746c3.758.6059,7.5553,1.1299,11.2868,1.5576a1.00011,1.00011,0,0,1-.1127,1.9937Zm-22.5829-3.6353a1.00083,1.00083,0,0,1-.2037-.021c-3.7293-.772-7.4947-1.6377-11.1918-2.5727a.9998.9998,0,1,1,.4905-1.9385c3.6691.9277,7.4059,1.7866,11.1068,2.5532a.99988.99988,0,0,1-.2018,1.979Zm-22.1771-5.6099a1.017,1.017,0,0,1-.2879-.0424c-3.7027-1.1119-7.3781-2.3067-10.924-3.5518a.99983.99983,0,1,1,.6626-1.8867c3.5171,1.2348,7.1629,2.4199,10.8364,3.5224a1.00041,1.00041,0,0,1-.2871,1.9585Z"/><path d="M928.36444,554.03753a1.00656,1.00656,0,0,1-.3119-.0503c-.0198-.0064-2.0203-.6607-5.7067-1.6841a.99983.99983,0,1,1,.5349-1.9268c3.7372,1.0371,5.7132,1.6836,5.7954,1.7105a1.00035,1.00035,0,0,1-.3117,1.9507Z"/><path d="M782.48214,551.43a.99143.99143,0,0,1-.2697-.0376c-3.6797-1.0278-5.778-1.6372-5.778-1.6372a1.00014,1.00014,0,0,1,.5579-1.9209c.0028.001,2.0936.6084,5.7583,1.6324a1.00013,1.00013,0,0,1-.2685,1.9633Z"/><path d="M854.06594,568.78353a1.00914,1.00914,0,0,1-.1938-.0185c-3.8283-.7524-7.8816-1.5899-12.0475-2.4898a1,1,0,0,1,.4223-1.955c4.1536.8974,8.1946,1.7324,12.0107,2.4819a1.00009,1.00009,0,0,1-.1917,1.9814Zm-24.0106-5.1704a1.00875,1.00875,0,0,1-.2266-.0258c-3.8762-.898-7.8991-1.8575-11.957-2.8516a.99991.99991,0,1,1,.4758-1.9424c4.0498.9917,8.0646,1.9492,11.9326,2.8457a.99994.99994,0,0,1-.2248,1.9741Zm-23.8562-5.8359a1.002,1.002,0,0,1-.2493-.0317c-4.3121-1.1065-8.3133-2.1592-11.8894-3.1163a.99978.99978,0,1,1,.5169-1.9316c3.5702.9551,7.5648,2.0059,11.8696,3.1104a1.00033,1.00033,0,0,1-.2478,1.9692Z"/><path d="M872.04964,571.971a1.03241,1.03241,0,0,1-.1539-.0117q-2.9199-.4512-5.9293-.9653a1.00012,1.00012,0,0,1,.3367-1.9717q2.9892.51045,5.8978.9605a.99995.99995,0,0,1-.1513,1.9882Z"/><path d="M689.42964,542.12443a1.05892,1.05892,0,0,1-.1178-.0069.99907.99907,0,0,1-.7555-.5058l-20.3843-36.5113a.99993.99993,0,0,1,1.7463-.9746l19.7211,35.3233c5.9083-6.1568,38.4443-38.9385,69.5967-47.9932a1.00017,1.00017,0,0,1,.5581,1.9209c-33.7171,9.7998-69.2744,48.0405-69.6297,48.4253A1.0002,1.0002,0,0,1,689.42964,542.12443Z"/><path fill="#7e75fc" d="M664.723,685.20883a31.1723,31.1723,0,0,1-3.6645-.2182c-12.7602-1.5088-23.7494-7.564-30.1501-16.6123-5.7125-8.0757-7.4298-18.1201-4.9659-29.0469,2.7672-12.273,9.3405-21.5449,19.009-26.8125,8.8304-4.8115,20.0584-6.0493,31.6164-3.4839,13.1851,2.9253,23.5155,11.1465,28.3421,22.5552,5.1654,12.2095,3.4043,26.4121-4.959,39.9917a.99994.99994,0,1,1-1.7028-1.0488c8.0144-13.0132,9.7262-26.5664,4.8199-38.1636-4.5713-10.8052-14.3882-18.5986-26.9335-21.3823-24.1547-5.3575-43.0899,5.9384-48.2412,28.7837-2.3357,10.3593-.7285,19.852,4.6479,27.4521,6.0739,8.5869,16.5537,14.3389,28.752,15.7812,14.8833,1.7623,26.1516-8.1948,30.7137-18.8422,4.0269-9.399,4.3262-22.7593-6.9111-32.0699a1,1,0,1,1,1.276-1.54c12.086,10.0137,11.7851,24.3345,7.4734,34.3975C689.37054,675.39343,678.80814,685.20843,664.723,685.20883Z"/><path d="M747.35394,650.64883a.98663.98663,0,0,1-.2364-.0283c-3.6873-.8931-5.8243-1.4043-5.8251-1.4043a1.00005,1.00005,0,0,1,.465-1.9453s2.1393.5117,5.8311,1.4062a.99991.99991,0,0,1-.2346,1.9717Z"/><path d="M881.32154,688.37343a.99026.99026,0,0,1-.334-.0581c-3.5463-1.2564-7.2309-2.5313-10.9516-3.7896a1,1,0,0,1,.6409-1.8945c3.7294,1.2612,7.4233,2.5396,10.9787,3.7993a1.00019,1.00019,0,0,1-.334,1.9429Zm-21.9808-7.4385a1.01052,1.01052,0,0,1-.308-.0488c-3.6705-1.187-7.3882-2.3638-11.0498-3.4971a.99976.99976,0,1,1,.5913-1.9101c3.6697,1.1352,7.3955,2.3144,11.074,3.5039a1.00037,1.00037,0,0,1-.3075,1.9521Zm-22.1671-6.8603a1.00555,1.00555,0,0,1-.2838-.0415c-3.7018-1.0943-7.448-2.1763-11.1347-3.2154a.99992.99992,0,1,1,.5427-1.9248c3.6947,1.0415,7.4491,2.1255,11.1589,3.2222a1.0003,1.0003,0,0,1-.2831,1.9595Zm-22.3335-6.2984a1.00638,1.00638,0,0,1-.2611-.0351c-3.6584-.9873-7.4176-1.9859-11.2091-2.9815a1,1,0,0,1,.5078-1.9345c3.7961.9965,7.5598,1.997,11.2223,2.9853a1.0002,1.0002,0,0,1-.2599,1.9658Zm-22.4505-5.9009a.99987.99987,0,0,1-.2497-.0317c-3.8053-.9785-7.575-1.938-11.2395-2.8638a1.00017,1.00017,0,0,1,.49-1.9394c3.6672.9267,7.4396,1.8872,11.2475,2.8667a.99983.99983,0,0,1-.2483,1.9682Zm-22.5007-5.6889a.98848.98848,0,0,1-.2424-.0298c-4.0557-1.0098-7.8509-1.9478-11.2636-2.7861a1.00009,1.00009,0,0,1,.4773-1.9424c3.4145.8393,7.2118,1.7773,11.2697,2.7881a.99992.99992,0,0,1-.241,1.9702Z"/><path d="M897.80484,694.475a.99737.99737,0,0,1-.3695-.0713c-.0059-.0025-1.9563-.7788-5.5808-2.1358a1,1,0,1,1,.7012-1.873c3.6551,1.3686,5.6193,2.1504,5.6193,2.1504a1.00041,1.00041,0,0,1-.3702,1.9297Z"/><path d="M741.111,682.01453a.99771.99771,0,0,1-.255-.0332c-3.6944-.9717-5.7863-1.4834-5.7913-1.4849a.99978.99978,0,1,1,.4751-1.9423s2.1047.5146,5.8249,1.4926a1.00039,1.00039,0,0,1-.2537,1.9678Z"/><path d="M849.13244,721.01793a.998.998,0,0,1-.4599-.1123c-3.2296-1.6772-6.6897-3.3808-10.2842-5.063a1.00006,1.00006,0,0,1,.8479-1.8115c3.6191,1.6939,7.1041,3.4097,10.3579,5.0991a1.00011,1.00011,0,0,1-.4617,1.8877Zm-20.8209-9.7807a.99586.99586,0,0,1-.3937-.0816c-3.3879-1.4531-6.9597-2.9272-10.6163-4.3818a1,1,0,1,1,.7393-1.8584c3.6729,1.4609,7.2613,2.9419,10.6654,4.4023a1.00032,1.00032,0,0,1-.3947,1.9195Zm-21.3775-8.5196a1.00255,1.00255,0,0,1-.3484-.063c-3.5024-1.3022-7.1375-2.6132-10.8046-3.8964a1,1,0,0,1,.6606-1.8877c3.6791,1.2871,7.3266,2.6025,10.841,3.9091a1.00043,1.00043,0,0,1-.3486,1.938Zm-21.7156-7.6069a1.00651,1.00651,0,0,1-.314-.0508c-3.583-1.1846-7.263-2.3686-10.9381-3.5195a.99981.99981,0,1,1,.5977-1.9082c3.685,1.1538,7.3752,2.3408,10.9681,3.5283a1.00043,1.00043,0,0,1-.3137,1.9502Zm-21.9592-6.8804a.99392.99392,0,0,1-.2851-.042c-3.6798-1.0923-7.3945-2.1655-11.041-3.1899a1.00016,1.00016,0,0,1,.5409-1.9258c3.6559,1.0274,7.3801,2.103,11.0695,3.1987a1.00024,1.00024,0,0,1-.2843,1.959Z"/><path d="M864.25984,729.69613a.99661.99661,0,0,1-.5389-.1582c-1.6165-1.0366-3.3267-2.0883-5.083-3.1259a.99984.99984,0,1,1,1.0171-1.7217c1.7774,1.0498,3.5086,2.1142,5.1455,3.164a.99993.99993,0,0,1-.5407,1.8418Z"/><path d="M663.66654,672.60093a.98523.98523,0,0,1-.1724-.0151.99938.99938,0,0,1-.7069-.5083l-21.5782-39.8228a1.00009,1.00009,0,1,1,1.7585-.9531l20.9782,38.7153c6.023-5.3261,39.2545-34.5239,55.9129-45.2124a1.00014,1.00014,0,0,1,1.0801,1.6836c-18.1377,11.6377-56.2243,45.5186-56.6069,45.8594A.99992.99992,0,0,1,663.66654,672.60093Z"/><path fill="#7e75fc" d="M919.19244,834.76843a.99821.99821,0,0,1-.3217-.0532l-358.6405-121.8027a.9995.9995,0,0,1-.6239-1.2725c.4723-1.3711,47.432-138.0879,64.9639-223.5557,15.8168-77.1069,44.9117-220.5205,45.2038-221.9599a.99932.99932,0,0,1,1.188-.7793c2.2022.4687,221.7937,46.8603,359.3891,45.4126a.98617.98617,0,0,1,1.0102.9897,1.00029,1.00029,0,0,1-.9897,1.0103c-2.0608.021-4.156.0317-6.2525.0317-133.2774.0029-336.5858-41.9346-352.5853-45.2808-2.6129,12.878-29.8794,147.2432-45.0044,220.9781-16.7864,81.833-60.4852,210.5044-64.7067,222.8545L918.54744,832.493c7.0484-22.2837,129.181-410.206,129.181-522.6689a1,1,0,1,1,2,0c0,115.5273-128.2872,520.1738-129.583,524.2475a1.00025,1.00025,0,0,1-.953.6968Z"/></svg>