<svg width="437" height="76" viewBox="0 0 437 76" fill="none" xmlns="http://www.w3.org/2000/svg">
<g clip-path="url(#clip0_393_56951)">
<path d="M223.615 75.0733C223.615 75.0733 225.409 75.0733 226.433 75.0733C227.458 74.8416 229.763 75.7684 229.763 74.6099C229.763 73.9147 227.714 74.1464 226.689 74.1464C225.152 74.1464 223.359 74.3782 223.615 75.0733Z" fill="#889DFF"/>
<path d="M420.605 42.4023C420.605 42.4023 418.043 42.4023 419.068 42.8658C419.837 43.3292 421.117 42.8658 422.654 42.4023C421.63 42.4023 421.117 42.4023 420.605 42.4023Z" fill="#889DFF"/>
<path d="M421.63 51.6709C423.935 51.4392 425.472 51.2075 427.778 50.9758C425.216 50.9758 423.423 50.5124 421.63 51.6709Z" fill="#889DFF"/>
<path d="M231.813 74.6096C231.813 74.6096 232.07 74.8413 232.838 75.0731C233.35 75.0731 234.119 75.0731 234.375 74.8413C234.631 74.8413 234.375 74.3779 233.35 74.3779C232.582 74.3779 232.07 74.3779 231.813 74.6096Z" fill="#889DFF"/>
<path d="M239.498 74.3781C239.498 74.3781 239.754 74.6099 240.267 74.6099C241.035 74.6099 241.804 74.6099 242.06 74.1464C242.06 74.1464 241.291 73.9147 241.035 74.1464C240.523 74.1464 239.754 74.1464 239.498 74.6099V74.3781Z" fill="#889DFF"/>
<path d="M5.47325 73.3738H5.72057C8.68847 73.8372 11.9037 73.8372 15.1189 74.0689C20.56 74.9958 26.2485 74.5324 31.937 74.7641C38.6147 74.7641 45.0452 75.4593 51.7229 75.2276C51.9703 75.2276 52.4649 75.2276 52.7122 75.2276C55.4328 75.9228 58.648 75.2276 61.6159 75.691C63.5945 75.691 65.5731 75.691 67.5517 75.691C67.3044 75.691 66.8098 75.691 66.5624 75.4593C66.5624 75.4593 67.0571 75.691 67.5517 75.691C68.541 75.691 69.5303 75.691 70.5196 75.691C74.4768 75.691 78.434 75.691 82.1439 75.691C85.6064 76.3862 89.5636 75.691 93.0262 75.691C93.7681 75.691 94.0155 75.691 94.0155 75.4593C95.7467 75.4593 97.7253 75.691 98.9619 74.9958C99.2093 74.9958 99.7039 74.9958 99.9512 74.9958C102.919 75.9228 105.887 76.6179 109.102 74.9958C109.35 74.9958 109.844 74.9958 110.092 74.7641C110.339 74.7641 110.586 74.7641 110.834 74.7641C111.576 74.7641 112.07 74.9958 112.812 75.2276C112.812 75.691 113.554 75.9228 115.038 75.9228C118.501 75.9228 121.716 75.9228 124.931 75.4593C124.931 75.4593 124.931 75.2276 124.931 74.9958C124.931 74.9958 124.931 75.2276 124.931 75.4593C125.92 76.1545 127.652 75.4593 128.888 75.691C131.361 75.691 133.587 75.691 136.061 75.691C137.05 75.691 138.287 75.9228 139.029 75.4593C142.986 76.1545 146.696 75.4593 150.653 75.4593C152.384 75.4593 154.115 75.4593 155.599 74.9958C157.083 75.691 158.32 76.3862 160.793 75.4593C161.288 75.4593 161.04 74.9958 160.793 74.9958V75.4593C162.03 74.9958 163.514 76.1545 164.75 75.4593C164.998 75.4593 165.245 75.4593 165.492 75.4593C168.707 74.9958 172.17 76.6179 175.385 75.4593C176.127 75.4593 176.622 75.4593 177.364 75.4593C179.095 75.4593 180.579 75.9228 182.31 75.4593C183.547 75.4593 185.031 75.4593 186.268 75.4593C187.504 75.2276 191.956 75.691 188.246 74.3007C189.235 74.3007 190.225 74.3007 191.214 74.3007C194.429 74.5324 197.644 75.4593 201.107 74.9958C202.344 75.2276 203.828 74.9958 205.064 74.9958C205.559 74.9958 206.301 74.9958 206.795 74.9958C207.537 75.2276 208.279 75.4593 209.021 74.9958C210.258 74.7641 211.742 74.5324 210.011 73.8372C211.247 73.6055 212.731 73.3738 213.968 73.3738C216.688 73.3738 219.656 73.6055 222.13 72.9103C223.119 72.9103 223.861 72.9103 224.85 72.9103C225.592 72.9103 226.087 73.142 226.829 73.3738C227.571 73.3738 228.56 73.8372 229.302 73.3738C230.044 72.9103 228.313 72.9103 228.065 72.4468C231.033 72.4468 234.001 72.4468 236.969 72.4468C236.227 72.4468 235.485 72.4469 234.743 72.6786C234.99 73.142 235.98 73.3738 236.969 73.6055C235.98 74.7641 237.711 74.9958 239.937 74.7641C240.679 74.7641 241.174 74.5324 241.916 74.3007C242.905 74.3007 244.141 74.3007 244.883 73.8372C247.357 73.8372 250.077 74.5324 252.303 73.8372C251.314 73.142 248.841 73.6055 247.604 72.9103C250.077 72.9103 251.561 71.9834 253.787 71.7517C254.529 71.7517 255.024 71.7517 255.766 71.7517C255.766 72.4468 256.508 72.9103 258.486 72.9103C260.465 72.9103 260.712 72.4468 260.712 71.7517C261.702 71.7517 262.691 71.7517 263.68 71.7517C263.68 71.7517 263.68 71.7517 263.68 71.5199C263.68 71.5199 263.68 71.5199 263.68 71.7517C263.927 71.7517 264.422 71.7517 264.669 71.7517C265.164 71.9834 263.186 72.6786 265.411 72.9103C267.637 72.9103 267.885 72.4468 267.885 71.7517C268.132 71.7517 268.379 71.7517 268.874 71.7517C269.121 72.2151 269.616 72.4469 269.863 72.9103C269.863 72.9103 269.863 72.9103 269.863 73.142C268.627 73.3738 266.895 73.142 265.906 73.8372C268.379 73.8372 270.358 73.3738 272.337 74.3007C273.078 74.5324 274.81 74.3007 276.046 74.3007C278.272 74.3007 280.746 74.7641 282.971 74.3007C283.961 74.3007 284.95 74.3007 285.692 74.0689C287.176 74.0689 286.929 73.3738 286.929 72.9103C287.671 72.9103 288.165 72.9103 288.907 72.9103C289.897 72.9103 290.886 72.9103 291.381 72.6786C293.359 73.3738 295.338 72.6786 297.316 72.6786C298.058 72.6786 298.8 72.6786 299.295 72.9103C300.779 73.6055 297.316 73.142 298.058 73.8372C300.037 73.8372 302.757 73.8372 302.51 72.6786C304.983 72.6786 307.209 74.0689 310.177 73.142C311.661 73.142 312.898 73.8372 314.382 73.142C315.371 73.142 316.113 73.142 317.102 73.142C317.35 73.142 317.844 73.142 318.092 73.142C320.565 73.142 323.533 73.6055 325.017 72.4468C325.017 72.2151 325.017 71.9834 325.017 71.7517C325.017 71.7517 324.275 72.2151 325.017 72.4468C327.243 72.9103 329.469 73.3738 330.952 72.2151C330.952 72.2151 330.952 71.9834 330.952 71.7517C330.952 71.7517 330.952 71.9834 330.952 72.2151C332.684 72.4468 334.415 72.9103 336.146 72.2151C337.63 72.2151 339.361 72.2151 340.845 72.2151C342.329 72.2151 343.566 72.2151 344.803 71.7517C345.792 71.7517 346.781 71.7517 347.771 71.7517C349.502 71.2882 350.986 71.0565 352.717 70.593C354.696 70.3613 356.674 71.5199 358.653 70.593C358.405 70.3613 357.911 70.1296 357.664 69.8979C357.664 69.8979 357.664 69.6661 357.664 69.4344C358.653 69.2027 360.384 69.2027 360.879 68.5075C359.642 68.044 358.653 68.5075 357.664 68.5075C357.416 68.5075 356.922 68.5075 356.674 68.5075C356.674 68.2758 356.674 68.044 356.674 67.8123C357.416 67.8123 358.158 67.5806 358.653 67.3489C360.879 66.8854 363.599 67.8123 365.578 66.8854C367.309 66.1902 370.524 66.8854 371.266 65.7268C373.245 65.9585 374.976 65.7268 377.202 65.2633H371.266C371.266 65.2633 372.503 64.7999 373.245 64.7999C374.234 64.7999 375.224 64.3364 377.202 64.1047C375.224 64.1047 373.987 64.1047 373.245 64.3364C372.998 64.3364 372.503 64.3364 372.256 64.3364C372.256 63.6412 374.729 63.1778 372.256 62.4826C373.492 62.4826 374.729 62.4826 375.966 62.4826C376.707 62.7143 375.966 63.6412 377.202 63.4095C378.933 63.1778 377.202 62.4826 377.202 62.2509C381.654 62.0191 385.859 61.5557 390.805 60.8605C386.848 60.397 383.633 62.0191 380.17 60.8605C382.643 60.397 385.611 60.397 388.084 59.7019C390.31 59.4701 393.526 59.7019 394.268 58.5432C394.268 58.5432 395.504 58.5432 395.257 58.0798C396.493 58.0798 397.73 58.0798 398.967 58.0798C401.193 58.7749 403.171 58.0798 405.15 57.848C402.924 57.848 401.193 57.3846 398.967 57.3846C397.483 57.3846 395.999 57.3846 395.01 57.848C393.773 57.848 392.536 57.848 391.3 57.848C391.052 57.848 390.558 57.6163 390.31 57.3846C391.052 57.3846 391.794 57.3846 392.289 56.9211C396.988 56.9211 400.945 55.9942 405.15 55.299C405.892 55.299 406.386 55.299 407.128 55.299C408.365 55.0673 409.107 54.6039 409.354 53.9087C407.87 53.677 407.128 53.9087 406.139 54.1404C405.644 54.1404 405.397 54.1404 404.903 54.1404C403.419 54.1404 402.182 54.1404 401.193 54.3721C399.461 54.3721 397.977 54.3721 396.246 54.3721C395.257 54.3721 394.515 53.9087 393.278 53.9087C393.526 53.677 394.02 53.4452 394.268 53.2135C396.493 52.5183 399.709 53.2135 401.935 52.5183C404.408 52.5183 407.128 52.5183 409.602 52.5183C411.828 52.75 413.559 52.0549 415.537 52.0549C416.527 51.8231 418.258 52.0549 419 51.5914C417.516 51.3597 416.279 51.3597 415.537 51.8231C413.806 51.8231 412.075 51.8231 410.344 51.8231C407.128 51.5914 403.913 51.8231 400.698 52.2866C398.967 52.2866 397.483 52.2866 395.751 52.5183C395.504 52.2866 395.01 52.0549 394.762 51.8231C398.225 51.8231 401.193 51.5914 404.408 51.128C400.698 51.128 397.235 51.128 393.773 51.5914C392.784 51.5914 391.794 51.3597 391.052 51.128C391.3 50.8962 391.547 50.6645 392.042 50.4328C394.02 49.7376 396.493 49.5059 398.719 49.2741C399.956 49.2741 401.193 49.2741 402.182 48.8107C400.945 48.579 399.956 48.8107 398.967 48.8107C398.967 48.8107 397.235 48.3472 398.967 48.1155C401.687 47.8838 399.956 47.652 398.967 47.4203C396.988 46.9569 395.01 46.7251 393.031 46.2617C392.042 46.2617 390.805 46.2617 390.31 46.03C394.268 45.5665 396.741 44.6396 396.246 43.0175C398.967 43.0175 398.225 40.932 401.935 41.3954C400.945 41.3954 399.956 41.1637 398.967 40.932C399.956 40.932 400.945 40.7002 401.687 40.4685C403.171 40.4685 404.902 40.4685 406.139 39.7733C403.666 39.7733 401.193 39.0781 398.719 39.7733C397.977 39.7733 396.741 39.7733 396.246 39.3099C398.719 39.0781 400.945 38.8464 403.171 38.1512C403.666 38.1512 404.161 38.1512 404.655 38.1512C406.881 37.6878 410.591 38.1512 411.333 36.7609C411.333 36.7609 411.333 36.5291 411.333 36.2974C411.828 36.0657 412.322 35.834 412.57 35.6022C412.817 35.6022 413.064 35.3705 413.312 35.1388C416.279 34.9071 415.043 34.2119 414.301 33.5167C412.322 32.1263 408.365 32.5898 405.397 32.3581C405.15 32.1263 404.655 31.8946 404.161 31.6629C404.161 31.4311 404.16 30.9677 403.419 30.736C404.655 30.0408 404.161 29.8091 402.182 29.8091C402.182 29.8091 402.182 29.3456 402.182 29.1139C402.182 29.1139 404.408 29.1139 402.924 28.6504C401.687 28.4187 399.956 28.6504 398.967 28.8822H399.461C399.461 28.8822 399.214 28.8822 398.967 28.8822C398.472 28.8822 397.73 28.8822 397.235 28.8822C396.493 28.8822 395.999 28.8822 395.257 28.8822C395.999 28.6504 396.493 28.4187 397.235 28.187C399.214 28.187 400.945 27.7235 402.677 27.4918C403.419 27.4918 404.408 27.4918 404.408 27.0283C404.408 26.3332 404.902 26.3332 405.892 25.8697C407.128 25.4062 409.354 25.638 410.344 24.9428C410.344 24.0159 406.634 24.9428 407.128 24.0159C408.365 23.7842 409.107 23.3207 409.107 22.8572C410.096 22.8572 410.096 22.3938 409.107 22.1621C409.107 21.4669 409.354 20.7717 409.602 20.0765C409.602 19.3813 409.602 18.4544 406.881 18.4544C406.881 18.4544 406.386 18.4544 406.139 18.4544C402.429 17.0641 398.719 17.991 395.01 18.4544C393.526 17.7592 393.526 17.7592 395.504 17.2958C397.235 17.0641 399.461 17.2958 399.956 16.1372C402.429 15.6737 405.644 15.9054 407.87 14.9785C409.849 14.7468 412.075 14.2833 414.795 14.0516C412.57 13.3564 410.591 12.6613 408.118 12.1978C408.118 11.7343 407.623 11.2709 405.892 11.5026C403.419 11.2709 402.429 10.8074 403.171 9.6488C404.16 8.02671 400.203 6.40462 395.999 5.94117C394.268 5.94117 392.536 5.94117 391.052 6.40462C388.332 6.40462 385.859 6.40462 383.138 6.86807H381.407C381.407 6.86807 378.191 6.40462 376.708 5.70944C383.138 4.78253 390.31 5.01426 397.483 3.39217C393.278 3.39217 390.558 3.39217 388.084 3.39217C384.127 3.39217 380.17 4.08735 376.46 3.16044H375.471C373.74 3.16044 372.256 3.16044 370.524 3.16044C370.277 3.16044 370.03 3.16044 369.782 3.16044C366.567 2.69699 363.105 2.46526 359.642 2.46526C355.932 1.77008 351.728 1.77008 347.771 1.77008C339.361 0.843169 330.952 0.843169 322.296 0.843169C319.823 0.843169 317.35 0.843169 314.876 0.843169H312.403C310.919 0.379715 309.435 0.379715 307.704 0.379715C298.306 0.379715 288.907 0.379715 279.509 0.379715C270.358 0.379715 261.454 0.379715 252.303 0.379715C248.099 0.379715 243.894 -0.0837393 239.937 0.611442C239.69 0.611442 239.442 0.611442 238.948 0.843169C234.99 -0.315466 231.033 -0.0837393 226.829 0.379715C226.829 0.379715 226.829 0.379715 227.076 0.379715C227.076 0.379715 227.571 0.379715 228.065 0.611442C228.065 0.611442 227.571 0.379715 227.076 0.379715C227.076 0.379715 225.839 0.379715 225.098 0.379715C222.13 -0.0837393 219.162 0.379715 216.194 0.379715C214.71 0.379715 212.979 0.379715 211.495 0.379715C209.763 0.379715 208.279 0.379715 206.548 0.379715C192.203 0.379715 177.859 0.379715 163.514 0.379715C158.073 0.379715 152.631 0.379715 147.19 0.611442C139.029 0.611442 130.867 0.611442 122.952 1.0749C119.985 1.0749 116.769 1.0749 113.801 1.30662C116.769 1.30662 119.737 1.30662 122.952 1.30662C119.985 1.0749 117.017 1.0749 113.801 1.30662C111.823 1.30662 110.092 1.30662 108.113 1.30662C105.64 1.30662 103.166 1.30662 100.693 1.53835C98.962 1.53835 96.9834 1.53835 95.2521 1.53835C92.2842 1.53835 89.069 1.53835 86.1011 1.77008C84.6171 1.77008 82.8858 1.77008 81.4019 1.77008C77.9394 1.77008 74.7241 1.77008 71.2616 2.0018C70.7669 2.0018 70.025 2.0018 69.5303 2.0018C66.8098 2.0018 64.0892 2.0018 61.3686 2.23353C61.1213 2.23353 60.874 2.23353 60.6266 2.23353C57.6587 2.23353 54.4435 2.23353 51.4756 2.46526C50.4863 2.46526 49.7444 2.46526 48.7551 2.46526C48.5077 2.46526 48.0131 2.46526 47.7658 2.46526C46.0345 2.46526 44.3032 2.46526 42.8193 2.69699C39.8514 2.69699 36.8835 2.69699 33.9156 3.16044C29.4637 3.16044 25.2592 3.16044 21.0547 3.85562C21.0547 3.85562 19.3234 3.85562 18.3341 3.85562C16.6029 3.85562 14.8716 4.31908 13.1403 4.5508H13.3876C13.3876 4.5508 12.893 4.5508 12.6457 4.5508C12.6457 4.5508 12.893 4.5508 12.6457 4.08735C9.43044 4.08735 6.21522 4.78253 3 5.01426V41.8589C3 41.8589 3 41.8589 3 42.0906V71.9834C3 71.9834 3.74197 71.9834 3.9893 71.9834H4.23662L5.47325 73.3738ZM390.805 45.1031C390.805 45.1031 390.805 45.1031 390.558 45.1031H390.805ZM388.084 33.9801C388.084 33.9801 388.826 33.9801 389.074 33.9801C389.074 33.9801 388.332 33.9801 388.084 33.9801ZM380.17 58.0798C380.17 58.0798 380.17 58.0798 380.417 58.0798H380.17ZM375.718 16.1372C375.718 16.1372 375.718 16.1372 375.966 16.1372H375.718ZM372.503 20.54C372.503 20.54 372.256 20.54 372.008 20.54H372.503ZM365.083 58.5432C365.083 58.5432 365.578 58.7749 365.578 59.0067C365.578 59.0067 365.578 58.7749 365.083 58.5432ZM363.105 30.5042C363.105 30.5042 363.105 30.5042 362.857 30.5042H363.105ZM359.395 40.4685C359.395 40.4685 359.147 40.4685 358.9 40.4685C358.9 40.4685 359.147 40.4685 359.395 40.4685ZM358.158 19.1496C358.158 19.1496 358.158 19.1496 357.911 19.1496H358.158ZM355.438 29.8091C355.438 29.8091 355.438 29.8091 355.19 29.8091C355.19 29.8091 355.19 29.8091 355.438 29.8091ZM351.48 30.5042H352.222C352.222 30.5042 351.728 30.5042 351.233 30.5042H351.48ZM349.254 16.3689C349.254 16.3689 349.254 16.3689 349.007 16.3689C349.007 16.3689 348.513 16.3689 348.76 16.3689C348.76 16.3689 349.254 16.3689 349.502 16.3689H349.254ZM339.609 39.5416C340.103 39.5416 339.609 39.7733 339.609 39.5416ZM332.684 69.4344C332.684 69.4344 332.684 69.4344 332.436 69.4344H332.684ZM331.942 68.044C331.942 68.044 332.436 68.044 332.684 68.044C332.684 68.044 332.189 68.044 331.942 68.044ZM329.716 24.7111C329.716 24.7111 329.716 24.7111 329.716 24.4793C329.716 24.4793 329.716 24.4793 329.716 24.7111ZM324.522 70.1296C324.522 70.1296 324.522 70.1296 324.522 69.8979C324.522 69.8979 324.522 69.8979 324.522 70.1296ZM324.769 14.5151C324.275 14.5151 323.78 14.5151 323.038 14.5151C323.533 14.5151 324.275 14.5151 324.769 14.5151ZM321.554 12.4295H321.307C321.307 12.4295 321.307 12.4295 321.554 12.4295ZM318.586 70.593C318.586 70.593 318.586 70.593 318.834 70.593H318.586ZM317.844 43.481C317.844 43.481 318.092 43.481 318.339 43.481C318.092 43.481 317.844 43.481 317.35 43.481C317.35 43.481 317.597 43.481 317.844 43.481ZM316.855 30.9677C316.855 30.9677 316.608 30.9677 316.36 30.9677C316.36 30.9677 316.36 30.9677 316.608 30.9677H316.855ZM315.618 28.187C315.866 28.187 316.36 28.187 316.608 28.187C316.36 28.187 316.113 28.187 315.866 28.187H315.618ZM316.36 22.8572C316.36 22.8572 316.36 22.8572 316.36 23.089C316.36 23.089 316.36 23.089 316.36 22.8572ZM315.866 22.1621C315.866 22.1621 315.866 22.1621 315.618 22.1621C315.618 22.1621 315.866 22.1621 316.113 22.1621H315.866ZM315.866 51.5914C315.866 51.5914 315.866 51.5914 315.618 51.5914C315.618 51.5914 315.866 51.5914 316.113 51.5914H315.866ZM309.683 5.24598C309.683 5.24598 309.683 5.24598 309.435 5.24598H309.683ZM307.457 30.2725C307.457 30.2725 307.704 30.2725 307.951 30.2725C307.951 30.2725 307.704 30.2725 307.457 30.2725ZM304.241 69.8979C304.241 69.8979 304.241 69.8979 303.994 69.8979H304.241ZM303.252 5.47771C303.252 5.47771 304.241 5.47771 304.736 5.47771C304.241 5.47771 303.747 5.47771 303.252 5.47771ZM292.37 26.5649C292.37 26.5649 292.122 26.5649 291.875 26.5649C291.875 26.5649 291.875 26.5649 292.122 26.5649H292.37ZM263.186 58.7749C263.186 58.7749 262.691 58.7749 262.444 58.7749C262.691 58.7749 262.938 58.7749 263.186 58.7749ZM257.744 28.187V27.4918C257.744 27.4918 257.744 27.9552 257.744 28.187ZM259.723 12.6613C259.723 12.6613 259.476 12.6613 259.228 12.6613C258.734 12.6613 258.486 12.6613 258.239 12.6613C258.734 12.6613 259.228 12.6613 259.723 12.6613ZM255.766 57.848C255.766 57.848 255.766 57.848 256.013 57.848H255.518H255.766ZM256.013 1.0749C256.013 1.0749 255.766 1.0749 255.518 1.0749C255.518 1.0749 255.766 1.0749 256.013 1.0749ZM256.013 13.3564H256.508C256.26 13.3564 256.013 13.3564 255.518 13.3564C255.518 13.3564 255.518 13.3564 255.766 13.3564H256.013ZM252.798 54.8356C252.798 54.8356 253.54 54.8356 253.787 54.8356C253.54 54.8356 253.045 54.8356 252.798 54.8356ZM252.798 70.3613V70.8248C253.293 70.8248 252.798 70.3613 252.798 70.3613ZM238.7 49.9693C238.7 49.9693 238.7 49.9693 239.195 49.9693C239.195 49.9693 238.948 49.9693 238.7 49.9693ZM243.152 67.3489H243.647C243.4 67.3489 243.152 67.3489 242.905 67.3489H243.152ZM250.572 49.0424C246.367 48.579 242.163 48.579 237.958 49.0424C242.163 49.2741 246.367 49.0424 250.572 49.0424ZM236.227 24.2476C236.227 24.2476 236.227 24.2476 235.732 24.2476C235.732 24.2476 235.732 24.2476 235.98 24.2476H236.227ZM234.99 2.0018C234.99 2.0018 234.743 2.0018 234.496 2.0018C234.496 2.0018 234.991 2.0018 235.238 2.0018H234.99ZM234.001 6.63635C234.001 6.63635 233.754 6.63635 233.507 6.63635C233.507 6.63635 233.259 6.63635 233.012 6.63635C233.259 6.63635 233.754 6.63635 234.001 6.63635ZM225.098 37.9195C225.098 37.9195 225.098 37.9195 225.345 37.9195H225.098ZM222.872 69.4344C222.872 69.4344 222.872 69.4344 222.624 69.4344C222.624 69.4344 222.624 69.4344 222.872 69.4344ZM214.957 24.0159C214.957 24.0159 214.957 24.0159 214.71 24.0159C214.71 24.0159 214.71 24.0159 214.957 24.0159ZM214.463 26.5649C214.463 26.5649 214.463 26.5649 214.71 26.5649C214.71 26.5649 214.463 26.5649 214.215 26.5649H214.463ZM209.763 72.2151C209.763 72.2151 209.516 72.2151 209.269 72.2151C209.269 72.2151 209.269 72.2151 209.516 72.2151H209.763ZM205.064 14.5151C205.064 14.5151 205.064 14.5151 204.817 14.5151H205.064ZM202.344 65.0316H202.838C202.838 65.0316 202.591 65.0316 202.344 65.0316ZM201.107 10.1123C201.107 10.1123 201.107 10.1123 200.86 10.1123C200.86 10.1123 200.86 10.1123 201.107 10.1123ZM200.118 68.7392C200.118 68.7392 199.87 68.7392 199.623 68.9709C199.623 68.9709 200.118 68.9709 200.118 68.7392ZM199.623 13.8199C199.623 13.8199 199.623 13.8199 199.376 13.8199H199.623ZM199.128 45.1031C199.128 45.1031 199.128 45.1031 198.881 45.1031C198.881 45.1031 199.128 45.1031 199.376 45.1031H199.128ZM195.666 40.0051C195.666 40.0051 195.666 40.0051 195.913 40.0051C195.913 40.0051 195.419 40.0051 195.171 40.0051C195.171 40.0051 195.419 40.0051 195.666 40.0051ZM193.193 6.17289C193.193 6.17289 194.429 6.17289 194.924 6.17289C194.182 6.17289 193.193 6.17289 192.203 6.17289C192.451 6.17289 192.945 6.17289 193.193 6.17289ZM193.193 51.5914C193.193 51.5914 192.203 51.5914 191.709 51.5914C192.203 51.5914 192.698 51.5914 193.193 51.5914ZM189.73 58.0798C189.73 58.0798 189.977 58.0798 190.225 58.0798C190.225 58.0798 189.977 58.0798 189.73 58.0798ZM190.225 7.0998C190.225 7.0998 190.225 7.0998 189.977 7.0998H190.225ZM190.472 6.17289C190.472 6.17289 188.988 6.17289 188.246 6.17289C188.988 6.17289 189.73 6.17289 190.472 6.17289ZM185.278 10.8074C184.784 10.8074 184.784 10.8074 184.784 10.8074H184.536C184.784 10.8074 185.278 10.8074 185.526 10.8074H185.278ZM178.848 53.9087H178.6C178.6 53.9087 178.848 53.9087 179.095 53.9087H178.848ZM173.407 25.638C173.407 25.638 174.149 25.638 174.643 25.638C174.643 25.638 173.901 25.638 173.407 25.638ZM165.74 30.0408C165.74 30.0408 165.74 30.0408 165.492 30.0408C165.492 30.0408 165.492 30.0408 165.74 30.0408ZM158.815 24.4793C158.815 24.4793 159.062 24.4793 159.309 24.4793H158.815ZM158.567 22.1621C158.567 22.1621 158.32 22.1621 158.073 22.1621C158.073 22.1621 158.073 22.1621 158.32 22.1621H158.567ZM156.836 14.5151C156.836 14.5151 156.341 14.5151 156.094 14.5151H156.836ZM151.395 59.4701C151.395 59.4701 151.395 59.4701 151.642 59.4701C151.642 59.4701 151.889 59.4701 152.137 59.4701C151.889 59.4701 151.642 59.4701 151.395 59.4701C151.395 59.4701 151.147 59.4701 150.9 59.4701C150.9 59.4701 150.9 59.4701 151.147 59.4701H151.395ZM150.158 12.893C150.158 12.893 150.158 12.893 149.911 12.893C149.911 12.893 149.911 12.893 150.158 12.893ZM146.696 39.0781C146.696 39.0781 146.201 39.0781 145.954 39.0781C145.954 39.0781 146.448 39.0781 146.696 39.0781ZM146.201 18.9179H145.706C145.706 18.9179 145.459 18.9179 145.212 18.9179C145.459 18.9179 145.954 18.9179 146.201 18.9179ZM144.222 48.579C144.222 48.579 144.222 48.579 143.975 48.579H144.222ZM141.996 55.299C141.996 55.299 141.996 55.299 141.749 55.299H142.244H141.996ZM140.018 9.6488C140.018 9.6488 140.018 9.6488 140.265 9.6488H140.018ZM140.018 55.0673C140.018 55.0673 139.523 55.0673 139.276 55.0673C139.276 55.0673 139.771 55.0673 140.018 55.0673ZM136.555 66.6537C136.555 66.6537 136.555 66.6537 136.308 66.8854C136.308 66.8854 136.308 66.8854 136.803 66.6537H136.555ZM135.813 13.1247C135.813 13.1247 135.566 13.1247 135.319 13.1247C135.319 13.1247 135.566 13.1247 135.813 13.1247ZM133.587 55.5308C133.587 55.5308 133.587 55.5308 133.34 55.5308H133.587ZM130.125 74.3007C130.125 74.3007 130.125 74.3007 130.372 74.3007H130.125ZM124.189 30.2725C124.189 30.2725 124.436 30.2725 124.684 30.2725C124.436 30.2725 124.189 30.2725 123.694 30.2725C123.694 30.2725 123.942 30.2725 124.189 30.2725ZM118.748 60.8605C118.748 60.8605 118.748 60.8605 118.748 61.0922C118.748 61.0922 118.501 61.0922 118.253 60.8605C118.253 60.8605 118.253 60.8605 118.501 60.8605H118.748ZM110.339 6.17289C110.339 6.17289 110.339 6.17289 110.586 6.17289H110.339ZM109.844 64.5681C109.844 64.5681 109.844 64.5681 109.844 64.7999C109.844 64.7999 109.844 64.7999 109.597 64.7999C109.597 64.7999 109.844 64.7999 110.092 64.7999L109.844 64.5681ZM104.898 74.7641C104.898 74.7641 104.898 74.7641 104.898 74.9958C104.898 74.9958 104.898 74.9958 104.898 74.7641ZM104.156 70.3613C104.156 70.3613 104.156 70.3613 103.908 70.3613C103.908 70.3613 103.908 70.3613 104.156 70.3613ZM99.7039 28.6504C99.7039 28.6504 100.199 28.187 100.446 28.187C100.446 28.187 100.446 28.4187 99.9512 28.6504H99.7039ZM90.5529 2.0018C90.5529 2.0018 91.2949 2.0018 91.7895 2.0018C91.2949 2.0018 91.0476 2.0018 90.5529 2.0018ZM87.8323 63.8729C87.8323 63.8729 87.8323 63.8729 87.585 63.8729C87.585 63.8729 87.585 63.8729 87.8323 63.8729ZM86.843 13.1247C86.843 13.1247 86.843 13.1247 86.5957 13.1247H87.0904H86.843ZM77.692 48.579C77.1974 48.579 76.7027 48.579 76.4554 48.579H77.9394H77.692ZM73.9822 48.579C73.9822 48.579 74.7241 48.579 75.2188 48.579C74.7241 48.579 74.2295 48.579 73.7348 48.579H73.9822ZM71.7562 60.6288C71.7562 60.6288 71.7562 60.6288 71.5089 60.6288C71.5089 60.6288 71.5089 60.6288 71.5089 60.397C71.5089 60.397 71.7562 60.397 71.7562 60.6288ZM71.0143 24.7111C71.0143 24.7111 70.7669 24.7111 70.5196 24.7111C70.5196 24.7111 70.7669 24.7111 71.0143 24.7111ZM67.3044 45.1031C67.3044 45.1031 66.8098 45.1031 66.5624 45.1031C66.3151 45.1031 65.8205 45.1031 65.3258 45.1031C66.0678 45.1031 66.5624 45.1031 67.3044 45.1031ZM61.1213 39.3099C61.1213 39.3099 61.1213 39.3099 60.874 39.3099H61.1213ZM60.6266 67.5806C60.6266 67.5806 60.6266 67.5806 60.3793 67.5806H60.6266ZM60.3793 14.9785C60.3793 14.9785 60.3793 14.5151 59.39 14.2833C59.39 14.2833 59.8847 14.7468 60.3793 14.9785ZM59.39 9.6488C59.39 9.6488 59.39 9.6488 59.39 9.88053C59.39 9.88053 59.39 9.88053 59.39 9.6488ZM58.648 44.6396C58.648 44.6396 58.648 44.6396 58.4007 44.6396H58.1534C58.1534 44.6396 58.648 44.6396 58.8954 44.6396H58.648ZM56.4221 22.1621C56.4221 22.1621 56.4221 22.1621 56.1748 22.1621C56.1748 22.1621 56.4221 22.1621 56.6694 22.1621H56.4221ZM49.497 12.893C49.497 12.893 49.497 12.893 49.2497 12.893H49.497ZM41.83 14.7468C41.83 14.7468 42.3246 14.7468 42.5719 14.7468C42.3246 14.7468 41.83 14.7468 41.5826 14.7468C41.5826 14.7468 41.5826 14.7468 41.83 14.7468ZM38.6147 5.94117C38.6147 5.94117 38.3674 6.40462 38.6147 6.63635C38.6147 6.63635 38.6147 6.17289 38.6147 5.94117ZM35.3995 58.3115C35.3995 58.3115 35.3995 58.3115 35.1522 58.3115H35.3995ZM35.1522 10.8074H34.6576C34.6576 10.8074 34.9049 10.8074 35.1522 10.8074ZM34.4102 44.1761C34.4102 44.1761 34.4102 44.1761 34.6576 44.1761C34.6576 44.1761 34.4102 44.1761 34.1629 44.1761H34.4102ZM33.4209 27.0283C33.4209 27.0283 33.4209 27.0283 33.6683 27.0283C33.6683 27.0283 33.6683 27.0283 33.4209 27.0283ZM31.195 65.495C31.195 65.495 31.195 65.495 31.4423 65.495H31.195ZM29.9584 30.9677C29.9584 30.9677 29.9584 30.9677 30.2057 30.9677H29.9584ZM29.9584 30.9677V31.4311C29.9584 31.4311 30.2057 31.4311 29.9584 31.1994V30.9677ZM29.2164 24.0159C29.2164 24.0159 29.2164 24.0159 29.4637 24.0159H29.2164ZM28.2271 48.8107C28.2271 48.8107 27.4851 48.8107 27.2378 48.8107C27.4851 48.8107 27.9798 48.8107 28.2271 48.8107ZM22.5386 15.2102C22.5386 15.2102 21.5493 15.2103 21.0547 15.442C21.0547 15.442 22.044 15.442 22.5386 15.2102ZM18.5815 33.7484C18.5815 33.7484 18.8288 33.7484 19.0761 33.7484C19.0761 33.7484 18.8288 33.7484 18.5815 33.7484ZM15.3662 16.6006C15.3662 16.6006 15.3662 16.6006 15.1189 16.6006C15.1189 16.6006 15.1189 16.6006 15.3662 16.6006ZM12.893 65.495C12.893 65.495 12.893 65.495 13.1403 65.495C13.1403 65.495 12.6457 65.495 12.3983 65.495C12.3983 65.495 12.6457 65.495 12.893 65.495ZM10.6671 55.5308C10.6671 55.5308 10.9144 55.5308 11.1617 55.5308H10.6671ZM9.43044 61.0922C9.43044 61.0922 9.43044 61.0922 9.18312 61.0922C9.43044 61.0922 9.92509 61.0922 10.1724 61.0922C10.1724 61.0922 9.67776 61.0922 9.43044 61.0922ZM5.72057 35.1388C5.72057 35.1388 5.9679 35.1388 6.21522 35.1388C6.21522 35.1388 6.21522 35.1388 5.9679 35.1388H5.72057ZM4.9786 17.2958C4.9786 17.2958 4.73127 17.2958 4.48395 17.2958C4.48395 17.2958 4.73127 17.2958 4.9786 17.2958Z" fill="#889DFF"/>
<path d="M371.935 69.2805C371.935 69.2805 372.959 69.5122 373.215 69.5122C373.472 69.5122 373.728 69.5122 374.24 69.2805C373.984 69.2805 373.728 69.0488 373.215 69.0488C372.959 69.0488 372.447 69.0488 371.935 69.2805Z" fill="#889DFF"/>
<path d="M265.883 74.1463C265.883 74.1463 266.395 74.6097 267.42 74.6097C267.676 74.6097 268.701 74.378 268.701 74.1463C268.701 73.9146 267.932 73.9146 267.164 73.9146C266.651 73.9146 266.139 73.9146 265.883 73.9146V74.1463Z" fill="#889DFF"/>
<path d="M388.585 67.6586C388.585 67.6586 386.535 67.4268 384.742 68.3537C386.791 68.122 387.816 67.8903 388.585 67.6586Z" fill="#889DFF"/>
<path d="M390.378 71.3657C390.378 71.3657 391.659 71.5974 392.939 71.3657C392.171 71.3657 391.915 71.134 391.402 70.9023C390.89 70.9023 389.609 70.4388 390.122 70.9023L390.378 71.3657Z" fill="#889DFF"/>
<path d="M433.157 50.5122C433.157 50.5122 433.67 50.7439 434.182 50.9756C434.694 50.9756 434.95 50.9756 435.207 50.7439C434.95 50.7439 434.694 50.5122 434.182 50.5122C433.926 50.5122 433.413 50.5122 433.157 50.5122Z" fill="#889DFF"/>
</g>
<rect y="1.05566" width="4.08411" height="74.9444" rx="2.04206" fill="#889DFF"/>
<defs>
<clipPath id="clip0_393_56951">
<rect width="432.916" height="76" fill="white" transform="translate(4.08398)"/>
</clipPath>
</defs>
</svg>
