<svg width="154" height="27" viewBox="0 0 154 27" fill="none" xmlns="http://www.w3.org/2000/svg">
<path d="M1.42 26C1.156 26 0.94 25.916 0.772 25.748C0.604 25.58 0.52 25.364 0.52 25.1V1.7C0.52 1.436 0.604 1.22 0.772 1.052C0.94 0.883999 1.156 0.799998 1.42 0.799998H11.5C13.492 0.799998 15.22 1.112 16.684 1.736C18.172 2.336 19.324 3.248 20.14 4.472C20.98 5.696 21.4 7.244 21.4 9.116C21.4 10.964 20.98 12.488 20.14 13.688C19.324 14.888 18.172 15.776 16.684 16.352C15.22 16.928 13.492 17.216 11.5 17.216H7.216V25.1C7.216 25.364 7.12 25.58 6.928 25.748C6.76 25.916 6.544 26 6.28 26H1.42ZM7.108 12.248H11.32C12.352 12.248 13.168 11.984 13.768 11.456C14.392 10.928 14.704 10.124 14.704 9.044C14.704 8.132 14.44 7.364 13.912 6.74C13.384 6.116 12.52 5.804 11.32 5.804H7.108V12.248ZM25.3521 26C25.0881 26 24.8721 25.916 24.7041 25.748C24.5361 25.58 24.4521 25.364 24.4521 25.1V8.18C24.4521 7.94 24.5361 7.736 24.7041 7.568C24.8721 7.376 25.0881 7.28 25.3521 7.28H29.4921C29.7561 7.28 29.9721 7.376 30.1401 7.568C30.3081 7.736 30.3921 7.94 30.3921 8.18V9.62C31.0401 8.876 31.8081 8.3 32.6961 7.892C33.6081 7.484 34.6281 7.28 35.7561 7.28H37.3401C37.5801 7.28 37.7841 7.364 37.9521 7.532C38.1441 7.7 38.2401 7.916 38.2401 8.18V11.888C38.2401 12.128 38.1441 12.344 37.9521 12.536C37.7841 12.704 37.5801 12.788 37.3401 12.788H33.8481C32.8641 12.788 32.0961 13.064 31.5441 13.616C31.0161 14.144 30.7521 14.9 30.7521 15.884V25.1C30.7521 25.364 30.6561 25.58 30.4641 25.748C30.2961 25.916 30.0801 26 29.8161 26H25.3521ZM49.5152 26.36C47.4992 26.36 45.7952 26.036 44.4032 25.388C43.0352 24.74 41.9792 23.816 41.2352 22.616C40.5152 21.392 40.1072 19.94 40.0112 18.26C39.9872 17.78 39.9752 17.24 39.9752 16.64C39.9752 16.016 39.9872 15.476 40.0112 15.02C40.1072 13.316 40.5392 11.864 41.3072 10.664C42.0752 9.464 43.1432 8.54 44.5112 7.892C45.9032 7.244 47.5712 6.92 49.5152 6.92C51.4832 6.92 53.1512 7.244 54.5192 7.892C55.9112 8.54 56.9912 9.464 57.7592 10.664C58.5272 11.864 58.9592 13.316 59.0552 15.02C59.0792 15.476 59.0912 16.016 59.0912 16.64C59.0912 17.24 59.0792 17.78 59.0552 18.26C58.9592 19.94 58.5392 21.392 57.7952 22.616C57.0752 23.816 56.0192 24.74 54.6272 25.388C53.2592 26.036 51.5552 26.36 49.5152 26.36ZM49.5152 21.968C50.5952 21.968 51.3752 21.644 51.8552 20.996C52.3592 20.348 52.6472 19.376 52.7192 18.08C52.7432 17.72 52.7552 17.24 52.7552 16.64C52.7552 16.04 52.7432 15.56 52.7192 15.2C52.6472 13.928 52.3592 12.968 51.8552 12.32C51.3752 11.648 50.5952 11.312 49.5152 11.312C48.4592 11.312 47.6792 11.648 47.1752 12.32C46.6712 12.968 46.3952 13.928 46.3472 15.2C46.3232 15.56 46.3112 16.04 46.3112 16.64C46.3112 17.24 46.3232 17.72 46.3472 18.08C46.3952 19.376 46.6712 20.348 47.1752 20.996C47.6792 21.644 48.4592 21.968 49.5152 21.968Z" fill="black"/>
<path d="M69.4718 26C69.2078 26 68.9918 25.916 68.8238 25.748C68.6558 25.58 68.5718 25.364 68.5718 25.1V6.452H62.1638C61.8998 6.452 61.6838 6.368 61.5158 6.2C61.3478 6.008 61.2638 5.792 61.2638 5.552V1.7C61.2638 1.436 61.3478 1.22 61.5158 1.052C61.6838 0.883999 61.8998 0.799998 62.1638 0.799998H81.5318C81.7958 0.799998 82.0118 0.883999 82.1798 1.052C82.3478 1.22 82.4318 1.436 82.4318 1.7V5.552C82.4318 5.792 82.3478 6.008 82.1798 6.2C82.0118 6.368 81.7958 6.452 81.5318 6.452H75.1238V25.1C75.1238 25.364 75.0398 25.58 74.8718 25.748C74.7038 25.916 74.4878 26 74.2238 26H69.4718ZM81.6972 26C81.5052 26 81.3252 25.928 81.1572 25.784C81.0132 25.616 80.9412 25.436 80.9412 25.244C80.9412 25.124 80.9532 25.016 80.9772 24.92L89.4372 1.808C89.5092 1.544 89.6532 1.316 89.8692 1.124C90.1092 0.907998 90.4332 0.799998 90.8412 0.799998H96.1692C96.5772 0.799998 96.8892 0.907998 97.1052 1.124C97.3452 1.316 97.5012 1.544 97.5732 1.808L105.997 24.92C106.045 25.016 106.069 25.124 106.069 25.244C106.069 25.436 105.985 25.616 105.817 25.784C105.673 25.928 105.493 26 105.277 26H100.849C100.489 26 100.213 25.916 100.021 25.748C99.8532 25.556 99.7452 25.388 99.6972 25.244L98.2932 21.572H88.6812L87.3132 25.244C87.2652 25.388 87.1572 25.556 86.9892 25.748C86.8212 25.916 86.5332 26 86.1252 26H81.6972ZM90.1572 16.388H96.8532L93.4692 6.884L90.1572 16.388ZM117.916 26.36C115.516 26.36 113.524 26.024 111.94 25.352C110.356 24.656 109.156 23.756 108.34 22.652C107.524 21.548 107.092 20.372 107.044 19.124C107.044 18.932 107.116 18.764 107.26 18.62C107.428 18.452 107.62 18.368 107.836 18.368H112.372C112.708 18.368 112.96 18.428 113.128 18.548C113.32 18.668 113.488 18.824 113.632 19.016C113.824 19.376 114.088 19.724 114.424 20.06C114.784 20.396 115.24 20.672 115.792 20.888C116.368 21.08 117.076 21.176 117.916 21.176C119.308 21.176 120.352 20.96 121.048 20.528C121.768 20.096 122.128 19.508 122.128 18.764C122.128 18.236 121.936 17.804 121.552 17.468C121.168 17.108 120.544 16.796 119.68 16.532C118.84 16.244 117.712 15.956 116.296 15.668C114.472 15.284 112.912 14.792 111.616 14.192C110.344 13.568 109.372 12.764 108.7 11.78C108.028 10.772 107.692 9.524 107.692 8.036C107.692 6.572 108.1 5.264 108.916 4.112C109.756 2.96 110.92 2.06 112.408 1.412C113.896 0.763999 115.66 0.439999 117.7 0.439999C119.356 0.439999 120.808 0.655999 122.056 1.088C123.328 1.52 124.396 2.096 125.26 2.816C126.124 3.536 126.772 4.304 127.204 5.12C127.66 5.912 127.9 6.692 127.924 7.46C127.924 7.652 127.852 7.832 127.708 8C127.564 8.144 127.384 8.216 127.168 8.216H122.416C122.152 8.216 121.924 8.168 121.732 8.072C121.54 7.976 121.372 7.82 121.228 7.604C121.084 7.076 120.7 6.62 120.076 6.236C119.476 5.828 118.684 5.624 117.7 5.624C116.644 5.624 115.816 5.816 115.216 6.2C114.64 6.56 114.352 7.124 114.352 7.892C114.352 8.372 114.508 8.792 114.82 9.152C115.156 9.512 115.696 9.824 116.44 10.088C117.208 10.352 118.252 10.628 119.572 10.916C121.756 11.324 123.52 11.84 124.864 12.464C126.208 13.064 127.192 13.856 127.816 14.84C128.44 15.8 128.752 17.012 128.752 18.476C128.752 20.108 128.284 21.524 127.348 22.724C126.436 23.9 125.164 24.8 123.532 25.424C121.9 26.048 120.028 26.36 117.916 26.36ZM133.256 26C132.992 26 132.776 25.916 132.608 25.748C132.44 25.58 132.356 25.364 132.356 25.1V1.7C132.356 1.436 132.44 1.22 132.608 1.052C132.776 0.883999 132.992 0.799998 133.256 0.799998H137.792C138.056 0.799998 138.272 0.883999 138.44 1.052C138.608 1.22 138.692 1.436 138.692 1.7V9.692L145.352 1.484C145.448 1.34 145.604 1.196 145.82 1.052C146.06 0.883999 146.372 0.799998 146.756 0.799998H151.94C152.156 0.799998 152.336 0.883999 152.48 1.052C152.624 1.196 152.696 1.364 152.696 1.556C152.696 1.724 152.648 1.868 152.552 1.988L143.948 12.86L153.236 24.812C153.332 24.908 153.38 25.052 153.38 25.244C153.38 25.436 153.296 25.616 153.128 25.784C152.984 25.928 152.816 26 152.624 26H147.26C146.828 26 146.492 25.904 146.252 25.712C146.036 25.52 145.892 25.376 145.82 25.28L138.692 16.388V25.1C138.692 25.364 138.608 25.58 138.44 25.748C138.272 25.916 138.056 26 137.792 26H133.256Z" fill="#5509F7"/>
</svg>
