<svg xmlns="http://www.w3.org/2000/svg" enable-background="new 0 0 512 512" viewBox="0 0 512 512"><path fill="#fdc308" d="M425.5,68.2H332v37.7c0,3.6-2.9,6.5-6.5,6.5h-139c-3.6,0-6.5-2.9-6.5-6.5V68.2H86.5
			c-17,0-30.8,13.9-30.8,30.8v366.1c0,17,13.9,30.8,30.8,30.8h338.9c17,0,30.8-13.9,30.8-30.8V99C456.3,82.1,442.4,68.2,425.5,68.2z
			"/><path fill="#484f5b" d="M425.5,499H86.5c-18.7,0-33.8-15.2-33.8-33.8V99c0-18.7,15.2-33.8,33.8-33.8H183v40.7c0,1.9,1.6,3.5,3.5,3.5
			h139c1.9,0,3.5-1.6,3.5-3.5V65.2h96.4c18.7,0,33.8,15.2,33.8,33.8v366.1C459.3,483.8,444.1,499,425.5,499z M86.5,71.2
			c-15.3,0-27.8,12.5-27.8,27.8v366.1c0,15.3,12.5,27.8,27.8,27.8h338.9c15.3,0,27.8-12.5,27.8-27.8V99c0-15.3-12.5-27.8-27.8-27.8
			H335v34.7c0,5.3-4.3,9.5-9.5,9.5h-139c-5.3,0-9.5-4.3-9.5-9.5V71.2H86.5z"/><path fill="#fff" d="M100.2,122.4v318.4c0,6.3,5.2,11.5,11.6,11.5h284.6c6.4,0,11.6-5.2,11.6-11.5V122.4H100.2z"/><path fill="#484f5b" d="M396.4,455.3H111.8c-8.1,0-14.6-6.5-14.6-14.5V119.4h313.9v321.4C411.1,448.8,404.5,455.3,396.4,455.3z
			 M103.2,125.4v315.4c0,4.7,3.9,8.5,8.6,8.5h284.6c4.8,0,8.6-3.8,8.6-8.5V125.4H103.2z"/><rect width="174.3" height="23.5" x="206.5" y="163.4" fill="#58c1d4"/><path fill="#484f5b" d="M383.9,189.9H203.5v-29.5h180.3V189.9z M209.5,183.9h168.3v-17.5H209.5V183.9z"/><rect width="174.3" height="23.5" x="206.5" y="234.3" fill="#58c1d4"/><path fill="#484f5b" d="M383.9,260.8H203.5v-29.5h180.3V260.8z M209.5,254.8h168.3v-17.5H209.5V254.8z"/><rect width="112.2" height="23.5" x="268.7" y="305" fill="#58c1d4"/><path fill="#484f5b" d="M383.9,331.5H265.7V302h118.2V331.5z M271.7,325.5h106.2V308H271.7V325.5z"/><rect width="56.1" height="23.5" x="324.8" y="378" fill="#58c1d4"/><path fill="#484f5b" d="M383.9,404.4h-62.1V375h62.1V404.4z M327.8,398.4h50.1V381h-50.1V398.4z"/><polygon fill="#d2dc66" points="196.6 141.3 157 203.5 140.9 203.5 124.9 172.6 135 163.3 149.3 188 168 167.3"/><path fill="#484f5b" d="M158.7,206.5H139L121.2,172l14.4-13.5l14.1,24.4l16.2-17.8l45.2-41L158.7,206.5z M142.7,200.5h12.7l26.7-41.9
			l-11.9,10.8l-21.4,23.6l-14.5-25l-5.6,5.2L142.7,200.5z"/><path fill="#d55959" d="M316.1,48.1h-29.6c0-17.7-14.4-32.1-32.1-32.1s-32.1,14.4-32.1,32.1h-26.4c-3.1,0-5.6,2.5-5.6,5.6v40
			c0,3.1,2.5,5.6,5.6,5.6h120.2c3.1,0,5.6-2.5,5.6-5.6v-40C321.7,50.6,319.2,48.1,316.1,48.1z M254.9,54.1
			c-6.7,0-12.1-5.4-12.1-12.1c0-6.7,5.4-12.1,12.1-12.1S267,35.3,267,42C267,48.7,261.5,54.1,254.9,54.1z"/><path fill="#484f5b" d="M316.1,102.4H195.9c-4.8,0-8.6-3.9-8.6-8.6v-40c0-4.8,3.9-8.6,8.6-8.6h23.6C221,27.1,236.1,13,254.4,13
			s33.4,14.1,34.9,32.1h26.8c4.8,0,8.6,3.9,8.6,8.6v40C324.7,98.5,320.9,102.4,316.1,102.4z M195.9,51.1c-1.5,0-2.6,1.2-2.6,2.6v40
			c0,1.5,1.2,2.6,2.6,2.6h120.2c1.5,0,2.6-1.2,2.6-2.6v-40c0-1.5-1.2-2.6-2.6-2.6h-32.6v-3c0-16-13-29.1-29.1-29.1
			s-29.1,13-29.1,29.1v3H195.9z M254.9,57.1c-8.3,0-15.1-6.8-15.1-15.1s6.8-15.1,15.1-15.1S270,33.7,270,42S263.2,57.1,254.9,57.1z
			 M254.9,32.9c-5,0-9.1,4.1-9.1,9.1s4.1,9.1,9.1,9.1c5,0,9.1-4.1,9.1-9.1S259.9,32.9,254.9,32.9z"/><rect width="55" height="51.5" x="124.9" y="222.8" fill="#d2dc66"/><path fill="#484f5b" d="M183,277.3h-61v-57.5h61V277.3z M127.9,271.3h49v-45.5h-49V271.3z"/><rect width="55" height="51.5" x="196.8" y="291" fill="#d2dc66"/><path fill="#484f5b" d="M254.8,345.5h-61V288h61V345.5z M199.8,339.5h49V294h-49V339.5z"/><rect width="55" height="51.5" x="254.7" y="363.9" fill="#d2dc66"/><path fill="#484f5b" d="M312.7,418.5h-61v-57.5h61V418.5z M257.7,412.5h49v-45.5h-49V412.5z"/><polygon fill="#d2dc66" points="254.7 383.5 161.7 383.5 161.7 325.6 196.8 325.6 196.8 307.7 161.7 307.7 161.7 274.3 143.2 274.3 143.2 383.5 143.2 401.4 143.2 401.4 161.7 401.4 161.7 401.4 254.7 401.4"/><path fill="#484f5b" d="M161.7,404.4h-21.5V271.3h24.5v33.4h35.1v23.9h-35.1v51.8h93v23.9h-93L161.7,404.4z M146.2,398.4h12.5l3-0.1
			h90v-11.9h-93v-63.8h35.1v-11.9h-35.1v-33.4h-12.5V398.4z"/></svg>