<svg xmlns="http://www.w3.org/2000/svg" data-name="Layer 1" viewBox="0 0 32 32"><rect width="15" height="8" x="8.5" y=".5" fill="#37b678" rx="2" ry="2"/><rect width="15" height="8" x="8.5" y="23.5" fill="#4ebaea" rx="2" ry="2"/><path fill="#e5303e" d="M16,22a6,6,0,1,1,6-6A6.00656,6.00656,0,0,1,16,22Zm0-11a5,5,0,1,0,5,5A5.00589,5.00589,0,0,0,16,11Z"/><circle cx="16" cy="16" r="5" fill="#fff"/><circle cx="16" cy="16" r="1" fill="#e5303e" transform="rotate(-37.84 16 16)"/><path d="M10.5,9h11A2.50232,2.50232,0,0,0,24,6.5v-4A2.50232,2.50232,0,0,0,21.5,0h-11A2.50232,2.50232,0,0,0,8,2.5v4A2.50232,2.50232,0,0,0,10.5,9ZM9,2.5A1.50164,1.50164,0,0,1,10.5,1h11A1.50164,1.50164,0,0,1,23,2.5v4A1.50164,1.50164,0,0,1,21.5,8h-11A1.50164,1.50164,0,0,1,9,6.5ZM21.5,23h-11A2.50232,2.50232,0,0,0,8,25.5v4A2.50232,2.50232,0,0,0,10.5,32h11A2.50232,2.50232,0,0,0,24,29.5v-4A2.50232,2.50232,0,0,0,21.5,23ZM23,29.5A1.50164,1.50164,0,0,1,21.5,31h-11A1.50164,1.50164,0,0,1,9,29.5v-4A1.50164,1.50164,0,0,1,10.5,24h11A1.50164,1.50164,0,0,1,23,25.5ZM29.5,5h-4a.5.5,0,0,0,0,1h4A1.50164,1.50164,0,0,1,31,7.5v7A1.50164,1.50164,0,0,1,29.5,16h-5l.56055-.56055a.49995.49995,0,0,0-.707-.707l-1.41406,1.41406a.49982.49982,0,0,0,0,.707l1.41406,1.41406a.49995.49995,0,0,0,.707-.707L24.5,17h5A2.50232,2.50232,0,0,0,32,14.5v-7A2.50232,2.50232,0,0,0,29.5,5ZM5.64648,25.73242a.49995.49995,0,0,0-.707.707L5.5,27h-3A1.50164,1.50164,0,0,1,1,25.5v-7A1.50164,1.50164,0,0,1,2.5,17h6a.5.5,0,0,0,0-1h-6A2.50232,2.50232,0,0,0,0,18.5v7A2.50232,2.50232,0,0,0,2.5,28h3l-.56055.56055a.49995.49995,0,1,0,.707.707l1.41406-1.41406a.49982.49982,0,0,0,0-.707ZM16,10a6,6,0,1,0,6,6A6.00656,6.00656,0,0,0,16,10Zm0,11a5,5,0,1,1,5-5A5.00589,5.00589,0,0,1,16,21Zm2.25-5.5h-.842a1.48156,1.48156,0,0,0-.22345-.41992A1.46408,1.46408,0,0,0,16.5,14.61542V13.25a.5.5,0,0,0-1,0v1.34155a1.49682,1.49682,0,0,0,.31348,2.89673,1.55616,1.55616,0,0,0,.18945.0127A1.49754,1.49754,0,0,0,17.41211,16.5H18.25a.5.5,0,0,0,0-1Zm-1.94336.89551a.48867.48867,0,0,1-.36816.10059A.4999.4999,0,0,1,15.999,15.5a.4476.4476,0,0,1,.0625.00391.50045.50045,0,0,1,.24512.8916ZM11.5,4h9a.5.5,0,0,0,0-1h-9a.5.5,0,0,0,0,1Zm0,2h5a.5.5,0,0,0,0-1h-5a.5.5,0,0,0,0,1Zm9,20h-9a.5.5,0,0,0,0,1h9a.5.5,0,0,0,0-1Zm-4,2h-5a.5.5,0,0,0,0,1h5a.5.5,0,0,0,0-1Z"/></svg>