<svg xmlns="http://www.w3.org/2000/svg" enable-background="new 0 0 134 134" viewBox="0 0 134 134"><path fill="#464C59" d="M41.69564,56.38968c-0.18359,0-0.36816-0.06714-0.5127-0.20264
				c-0.30176-0.2832-0.31738-0.75757-0.03516-1.06006c0.1084-0.11572,10.85352-11.73535,11.61816-24.7107
				c0.02441-0.41406,0.41211-0.72339,0.79297-0.70459c0.41406,0.02441,0.72949,0.37939,0.70508,0.79297
				c-0.79785,13.52515-11.56348,25.15918-12.02148,25.64795C42.09506,56.31009,41.89584,56.38968,41.69564,56.38968z"/><path fill="#AF8DC0" d="M63.08496 120.54734c0 1.22318-.93215 1.26845-2.07616 1.26845-1.14395 0-2.0761-.04527-2.0761-1.26845s.93215-3.12585 2.0761-3.12585C62.15281 117.42149 63.08496 119.32417 63.08496 120.54734zM75.95347 120.54734c0 1.22318-.93214 1.26845-2.07616 1.26845-1.14395 0-2.0761-.04527-2.0761-1.26845s.93214-3.12585 2.0761-3.12585C75.02132 117.42149 75.95347 119.32417 75.95347 120.54734z"/><path fill="#69697D" d="M62.36103,118.40212c1.08038-9.87109,3.10975-27.91309,5.02387-27.91309
			c1.9223,0,4.02916,18.04199,5.10277,27.91309h2.70149c5.74591-7.4707,9.89044-27.56543,10.59662-41.3877h-36.8017
			c0.70612,13.82227,4.85071,33.91699,10.59662,41.3877H62.36103z"/><path fill="#FFF" d="M86.66234,81.30447C86.3939,55.72853,77.86936,35.19391,67.3849,35.19391
			c-10.48441,0-19.00895,20.53462-19.27739,46.11056C61.16043,85.33524,74.02277,85.55002,86.66234,81.30447z"/><path fill="#AF8DC0" d="M86.65998,79.15018c-0.01778,0.0095-0.02661,0.0095-0.04438,0.01894
			c-12.60738,4.2148-25.43671,4.00598-38.46135,0c-0.01778-0.00945-0.02666-0.01894-0.04438-0.01894
			c0.1953-18.33055,4.62563-34.0791,10.9915-41.53091c2.50372-2.94279,5.30928-4.58503,8.28353-4.58503
			c2.97431,0,5.77987,1.64223,8.28359,4.58503C82.0343,45.07108,86.46468,60.81963,86.65998,79.15018z"/><path fill="#F79E7E" d="M70.6877,83.18684c0,1.04418-1.34064,1.88905-2.98313,1.88905c-1.65143,0-2.99203-0.84487-2.99203-1.88905
			s1.3406-1.89855,2.99203-1.89855C69.34705,81.28828,70.6877,82.14265,70.6877,83.18684z"/><path fill="#FFF" d="M75.66849,37.61927c-0.34628,0.30378-0.76353,0.59805-1.23412,0.84481
			c-1.75791,0.96828-4.26163,1.56633-7.04948,1.56633c-2.77895,0-5.2915-0.60755-7.04947-1.56633
			c-0.47053-0.25627-0.87896-0.54104-1.23406-0.84481c2.50372-2.94279,5.30928-4.58503,8.28353-4.58503
			C70.35921,33.03424,73.16476,34.67648,75.66849,37.61927z"/><polygon fill="#FFF" points="70.821 57.227 67.705 60.542 64.579 57.227 67.412 42.438 65.831 39.879 67.705 38.486 69.569 39.879 67.998 42.438"/><path fill="#F8AF59" d="M73.89677,35.3791c1.4235-2.5256,2.2979-5.89322,2.2979-9.60291
			c0-7.83315-3.87437-14.18365-8.65357-14.18365c-4.77941,0-8.65368,6.3505-8.65368,14.18365
			c0,3.71058,0.87573,7.07688,2.29964,9.60291C65.61814,40.13571,69.83744,39.71184,73.89677,35.3791z"/><path fill="#464C59" d="M65.41456 32.66151c.10736 1.33262 1.0833 2.38019 2.28554 2.38019 1.20223 0 2.17817-1.04757 2.28553-2.38019C68.46193 33.1649 66.93826 33.1649 65.41456 32.66151zM59.15633 15.83586c-.35602 1.38463 1.07817 2.58781 2.5546 2.29225 1.4076-.28178 3.38964-.31356 5.57969.75286 4.25336 2.07113 9.11691 1.72045 11.41693.38041 1.60628-.93585-.26863-12.55356-8.82014-10.14429 0 0-4.6693.77544-8.64105 3.70306C59.47698 14.12439 59.40949 14.85125 59.15633 15.83586zM78.02084 44.9512c-.19629 0-.3916-.07642-.53906-.22876-.28809-.29761-.28027-.77246.01758-1.06055 7.9043-7.64209 9.02734-18.78028 8.99316-24.7395-.00195-.41431.33105-.75195.74609-.75439.40039.00049.75195.33203.75391.74561.03516 6.19873-1.14453 17.79688-9.4502 25.82691C78.39682 44.88113 78.20834 44.9512 78.02084 44.9512zM66.33237 69.40408c-.15723 0-.31543-.04932-.45117-.15137-6.74512-5.0918-10.53614-10.55322-11.26758-16.23266-.79395-6.16724 2.36035-10.24561 2.49512-10.41602.25781-.32568.72754-.37866 1.05176-.12451.3252.25562.38184.72656.12695 1.05249-.0293.03735-2.90723 3.79321-2.18164 9.32935.68848 5.25293 4.28125 10.36499 10.67969 15.19409.33008.24951.39648.71997.14648 1.05054C66.78452 69.30129 66.55991 69.40408 66.33237 69.40408z"/><path fill="#464C59" d="M75.19174,71.24416c-2.3457,0-4.61914-0.69678-6.79395-2.08618
				c-0.34668-0.09863-1.1543-0.24463-1.56543,0.05469c-0.22266,0.16333-0.33105,0.49805-0.32227,0.99463
				c0.00684,0.41406-0.32227,0.75586-0.7373,0.76318c-0.41895,0.00903-0.75586-0.32324-0.7627-0.73682
				c-0.02246-1.26514,0.5-1.91382,0.94238-2.23535c1.15137-0.83862,2.82324-0.29907,3.00879-0.23511
				c0.05859,0.01978,0.11328,0.04663,0.16504,0.07983c2.82324,1.83008,5.8291,2.33862,8.93457,1.51465
				c10.10254-2.68213,18.30273-18.36572,18.38477-18.52392c0.18848-0.36743,0.64063-0.51367,1.00977-0.32202
				c0.36816,0.18994,0.5127,0.64233,0.32227,1.0105c-0.3457,0.66968-8.59375,16.43432-19.33203,19.28515
				C77.34799,71.09866,76.26205,71.24416,75.19174,71.24416z"/><path fill="#E5E5E4" d="M114.44595,79.79101c0,0,0.15634,28.61095,4.22128,35.95912l-2.67881,0.85619
			c0,0-15.07504-11.79313-14.56213-30.80313L114.44595,79.79101z"/><path fill="#D3D1D1" d="M103.81307,75.86868c0,0-5.79828,33.03174-2.08024,41.55358l-2.03053,0.77431
			c0,0-13.48643-15.09423-11.78362-36.67181L103.81307,75.86868z"/><path fill="#F05D55" d="M120.25261 118.1518c.16964-1.1137-.41325-2.30805-1.63267-2.72402l-.13703-.04676-2.49449 1.2253c0 0-.27745 1.06481-1.75318 2.30794-1.04361.87911-.69744 1.87708-.40487 2.39216C114.09158 121.8382 120.51382 118.68359 120.25261 118.1518zM102.03294 120.66431c.67967-.97716.68327-2.38135-.2794-3.34388l-.10818-.10817h-2.93642c0 0-.75916.88057-2.73775 1.37204-1.39922.34756-1.53582 1.45525-1.49829 2.08001C94.47289 121.29031 102.03294 121.29031 102.03294 120.66431zM115.53047 84.23587c-.07985.63793-.40031 1.24308-.97967 1.50643-8.72224 4.01342-17.4234 3.68693-26.27199-.01054-.62154-.26335-1.03232-.88496-1.03232-1.55902-.09484-13.47313 2.14893-25.90339 5.89906-33.58278.15804-.33703.32655-.65298.49507-.96905.2739-.51616.55833-1.00069.84277-1.46425 1.36942-2.1805 2.88633-3.75006 4.50855-4.51916.77951-.36867 1.54855-.56875 2.37017-.56875 1.2009 0 2.4018.15791 3.56052.56875 1.51691.5267 3.46569 1.22199 4.68768 2.79156.29492.38976.55827.84278.75842 1.35894.1264.30553.22124.63202.28444.99014C111.78034 54.67732 118.30779 62.04551 115.53047 84.23587z"/><path fill="#F8AF59" d="M109.61032,46.42905c-2.62297,2.91796-7.53189,5.75156-10.78688,4.94042
			c-2.96008-0.73733-3.58162-1.79074-4.34004-3.21281c1.36942-2.1805,2.88633-3.75006,4.50855-4.51916
			c0.77951-0.36867,1.54855-0.56875,2.37017-0.56875c1.2009,0,2.4018,0.15791,3.56052,0.56875
			C106.43955,44.1642,108.38834,44.85949,109.61032,46.42905z"/><path fill="#F8AF59" d="M107.64856,47.78015c1.36497-2.73433,2.20904-6.40892,2.20904-10.46605
			c0-3.70236-0.70222-7.08041-1.86571-9.71111c-1.08472-2.45247-3.52728-4.01432-6.20902-4.01432
			c-2.68181,0-5.12437,1.56185-6.20909,4.01457c-1.16335,2.63043-1.86545,6.00849-1.86545,9.71085
			c0,4.05714,0.84393,7.73172,2.20898,10.46605C99.65207,49.57449,103.57705,49.42584,107.64856,47.78015z"/><path fill="#464C59" d="M99.34256 31.25685c-.71889-.06282-1.43357.05514-2.10235.32622-1.92273.77937-6.53165 2.10903-6.33664-3.15652.27409-7.40052 16.21342-20.73753 21.9052 1.78041 6.19688 24.5162-6.99637 16.34388-6.25509 8.46861C107.12085 32.65003 101.8499 31.47596 99.34256 31.25685zM97.37036 43.06874c.04216 1.62048.83224 2.92036 1.81168 2.92036.97193 0 1.76173-1.29988 1.80389-2.92036C99.78075 44.30955 98.57554 44.30955 97.37036 43.06874z"/><path fill="#464C59" d="M110.31577,55.30496c-0.34668,0-0.65723-0.24219-0.73242-0.59497
				c-0.08496-0.40479,0.17383-0.80249,0.57813-0.88892c0.54492-0.11646,13.33301-3.06055,12.49414-21.12476
				c-0.01953-0.41382,0.30078-0.76489,0.71387-0.78418c0.41211-0.01855,0.76465,0.30054,0.78418,0.71436
				c0.90039,19.37671-13.53711,22.63159-13.68262,22.66235C110.41928,55.29959,110.36752,55.30496,110.31577,55.30496z"/><path fill="#F8AF59" d="M19.39887 92.2394c0 0-.74643 16.00701-7.54737 25.95966-.62456.91386-.99296 1.62263-1.1532 2.14703h3.22133c5.24463-3.33451 15.00866-13.72906 16.42707-26.86273L19.39887 92.2394zM39.4701 121.1412c2.28484-5.55968 2.79754-24.97547 1.5967-29.39948l-8.3759 1.34258c0 0 1.02585 20.97579 3.83103 27.96445L39.4701 121.1412z"/><path fill="#6AB1E1" d="M45.42901,66.51917v25.78232c0,2.20149-1.77769,3.99097-3.97919,3.99097H17.85729
			c-2.2015,0-4.03804-1.62465-4.37949-3.79093c-0.68277-4.30872-1.04772-8.93546-1.04772-13.79761
			c0-16.79972,4.297-31.20953,10.48947-37.54312c0.31789-0.34146,0.67105-0.67113,1.01244-0.96545
			c1.84833-1.61286,3.90856-2.48403,6.00414-2.48403c4.5089,0,8.57051,3.95562,11.7021,10.47776
			c0.18833,0.40023,0.37674,0.80046,0.5415,1.21263c0.22369,0.52971,0.43559,1.07121,0.63577,1.6245
			C44.64026,55.93549,45.42901,61.23322,45.42901,66.51917z"/><path fill="#F8AF59" d="M42.17973,49.40171c-1.10664,1.51859-2.64886,2.2367-4.63846,2.75463
			c-5.33301,1.37761-11.64318-2.58994-14.62172-10.99555c0.31789-0.34146,0.67105-0.67113,1.01244-0.96545
			c1.84833-1.61286,3.90856-2.48403,6.00414-2.48403c4.5089,0,8.57051,3.95562,11.7021,10.47776
			C41.82656,48.58932,42.01496,48.98955,42.17973,49.40171z"/><path fill="#F8AF59" d="M42.22755,36.16883c0,10.15849-1.19555,12.55672-5.85984,12.55672
			c-4.66406,0-10.9781-2.39823-10.9781-12.55672c0-10.19806,3.75479-18.45841,8.41885-18.45841
			C38.47276,17.71043,42.22755,25.97078,42.22755,36.16883z"/><path fill="#F05D55" d="M31.33067,25.11534c2.98752-0.16784,11.10025,2.99349,11.86729-1.55637
			c1.0466-6.20814-21.91393-20.38964-24.90186,11.67275c-0.66701,7.15748-2.52485,15.97055-7.97638,27.6255
			c-1.00218,2.14258-0.87546,7.49001,9.14365,2.43182s8.46274-29.86277,8.46274-29.86277S26.317,25.397,31.33067,25.11534z"/><path fill="#464C59" d="M36.45927,42.08872c0.33892,1.5618,1.33408,2.67823,2.28269,2.50916
			c0.95351-0.16994,1.49723-1.56064,1.27536-3.14331C39.13025,42.74691,37.94423,42.95829,36.45927,42.08872z"/><path fill="#6AB1E1" d="M10.31422,123.99744c-0.71892-1.03357-0.72271-2.51884,0.29554-3.53693l0.11442-0.11442h3.10597
			c0,0,0.80298,0.9314,2.89581,1.45126c1.48001,0.36763,1.62449,1.53927,1.5848,2.2001
			C18.31075,124.65958,10.31422,124.65958,10.31422,123.99744z"/><path fill="#464C59" d="M51.77182,74.40163c-1.38477,0-2.75977-0.13696-4.12305-0.41187
				c-9.76758-1.96899-16.1748-10.43945-18.47656-13.98974c-0.22559-0.34741-0.12695-0.81201,0.2207-1.03735
				c0.34863-0.22485,0.81152-0.12573,1.03711,0.22144c2.19922,3.39111,8.30664,11.47876,17.51465,13.3352
				c5.82813,1.17456,11.92871-0.37256,18.13477-4.59717c0.3418-0.23315,0.80859-0.14429,1.04199,0.19775
				c0.2334,0.34253,0.14453,0.80884-0.19824,1.04199C61.80307,72.64797,56.72396,74.40163,51.77182,74.40163z"/><path fill="#464C59" d="M28.44272 60.69217c-.66797 0-1.37402-.17114-2.0791-.51489-.37207-.1814-.52637-.63062-.34473-1.00269.18164-.37231.62988-.52759 1.00293-.34546.9873.48145 1.93652.47949 2.60547-.00928.58887-.43164.86816-1.18311.74512-2.0105-.06055-.40967.22266-.79102.63184-.85181.42871-.05859.79199.22266.85254.63208.20508 1.3877-.29688 2.67407-1.34375 3.44043C29.91147 60.47073 29.20151 60.69217 28.44272 60.69217zM107.21616 58.15188c-.33887 0-.64648-.23193-.72852-.57642-.0957-.40308.15234-.80737.55566-.90332 1.07031-.25513 1.80273-.86011 2.00781-1.6604.18164-.70801-.0791-1.46606-.69922-2.02783-.30664-.27832-.33008-.75269-.05176-1.05957s.75293-.33008 1.05957-.05176c1.03906.94263 1.4668 2.25562 1.14453 3.51221-.34863 1.35718-1.4834 2.35815-3.11328 2.74634C107.33237 58.14505 107.27377 58.15188 107.21616 58.15188z"/><path fill="#6AB1E1" d="M36.10604,124.71441c-0.71892-1.03357-0.72271-2.51884,0.29554-3.53694l0.11442-0.11442h3.10597
			c0,0,0.80298,0.93141,2.89581,1.45126c1.48001,0.36763,1.6245,1.53926,1.5848,2.2001
			C44.10257,125.37656,36.10604,125.37656,36.10604,124.71441z"/></svg>